<svg xmlns="http://www.w3.org/2000/svg" xmlns:xlink="http://www.w3.org/1999/xlink" width="850" height="586" viewBox="0 0 850 586">
  <defs>
    <clipPath id="clip-Web_1920_1">
      <rect width="850" height="586"/>
    </clipPath>
  </defs>
  <g id="Web_1920_1" data-name="Web 1920 – 1" clip-path="url(#clip-Web_1920_1)">
    <g id="undraw_personal_notebook_re_d7dc" transform="translate(157 63.586)">
      <path id="Path_1" data-name="Path 1" d="M569.645,655.818a6.786,6.786,0,0,1-3.347-.886l-193.5-109.4a6.828,6.828,0,0,1-2.58-9.293l152.4-269.566a6.818,6.818,0,0,1,9.292-2.58l193.5,109.4a6.828,6.828,0,0,1,2.581,9.292l-152.4,269.566a6.776,6.776,0,0,1-4.112,3.216,6.856,6.856,0,0,1-1.834.25Z" transform="translate(-202.882 -220.586)" fill="#e6e6e6"/>
      <rect id="Rectangle_1" data-name="Rectangle 1" width="1.58" height="234.918" transform="matrix(0.492, -0.871, 0.871, 0.492, 313.567, 58.027)" fill="#fff"/>
      <rect id="Rectangle_2" data-name="Rectangle 2" width="1.58" height="234.918" transform="matrix(0.492, -0.871, 0.871, 0.492, 299.571, 82.783)" fill="#fff"/>
      <rect id="Rectangle_3" data-name="Rectangle 3" width="1.58" height="234.918" transform="matrix(0.492, -0.871, 0.871, 0.492, 285.574, 107.539)" fill="#fff"/>
      <rect id="Rectangle_4" data-name="Rectangle 4" width="1.58" height="234.918" transform="matrix(0.492, -0.871, 0.871, 0.492, 271.578, 132.295)" fill="#fff"/>
      <rect id="Rectangle_5" data-name="Rectangle 5" width="1.58" height="234.918" transform="matrix(0.492, -0.871, 0.871, 0.492, 257.582, 157.051)" fill="#fff"/>
      <rect id="Rectangle_6" data-name="Rectangle 6" width="1.58" height="234.918" transform="matrix(0.492, -0.871, 0.871, 0.492, 243.586, 181.807)" fill="#fff"/>
      <rect id="Rectangle_7" data-name="Rectangle 7" width="1.58" height="234.918" transform="matrix(0.492, -0.871, 0.871, 0.492, 229.59, 206.563)" fill="#fff"/>
      <rect id="Rectangle_8" data-name="Rectangle 8" width="1.58" height="234.918" transform="matrix(0.492, -0.871, 0.871, 0.492, 215.594, 231.318)" fill="#fff"/>
      <rect id="Rectangle_9" data-name="Rectangle 9" width="1.58" height="234.918" transform="matrix(0.492, -0.871, 0.871, 0.492, 201.598, 256.075)" fill="#fff"/>
      <rect id="Rectangle_10" data-name="Rectangle 10" width="1.58" height="234.918" transform="matrix(0.492, -0.871, 0.871, 0.492, 187.602, 280.831)" fill="#fff"/>
      <rect id="Rectangle_11" data-name="Rectangle 11" width="1.58" height="234.918" transform="matrix(0.492, -0.871, 0.871, 0.492, 173.606, 305.587)" fill="#fff"/>
      <path id="Path_2" data-name="Path 2" d="M551.645,614.818a6.786,6.786,0,0,1-3.347-.886l-193.5-109.4a6.828,6.828,0,0,1-2.58-9.293l152.4-269.566a6.818,6.818,0,0,1,9.292-2.58l193.5,109.4a6.828,6.828,0,0,1,2.581,9.292l-152.4,269.566a6.776,6.776,0,0,1-4.112,3.216A6.853,6.853,0,0,1,551.645,614.818Z" transform="translate(-202.882 -220.586)" fill="#f2f2f2"/>
      <rect id="Rectangle_12" data-name="Rectangle 12" width="1.58" height="234.918" transform="matrix(0.492, -0.871, 0.871, 0.492, 295.567, 17.027)" fill="#fff"/>
      <rect id="Rectangle_13" data-name="Rectangle 13" width="1.58" height="234.918" transform="matrix(0.492, -0.871, 0.871, 0.492, 281.571, 41.783)" fill="#fff"/>
      <rect id="Rectangle_14" data-name="Rectangle 14" width="1.58" height="234.918" transform="matrix(0.492, -0.871, 0.871, 0.492, 267.574, 66.54)" fill="#fff"/>
      <rect id="Rectangle_15" data-name="Rectangle 15" width="1.58" height="234.918" transform="matrix(0.492, -0.871, 0.871, 0.492, 253.578, 91.295)" fill="#fff"/>
      <rect id="Rectangle_16" data-name="Rectangle 16" width="1.58" height="234.918" transform="matrix(0.492, -0.871, 0.871, 0.492, 239.582, 116.051)" fill="#fff"/>
      <rect id="Rectangle_17" data-name="Rectangle 17" width="1.58" height="234.918" transform="matrix(0.492, -0.871, 0.871, 0.492, 225.586, 140.807)" fill="#fff"/>
      <rect id="Rectangle_18" data-name="Rectangle 18" width="1.58" height="234.918" transform="matrix(0.492, -0.871, 0.871, 0.492, 211.59, 165.563)" fill="#fff"/>
      <rect id="Rectangle_19" data-name="Rectangle 19" width="1.58" height="234.918" transform="matrix(0.492, -0.871, 0.871, 0.492, 197.594, 190.319)" fill="#fff"/>
      <rect id="Rectangle_20" data-name="Rectangle 20" width="1.58" height="234.918" transform="matrix(0.492, -0.871, 0.871, 0.492, 183.598, 215.075)" fill="#fff"/>
      <rect id="Rectangle_21" data-name="Rectangle 21" width="1.58" height="234.918" transform="matrix(0.492, -0.871, 0.871, 0.492, 169.602, 239.831)" fill="#fff"/>
      <rect id="Rectangle_22" data-name="Rectangle 22" width="1.58" height="234.918" transform="matrix(0.492, -0.871, 0.871, 0.492, 155.606, 264.587)" fill="#fff"/>
      <path id="Path_3" data-name="Path 3" d="M532.363,220.586H223.126v430H532.363a4.188,4.188,0,0,0,4.188-4.188V224.774a4.188,4.188,0,0,0-4.188-4.188ZM240.577,638.719a7.679,7.679,0,1,1,7.679-7.679,7.679,7.679,0,0,1-7.679,7.679Zm0-39.091a7.679,7.679,0,1,1,7.679-7.679,7.679,7.679,0,0,1-7.679,7.679Zm0-39.091a7.679,7.679,0,1,1,7.679-7.679,7.679,7.679,0,0,1-7.679,7.679Zm0-39.091a7.679,7.679,0,1,1,7.679-7.679,7.679,7.679,0,0,1-7.679,7.679Zm0-39.091a7.679,7.679,0,1,1,7.679-7.679,7.679,7.679,0,0,1-7.679,7.679Zm0-39.091a7.679,7.679,0,1,1,7.679-7.679,7.679,7.679,0,0,1-7.679,7.679Zm0-39.091a7.679,7.679,0,1,1,7.679-7.679,7.679,7.679,0,0,1-7.679,7.679Zm0-39.091a7.679,7.679,0,1,1,7.679-7.679,7.679,7.679,0,0,1-7.679,7.679Zm0-39.091a7.679,7.679,0,1,1,7.679-7.679,7.679,7.679,0,0,1-7.679,7.679Zm0-39.091a7.679,7.679,0,1,1,7.679-7.679,7.679,7.679,0,0,1-7.679,7.679Zm0-39.091a7.679,7.679,0,1,1,7.679-7.679,7.679,7.679,0,0,1-7.679,7.679Z" transform="translate(-202.882 -220.586)" fill="#3f3d56"/>
      <path id="Path_4" data-name="Path 4" d="M223.126,244.32c-2.072,0-20.243-.1-20.243-3.49s18.171-3.49,20.243-3.49v1.4c-10.7,0-17.643,1.2-18.76,2.094,1.118.9,8.057,2.094,18.76,2.094,10.679,0,17.612-1.193,18.753-2.088-.543-.383-2.761-1.187-8.711-1.7l.12-1.391c10.081.871,10.081,2.48,10.081,3.086C243.369,244.222,225.2,244.32,223.126,244.32Z" transform="translate(-202.882 -220.586)" fill="#2f2e41"/>
      <path id="Path_5" data-name="Path 5" d="M223.126,282.712c-2.072,0-20.243-.1-20.243-3.49s18.171-3.49,20.243-3.49v1.4c-10.7,0-17.643,1.2-18.76,2.094,1.118.9,8.057,2.094,18.76,2.094,10.679,0,17.612-1.193,18.753-2.088-.543-.383-2.761-1.187-8.711-1.7l.12-1.391c10.081.871,10.081,2.48,10.081,3.086C243.369,282.615,225.2,282.712,223.126,282.712Z" transform="translate(-202.882 -220.586)" fill="#2f2e41"/>
      <path id="Path_6" data-name="Path 6" d="M223.126,321.8c-2.072,0-20.243-.1-20.243-3.49s18.171-3.49,20.243-3.49v1.4c-10.7,0-17.643,1.2-18.76,2.094,1.118.9,8.057,2.094,18.76,2.094,10.679,0,17.612-1.193,18.753-2.088-.543-.383-2.761-1.187-8.711-1.7l.12-1.391c10.081.871,10.081,2.48,10.081,3.086C243.369,321.7,225.2,321.8,223.126,321.8Z" transform="translate(-202.882 -220.586)" fill="#2f2e41"/>
      <path id="Path_7" data-name="Path 7" d="M223.126,360.894c-2.072,0-20.243-.1-20.243-3.49s18.171-3.49,20.243-3.49v1.4c-10.7,0-17.643,1.2-18.76,2.094,1.118.9,8.057,2.094,18.76,2.094,10.679,0,17.612-1.193,18.753-2.088-.543-.383-2.761-1.187-8.711-1.7l.12-1.391c10.081.871,10.081,2.48,10.081,3.086C243.369,360.8,225.2,360.894,223.126,360.894Z" transform="translate(-202.882 -220.586)" fill="#2f2e41"/>
      <path id="Path_8" data-name="Path 8" d="M223.126,399.985c-2.072,0-20.243-.1-20.243-3.49S221.054,393,223.126,393v1.4c-10.7,0-17.643,1.2-18.76,2.094,1.118.9,8.057,2.094,18.76,2.094,10.679,0,17.612-1.193,18.753-2.088-.543-.383-2.761-1.187-8.711-1.7l.12-1.391c10.081.871,10.081,2.48,10.081,3.086C243.369,399.887,225.2,399.985,223.126,399.985Z" transform="translate(-202.882 -220.586)" fill="#2f2e41"/>
      <path id="Path_9" data-name="Path 9" d="M223.126,439.076c-2.072,0-20.243-.1-20.243-3.49s18.171-3.49,20.243-3.49v1.4c-10.7,0-17.643,1.2-18.76,2.094,1.118.9,8.057,2.094,18.76,2.094,10.679,0,17.612-1.193,18.753-2.088-.543-.383-2.761-1.187-8.711-1.7l.12-1.391c10.081.871,10.081,2.48,10.081,3.086C243.369,438.978,225.2,439.076,223.126,439.076Z" transform="translate(-202.882 -220.586)" fill="#2f2e41"/>
      <path id="Path_10" data-name="Path 10" d="M223.126,478.167c-2.072,0-20.243-.1-20.243-3.49s18.171-3.49,20.243-3.49v1.4c-10.7,0-17.643,1.2-18.76,2.094,1.118.9,8.057,2.094,18.76,2.094,10.679,0,17.612-1.193,18.753-2.088-.543-.383-2.761-1.187-8.711-1.7l.12-1.391c10.081.871,10.081,2.48,10.081,3.086C243.369,478.069,225.2,478.167,223.126,478.167Z" transform="translate(-202.882 -220.586)" fill="#2f2e41"/>
      <path id="Path_11" data-name="Path 11" d="M223.126,517.258c-2.072,0-20.243-.1-20.243-3.49s18.171-3.49,20.243-3.49v1.4c-10.7,0-17.643,1.2-18.76,2.094,1.118.9,8.057,2.094,18.76,2.094,10.679,0,17.612-1.193,18.753-2.088-.543-.383-2.761-1.187-8.711-1.7l.12-1.391c10.081.871,10.081,2.48,10.081,3.086C243.369,517.16,225.2,517.258,223.126,517.258Z" transform="translate(-202.882 -220.586)" fill="#2f2e41"/>
      <path id="Path_12" data-name="Path 12" d="M223.126,556.349c-2.072,0-20.243-.1-20.243-3.49s18.171-3.49,20.243-3.49v1.4c-10.7,0-17.643,1.2-18.76,2.094,1.118.9,8.057,2.094,18.76,2.094,10.679,0,17.612-1.193,18.753-2.088-.543-.383-2.761-1.187-8.711-1.7l.12-1.391c10.081.871,10.081,2.48,10.081,3.086C243.369,556.251,225.2,556.349,223.126,556.349Z" transform="translate(-202.882 -220.586)" fill="#2f2e41"/>
      <path id="Path_13" data-name="Path 13" d="M223.126,595.44c-2.072,0-20.243-.1-20.243-3.49s18.171-3.49,20.243-3.49v1.4c-10.7,0-17.643,1.2-18.76,2.094,1.118.9,8.057,2.094,18.76,2.094,10.679,0,17.612-1.193,18.753-2.088-.543-.383-2.761-1.187-8.711-1.7l.12-1.391c10.081.871,10.081,2.48,10.081,3.086C243.369,595.342,225.2,595.44,223.126,595.44Z" transform="translate(-202.882 -220.586)" fill="#2f2e41"/>
      <path id="Path_14" data-name="Path 14" d="M223.126,634.531c-2.072,0-20.243-.1-20.243-3.49s18.171-3.49,20.243-3.49v1.4c-10.7,0-17.643,1.2-18.76,2.094,1.118.9,8.057,2.094,18.76,2.094,10.679,0,17.612-1.193,18.753-2.088-.543-.383-2.761-1.187-8.711-1.7l.12-1.391c10.081.871,10.081,2.48,10.081,3.086C243.369,634.433,225.2,634.531,223.126,634.531Z" transform="translate(-202.882 -220.586)" fill="#2f2e41"/>
      <path id="Path_15" data-name="Path 15" d="M469.189,384.977H315.618a4.542,4.542,0,0,1-4.537-4.537V320.407a4.543,4.543,0,0,1,4.537-4.537H469.189a4.543,4.543,0,0,1,4.537,4.537V380.44A4.542,4.542,0,0,1,469.189,384.977Z" transform="translate(-202.882 -220.586)" fill="#fff"/>
      <path id="Path_16" data-name="Path 16" d="M411.949,336.462H372.858a3.49,3.49,0,1,1,0-6.981h39.091a3.49,3.49,0,1,1,0,6.981Z" transform="translate(-202.882 -220.586)" fill="#6c63ff"/>
      <path id="Path_17" data-name="Path 17" d="M433.589,353.914H351.218a3.49,3.49,0,1,1,0-6.981h82.371a3.49,3.49,0,0,1,0,6.981Z" transform="translate(-202.882 -220.586)" fill="#6c63ff"/>
      <path id="Path_18" data-name="Path 18" d="M433.589,371.365H351.218a3.49,3.49,0,1,1,0-6.981h82.371a3.49,3.49,0,1,1,0,6.981Z" transform="translate(-202.882 -220.586)" fill="#6c63ff"/>
    </g>
  </g>
</svg>
