<svg xmlns="http://www.w3.org/2000/svg" xmlns:xlink="http://www.w3.org/1999/xlink" width="850" height="586" viewBox="0 0 850 586">
  <defs>
    <clipPath id="clip-Web_1920_3">
      <rect width="850" height="586"/>
    </clipPath>
  </defs>
  <g id="Web_1920_3" data-name="Web 1920 – 3" clip-path="url(#clip-Web_1920_3)">
    <g id="Group_1" data-name="Group 1" transform="translate(-10.036 -108.093)">
      <path id="Path_1" data-name="Path 1" d="M467.05,725.806l.523-11.756a37.966,37.966,0,0,1,17.709-4.483c-8.505,6.954-7.443,20.358-13.209,29.71a22.837,22.837,0,0,1-16.747,10.553l-7.118,4.358a38.268,38.268,0,0,1,8.066-31.01,36.965,36.965,0,0,1,6.793-6.312C464.773,721.361,467.05,725.806,467.05,725.806Z" transform="translate(-43.438 -160.551)" fill="#f2f2f2"/>
      <path id="Path_2" data-name="Path 2" d="M370.7,276.711c23.646-18.011,34.941-48.276,27.87-77.147q-.263-1.076-.556-2.147c-4.687-17.138-16.285-33.425-33.187-38.9-14.192-4.6-29.683-1.062-44.489-2.891-29.065-3.589-51.6-27.106-67.452-51.728s-28.04-52.183-49.108-72.525C169.053-2.157,112.405-9.376,69.349,12.449S-1.134,82.7.036,130.953s29.818,94.4,71.423,118.875c15.284,8.993,32.961,15.363,50.553,13.134,15.265-1.934,29.135-10.136,44.327-12.571,23.887-3.828,47.621,6.972,68.282,19.557s40.616,27.5,64.094,33.337C321.512,308.949,349.755,292.665,370.7,276.711Z" transform="translate(667.024 249.988) rotate(120)" fill="#f2f2f2"/>
      <path id="Path_3" data-name="Path 3" d="M593.769,263.3H402.6a15.056,15.056,0,0,0-15.038,15.038v95.146A15.056,15.056,0,0,0,402.6,388.521H593.769a15.051,15.051,0,0,0,15.038-15.038V278.337A15.051,15.051,0,0,0,593.769,263.3Z" transform="translate(-27.786 -44.227)" fill="#fff"/>
      <path id="Path_4" data-name="Path 4" d="M593.51,389H402.341a15.8,15.8,0,0,1-15.778-15.778V278.074A15.8,15.8,0,0,1,402.342,262.3H593.51a15.8,15.8,0,0,1,15.778,15.778v95.149A15.8,15.8,0,0,1,593.51,389ZM402.341,263.776a14.316,14.316,0,0,0-14.3,14.3v95.149a14.316,14.316,0,0,0,14.3,14.3H593.51a14.316,14.316,0,0,0,14.3-14.3V278.074a14.315,14.315,0,0,0-14.3-14.3Z" transform="translate(-27.526 -43.966)" fill="#ccc"/>
      <path id="Path_6" data-name="Path 6" d="M507.744,368.983a6.428,6.428,0,0,1-3.1-.808,6.345,6.345,0,0,1-3.333-5.634v-53.1a6.428,6.428,0,0,1,9.874-5.426l50.372,26.551a6.428,6.428,0,0,1,0,10.852l-50.373,26.551a6.4,6.4,0,0,1-3.44,1.016Z" transform="translate(-57.436 -54.578)" fill="#f2f2f2"/>
      <path id="Path_15" data-name="Path 15" d="M446.433,399.651l-40.889.275s-23.287-7.507-33.848-5.939l-4.038,15.862,29.008,9.611,50.485-7.325a7.226,7.226,0,1,0-.718-12.485Z" transform="translate(-22.598 -78.236)" fill="#a0616a"/>
      <path id="Path_16" data-name="Path 16" d="M387.229,414.1l-48.51-13.952L334.3,383.695a13.289,13.289,0,0,1,1.027-13.989h0c4.141-5.609,7.379-.038,13.256,3.713,10.3.728,36.02,9.528,46.46,19.717l-.823,6.263Z" transform="translate(-13.508 -71.342)" fill="#3f3d56"/>
      <path id="Path_17" data-name="Path 17" d="M461.244,389.169a6.428,6.428,0,0,1-3.1-.808,6.345,6.345,0,0,1-3.333-5.634v-53.1a6.428,6.428,0,0,1,9.874-5.426l50.372,26.551a6.428,6.428,0,0,1,0,10.852l-50.372,26.551A6.4,6.4,0,0,1,461.244,389.169Z" transform="translate(-45.315 -59.84)" fill="#6c63ff"/>
      <path id="Path_18" data-name="Path 18" d="M147.977,617.055H158.3l4.909-39.806H147.976Z" transform="translate(234.111 -31.96)" fill="#a0616a"/>
      <path id="Path_19" data-name="Path 19" d="M414.181,752.181h2.9l11.341-4.612,6.078,4.611h0a12.953,12.953,0,0,1,12.952,12.951v.422H414.182Z" transform="translate(-34.725 -170.456)" fill="#2f2e41"/>
      <path id="Path_20" data-name="Path 20" d="M48.578,604.656l9.776,3.309,17.417-36.128-14.427-4.885Z" transform="translate(260.02 -29.276)" fill="#a0616a"/>
      <path id="Path_21" data-name="Path 21" d="M314.919,739.765l2.751.932,12.221-.731,4.278,6.317h0a12.953,12.953,0,0,1,8.114,16.422l-.135.4L310.63,752.432Z" transform="translate(-7.734 -168.422)" fill="#2f2e41"/>
      <path id="Path_22" data-name="Path 22" d="M330.687,524.97a109.548,109.548,0,0,0,1.808,28.319c3.013,13.858,9.5,59.86,9.5,59.86-13.132,21.584-20.743,42.824-22.18,64.323l18.484,1.479,26.466-62.8,2.681-62.866,19.281,42.779-.991,3.3a3.724,3.724,0,0,0,1.592,4.227h0s-1.805,11.749-.6,11.749,4.218,1.808,4.218,1.808c-7.512,23.384-8.52,45.778-1.631,66.969l16.266-.739,10.672-92.138-7.833-50.01-.6-9.641-2.711.112-1.381-4.028-2.536-6.929Z" transform="translate(-10.127 -111.334)" fill="#2f2e41"/>
      <path id="Path_23" data-name="Path 23" d="M329.374,481.7l-.107-.151c-5.735-8.029,2.891-27.324,4.191-30.121l-5.48-1.778L323.187,409.1l-3.5-14.007a30.751,30.751,0,0,1,8.728-29.8l8.1-7.637,9.844-14.566H362.23l5.443,10.281A23.138,23.138,0,0,1,385.575,377l-1.234,26.965,4.829,33.573,0,6.076,8.384,13.746,1.826,8.522c.756,1,5.745,7.649,5.745,9.468,0,.273-.2.537-.634.83-3.4,2.3-22.191,7-30.508,3.668-8.859-3.542-44.075,1.772-44.43,1.826Z" transform="translate(-9.855 -65.026)" fill="#3f3d56"/>
      <path id="Path_24" data-name="Path 24" d="M478.754,771.224a.877.877,0,0,1-.875.88H270.644a.88.88,0,0,1,0-1.76h207.23a.877.877,0,0,1,.88.875Z" transform="translate(2.918 -176.393)" fill="#ccc"/>
      <circle id="Ellipse_1" data-name="Ellipse 1" cx="21.024" cy="21.024" r="21.024" transform="translate(325.464 231.317)" fill="#a0616a"/>
      <path id="Path_25" data-name="Path 25" d="M452.936,328.431l-32.437,24.9s-23.1,8.068-30.573,15.693l6.354,15.085,28.93-9.843,35.833-36.309a7.226,7.226,0,1,0-8.107-9.521Z" transform="translate(-28.403 -59.949)" fill="#a0616a"/>
      <path id="Path_26" data-name="Path 26" d="M414.493,386.409l-45.061,13.2-15.493-5.5a13.289,13.289,0,0,1-7.623-11.775h0c-.083-6.972,5.861-4.483,12.811-5.039,8.655-5.637,34.471-14.142,48.944-12.318l3.124,5.49Z" transform="translate(-17.035 -70.664)" fill="#3f3d56"/>
      <path id="Path_27" data-name="Path 27" d="M375.2,273.186c-1.507-.045-.99-2.885-2.2-3.791l-.018.082a2.959,2.959,0,0,1-5.655.241,4.5,4.5,0,0,0-2.855-3c-.076,2.632-2.067,4.917-4.442,6.054a18.391,18.391,0,0,1-7.717,1.365,34.061,34.061,0,0,0-7.858.6,8.956,8.956,0,0,0-6.128,4.556c-1.091,2.4-.313,5.7,2.073,6.813a4.7,4.7,0,0,0-4.055,3.269,12.981,12.981,0,0,0-.4,5.485c.519,6.8,1.786,14.118,6.736,18.806,3.773,3.573,9.173,5.013,14.37,4.992s4.283-.5,9.307-1.825c0,0,4.777-13.694,3.574-15.041a6.475,6.475,0,0,1-1.984-4.864c.218-1.793,2.144-3.4,3.816-2.716-.281-.719-.493-.856-.626-.819a6.353,6.353,0,0,0,.221-.625,7.11,7.11,0,0,1,4.44-4.708,5.513,5.513,0,0,1,6.026,1.824C387.323,284.726,383.909,273.445,375.2,273.186Z" transform="translate(-14.298 -45.12)" fill="#2f2e41"/>
      <path id="Path_32" data-name="Path 32" d="M625.044,263.3V283.38c0,1-1.745,1.834-4.1,2.063a.162.162,0,0,0-.059.007c-.392.03-.806.052-1.227.052a10.774,10.774,0,0,1-3.808-.621c-.111-.044-.222-.1-.333-.141s-.214-.111-.318-.17c-.584-.347-.924-.754-.924-1.19V263.3Z" transform="translate(-86.882 -44.227)" fill="#ccc"/>
    </g>
  </g>
</svg>
