<svg xmlns="http://www.w3.org/2000/svg" xmlns:xlink="http://www.w3.org/1999/xlink" width="850" height="586" viewBox="0 0 850 586">
  <defs>
    <clipPath id="clip-Web_1920_2">
      <rect width="850" height="586"/>
    </clipPath>
  </defs>
  <g id="Web_1920_2" data-name="Web 1920 – 2" clip-path="url(#clip-Web_1920_2)">
    <g id="Group_1" data-name="Group 1" transform="translate(-241.96 -226.725)">
      <g id="undraw_video_files_fu10" transform="translate(307 148)">
        <path id="Path_10" data-name="Path 10" d="M722.376,511.808a16.87,16.87,0,0,1-6.853-1.46,8.312,8.312,0,0,1-1.429-.812l-43.6-30.692h0a16.87,16.87,0,0,1-7.159-13.791V423.2a16.868,16.868,0,0,1,7.156-13.789l43.6-30.694a8.316,8.316,0,0,1,1.429-.812,16.869,16.869,0,0,1,23.722,15.414V494.933A16.869,16.869,0,0,1,722.376,511.8Z" transform="translate(-95.54 -146.275)" fill="#3f3d56"/>
        <path id="Path_11" data-name="Path 11" d="M624.795,520.037H503.187c-24.81-.02-44.917-16.058-44.942-35.847V404.06c.026-19.789,20.132-35.827,44.942-35.847H625.112c24.633.023,44.6,15.946,44.625,35.594v80.382C669.711,503.979,649.6,520.017,624.795,520.037Z" transform="translate(-95.54 -146.275)" fill="#3f3d56"/>
        <path id="Path_13" data-name="Path 13" d="M797.46,738.3a15.34,15.34,0,0,1-15.26,15.42H110.8a15.34,15.34,0,0,1-15.26-15.42V279.7a15.34,15.34,0,0,1,15.26-15.42H782.2a15.34,15.34,0,0,1,15.26,15.42h0Z" transform="translate(-95.54 -146.275)" fill="#e6e6e6"/>
        <path id="Path_14" data-name="Path 14" d="M789.54,730.795a14.91,14.91,0,0,1-14.91,14.91H118.83a14.91,14.91,0,0,1-14.91-14.91V287.415a14.91,14.91,0,0,1,14.91-14.91H774.66a14.91,14.91,0,0,1,14.88,14.91Z" transform="translate(-95.54 -146.275)" fill="#fff"/>
        <path id="c6fe725a-3b03-4a96-90af-cfbd2676500a" d="M43.43,145.48H659.65a8.85,8.85,0,0,1,8.85,8.85V569.61a8.85,8.85,0,0,1-8.85,8.85H43.43a8.85,8.85,0,0,1-8.85-8.85V154.33a8.85,8.85,0,0,1,8.85-8.85Z" fill="#e6e6e6"/>
        <path id="Path_15" data-name="Path 15" d="M51.23,155.44H651.18a8.85,8.85,0,0,1,8.85,8.85V557.41a8.85,8.85,0,0,1-8.85,8.85H51.23a8.85,8.85,0,0,1-8.85-8.85V164.29a8.85,8.85,0,0,1,8.85-8.85Z" fill="#fff"/>
        <path id="Path_16" data-name="Path 16" d="M570.376,574.808a16.87,16.87,0,0,1-6.853-1.46,8.311,8.311,0,0,1-1.429-.812l-43.6-30.692h0a16.869,16.869,0,0,1-7.159-13.791V486.2a16.868,16.868,0,0,1,7.156-13.789l43.6-30.694a8.316,8.316,0,0,1,1.429-.812,16.869,16.869,0,0,1,23.722,15.414V557.933A16.869,16.869,0,0,1,570.376,574.8Z" transform="translate(-95.54 -146.275)" fill="#6c63ff"/>
        <path id="Path_17" data-name="Path 17" d="M472.8,583.037H351.187c-24.81-.02-44.917-16.058-44.942-35.847V467.06c.026-19.789,20.132-35.827,44.942-35.847H473.112c24.633.023,44.6,15.946,44.625,35.594v80.382C517.711,566.979,497.605,583.017,472.8,583.037Z" transform="translate(-95.54 -146.275)" fill="#6c63ff"/>
        <circle id="Ellipse_3" data-name="Ellipse 3" cx="36.167" cy="36.167" r="36.167" transform="translate(557.712 468.647)" fill="#3f3d56"/>
        <path id="Path_18" data-name="Path 18" d="M708.2,650.44,679.375,633.8a.749.749,0,0,0-1.123.648v33.289a.749.749,0,0,0,1.123.648L708.2,651.737a.749.749,0,0,0,0-1.3L679.375,633.8a.749.749,0,0,0-1.123.648v33.289a.749.749,0,0,0,1.123.648L708.2,651.737a.749.749,0,0,0,0-1.3Z" transform="translate(-95.54 -146.275)" fill="#fff"/>
      </g>
    </g>
  </g>
</svg>
