<svg xmlns="http://www.w3.org/2000/svg" xmlns:xlink="http://www.w3.org/1999/xlink" width="711" height="592" viewBox="0 0 711 592">
  <defs>
    <clipPath id="clip-Web_1920_1">
      <rect width="711" height="592"/>
    </clipPath>
  </defs>
  <g id="Web_1920_1" data-name="Web 1920 – 1" clip-path="url(#clip-Web_1920_1)">
    <g id="Domain_names-amico" data-name="Domain names-amico" transform="translate(105.194 23.132)">
      <g id="freepik--Floor--inject-33">
        <path id="Path_1" data-name="Path 1" d="M413,256.89c-90.59-52.3-237-52.3-327,0S-3.53,394,87.05,446.28s237,52.3,327,0S503.53,309.19,413,256.89Z" fill="#f5f5f5"/>
      </g>
      <g id="freepik--Shadows--inject-33">
        <path id="Path_2" data-name="Path 2" d="M287,420.89c-17.07-9.86-44.67-9.86-61.63,0s-16.88,25.85.2,35.7,44.67,9.86,61.63,0S304.05,430.75,287,420.89Z" fill="#e6e6e6"/>
        <path id="Path_3" data-name="Path 3" d="M444.54,357.75c-9.32-5.38-24.38-5.38-33.64,0s-9.21,14.11.11,19.49,24.38,5.38,33.64,0S453.86,363.13,444.54,357.75Z" fill="#e6e6e6"/>
        <path id="Path_4" data-name="Path 4" d="M154.47,361c-22.26-12.85-58.24-12.85-80.36,0s-22,33.7.26,46.56,58.25,12.85,80.37,0S176.74,373.88,154.47,361Z" fill="#e6e6e6"/>
        <path id="Path_5" data-name="Path 5" d="M394.52,390.49l-5.25,3a3.81,3.81,0,0,1-3.81,0l-142.55-82.3a1,1,0,0,1,0-1.65l5.24-3a3.83,3.83,0,0,1,3.82,0l142.55,82.3a1,1,0,0,1,0,1.65Z" fill="#e6e6e6"/>
        <path id="Path_6" data-name="Path 6" d="M348.86,392.16l-5.24,3a3.83,3.83,0,0,1-3.82,0L206.55,318.53a1,1,0,0,1,0-1.65l5.24-3a3.83,3.83,0,0,1,3.82,0l133.25,76.66a1,1,0,0,1,0,1.62Z" fill="#e6e6e6"/>
      </g>
      <g id="freepik--Plant--inject-33">
        <path id="Path_7" data-name="Path 7" d="M444.76,335.57l-17.55.51-17.56-.51c-.75,11.85,1.56,23.93,4.75,29.84h0a8,8,0,0,0,3.47,3.54c5.18,3,13.55,3,18.7,0a7.8,7.8,0,0,0,3.47-3.63C443.23,359.38,445.52,347.36,444.76,335.57Z" fill="#e0e0e0"/>
        <path id="Path_8" data-name="Path 8" d="M439.58,328.38c6.88,4,6.92,10.41.08,14.38s-18,4-24.83,0-6.91-10.41-.08-14.38S432.7,324.41,439.58,328.38Z" fill="#ebebeb"/>
        <path id="Path_9" data-name="Path 9" d="M436.86,330c5.37,3.1,5.4,8.12.06,11.22s-14,3.09-19.36,0-5.4-8.12-.07-11.22S431.49,326.86,436.86,330Z" fill="#e0e0e0"/>
        <g id="Group_1" data-name="Group 1" opacity="0.15">
          <path id="Path_10" data-name="Path 10" d="M436.86,330c5.37,3.1,5.4,8.12.06,11.22s-14,3.09-19.36,0-5.4-8.12-.07-11.22S431.49,326.86,436.86,330Z"/>
        </g>
        <path id="Path_11" data-name="Path 11" d="M456.07,260.65c-39.56,13-39.92,39.43-31,58.27,2.25,3.82,9.06,5.87,15-17.57l-10.39,1.33,12.11-6.14,3.15-9.4-10.1.75,12.81-5.39a191.949,191.949,0,0,1,8.42-21.85Z" fill="#1d6192"/>
        <path id="Path_12" data-name="Path 12" d="M456.07,260.65c-39.56,13-39.92,39.43-31,58.27,2.25,3.82,9.06,5.87,15-17.57l-10.39,1.33,12.11-6.14,3.15-9.4-10.1.75,12.81-5.39a191.949,191.949,0,0,1,8.42-21.85Z" opacity="0.2"/>
        <path id="Path_13" data-name="Path 13" d="M444.88,267.27c-20.86,15.84-22.74,34-16.85,52.94C425.94,303.53,423.69,286.65,444.88,267.27Z" fill="#fff"/>
        <path id="Path_14" data-name="Path 14" d="M389.06,287.54c39,5.49,43.73,30.08,38.56,49.11-1.46,3.93-7.46,7-16.88-13.87l9.9-.49-12.29-3.7-4.5-8.24,9.53-1-12.83-2.89A178.333,178.333,0,0,0,389.06,287.54Z" fill="#1d6192"/>
        <path id="Path_15" data-name="Path 15" d="M389.06,287.54c39,5.49,43.73,30.08,38.56,49.11-1.46,3.93-7.46,7-16.88-13.87l9.9-.49-12.29-3.7-4.5-8.24,9.53-1-12.83-2.89A178.333,178.333,0,0,0,389.06,287.54Z" fill="#fff" opacity="0.2"/>
        <path id="Path_16" data-name="Path 16" d="M400.58,291.84c22.07,11.29,26.84,27.88,24.5,46.51C424.24,322.46,423.54,306.37,400.58,291.84Z" fill="#fff"/>
        <path id="Path_17" data-name="Path 17" d="M467.49,296.75c-35.77.59-42.78,22.22-40.25,40,.88,3.7,5.94,7.11,16.76-10.62l-8.87-1.55,11.5-2,5-6.92-8.48-2L455,312.54a164.546,164.546,0,0,1,12.49-15.79Z" fill="#1d6192"/>
        <path id="Path_18" data-name="Path 18" d="M456.62,299.35c-21.15,7.69-27.3,22.12-27.28,39.17C431.87,324.29,434.3,309.87,456.62,299.35Z" fill="#fff"/>
      </g>
      <g id="freepik--Device--inject-33">
        <path id="Path_19" data-name="Path 19" d="M241.76,64.24h0a8.38,8.38,0,0,1,.89-2.23c.88-1.39,2.47-2.2,6.21-2.12a4.57,4.57,0,0,1,1.53.29l140.46,79.9a10.25,10.25,0,0,1,5.11,8.78V377.38c0,4.08-2.4,5.61-5.05,5.79a9.5,9.5,0,0,1-3.4-.44h0a3.328,3.328,0,0,1-.4-.16l-140.47-80a10.1,10.1,0,0,1-5.1-8.78V65.34a2.52,2.52,0,0,1,.22-1.1Z" fill="#1d6192"/>
        <path id="Path_20" data-name="Path 20" d="M241.76,64.24h0a8.38,8.38,0,0,1,.89-2.23c.88-1.39,2.47-2.2,6.21-2.12a4.57,4.57,0,0,1,1.53.29l140.46,79.9a10.25,10.25,0,0,1,5.11,8.78V377.38c0,4.08-2.4,5.61-5.05,5.79a9.5,9.5,0,0,1-3.4-.44h0a3.328,3.328,0,0,1-.4-.16l-140.47-80a10.1,10.1,0,0,1-5.1-8.78V65.34a2.52,2.52,0,0,1,.22-1.1Z" opacity="0.2"/>
        <path id="Path_21" data-name="Path 21" d="M394.9,144.43a10,10,0,0,1,1.05,4.43V377.38c0,4.08-2.4,5.61-5.05,5.79a6.36,6.36,0,0,0,1-3.75V150.9a10,10,0,0,0-1.05-4.43c-.11-.23-.25-.45-.38-.67l3.9-2.25A9.6,9.6,0,0,1,394.9,144.43Z" opacity="0.2"/>
        <path id="Path_22" data-name="Path 22" d="M248.85,59.89a4.57,4.57,0,0,1,1.53.29l140.46,79.9a9.92,9.92,0,0,1,3.55,3.47l-3.9,2.25a10,10,0,0,0-3.68-3.68L246.35,62.23a4.83,4.83,0,0,0-1.53-.3,16.319,16.319,0,0,0-2.18.08C243.52,60.62,245.11,59.81,248.85,59.89Z" fill="#fff" opacity="0.2"/>
        <path id="Path_23" data-name="Path 23" d="M247.9,71.38l137.34,79.27V366.13L247.9,286.86Z" fill="#455a64"/>
        <path id="Path_24" data-name="Path 24" d="M309.52,326.06a11.55,11.55,0,0,1,5.18,7.47c.35,2.67-1.42,3.66-3.95,2.2a11.6,11.6,0,0,1-5.19-7.47C305.22,325.59,307,324.6,309.52,326.06Z" fill="#1d6192"/>
        <g id="Group_2" data-name="Group 2" opacity="0.4">
          <path id="Path_25" data-name="Path 25" d="M309.52,326.06a11.55,11.55,0,0,1,5.18,7.47c.35,2.67-1.42,3.66-3.95,2.2a11.6,11.6,0,0,1-5.19-7.47C305.22,325.59,307,324.6,309.52,326.06Z"/>
        </g>
      </g>
      <g id="freepik--Screen--inject-33">
        <path id="Path_26" data-name="Path 26" d="M211.14,101.32v-7a2.21,2.21,0,0,1,.24-1h0a7.94,7.94,0,0,1,.79-2c.77-1.22,2.18-1.93,5.47-1.87a4.42,4.42,0,0,1,1.34.26L342.7,160.08a9,9,0,0,1,4.5,7.74v8l-3.55,2Z" fill="#1d6192"/>
        <path id="Path_27" data-name="Path 27" d="M343.64,177.94l3.55-2V376.15c0,3.59-2.11,5-4.45,5.1a8.6,8.6,0,0,1-3-.38h0a2.13,2.13,0,0,1-.35-.14L215.64,310.24a8.89,8.89,0,0,1-4.5-7.73V101.32Z" fill="#1d6192"/>
        <path id="Path_28" data-name="Path 28" d="M346.27,164a9,9,0,0,1,.92,3.91V376.15c0,3.59-2.11,5-4.45,5.1a5.63,5.63,0,0,0,.9-3.3V169.68a8.81,8.81,0,0,0-.92-3.9c-.1-.2-.23-.39-.34-.59l3.44-2A6.41,6.41,0,0,1,346.27,164Z" opacity="0.4"/>
        <path id="Path_29" data-name="Path 29" d="M217.63,89.52a4.42,4.42,0,0,1,1.34.26l123.72,70.37a8.91,8.91,0,0,1,3.13,3.06l-3.44,2a8.83,8.83,0,0,0-3.24-3.24L215.43,91.58a4.42,4.42,0,0,0-1.35-.26,16.1,16.1,0,0,0-1.92.07C212.93,90.17,214.34,89.46,217.63,89.52Z" fill="#fff" opacity="0.2"/>
        <path id="Path_30" data-name="Path 30" d="M211.14,101.32v-7a2.21,2.21,0,0,1,.24-1h0a7.94,7.94,0,0,1,.79-2c.77-1.22,2.18-1.93,5.47-1.87a4.42,4.42,0,0,1,1.34.26L342.7,160.08a9,9,0,0,1,4.5,7.74v8l-3.55,2Z" fill="#fff" opacity="0.2"/>
        <path id="Path_31" data-name="Path 31" d="M343.64,177.94l3.55-2V376.15c0,3.59-2.11,5-4.45,5.1a8.6,8.6,0,0,1-3-.38h0a2.13,2.13,0,0,1-.35-.14L215.64,310.24a8.89,8.89,0,0,1-4.5-7.73V101.32Z" fill="#fff" opacity="0.7"/>
        <path id="Path_73" data-name="Path 73" d="M272.49,165.54c-14.15-8.17-26.61-6.95-33.8,1.62.44.38.93.55,1.37.93a8.25,8.25,0,0,1,1.52,2.37,4.81,4.81,0,0,0,1.69,2.07c0-.5.38-.62.79-.38a1.56,1.56,0,0,1,.27.2c.1-.5-.38-1.21-.56-1.84-.23-.8.09-1.4.59-1.54a1.26,1.26,0,0,1,1.08.23,2.07,2.07,0,0,1,.8,1.3,1,1,0,0,0,.29.64,2,2,0,0,1,.5.79,1.6,1.6,0,0,1,.5-1,.63.63,0,0,1,.6.05,1.15,1.15,0,0,1,.44.48c.29.56,0,1,0,1.5a2.3,2.3,0,0,0,.23,1.07,1.25,1.25,0,0,0,.35.45c.24.14.43-.07.49-.33.12-.63-.08-1.47,0-2.11a2.73,2.73,0,0,1,.33-.84c.1-.19.24-.39.55-.27a1.56,1.56,0,0,1,.53.76,5.76,5.76,0,0,0,.39,1,2.24,2.24,0,0,0,.74.68,3.939,3.939,0,0,0,1.12.39,3.671,3.671,0,0,1,1.16.41,4.14,4.14,0,0,1,1.52,1.76,3.18,3.18,0,0,1,.27,2.1c-.19.58-.67.89-.7,1.59a2.51,2.51,0,0,1-.05.74.41.41,0,0,1-.33.27,2,2,0,0,1-1.44-.36,8.829,8.829,0,0,1-1-.67,3.08,3.08,0,0,1-.62-.58,1.35,1.35,0,0,1-.31-.8.74.74,0,0,1,.14-.34,1.94,1.94,0,0,0,.26-1.17,2.22,2.22,0,0,0-.85-1.47.6.6,0,0,0-.92.32,3.58,3.58,0,0,0,0,1.59,1.56,1.56,0,0,1,0,.52c-.06.36-.45.36-.87.14a4.351,4.351,0,0,1-.47-.32l-.5-.33a1.25,1.25,0,0,0-1.67.23,3.14,3.14,0,0,0-.42,2,4.18,4.18,0,0,0,.84,2.43c.43.52,1,.8,1.37,1.39.55.87.39,1.93,1,2.77a1.69,1.69,0,0,0,.51.49.67.67,0,0,0,.55.09c.3-.11.39-.58.21-1.07s-.61-1.12-.47-1.45a.48.48,0,0,1,.23-.19,1.88,1.88,0,0,0,.83-2.07c-.1-.61-.39-1.35-.19-1.76s.55-.25,1,0a4.84,4.84,0,0,1,1.48,1.41,3.07,3.07,0,0,0,.94,1.09.69.69,0,0,0,.38,0,2.07,2.07,0,0,1,1.4.32,4.631,4.631,0,0,1,.65.47,8.33,8.33,0,0,1,1.79,2.3c.39.72.71,1.46,1.08,2.18a14.27,14.27,0,0,0,2.14,3.07,9.572,9.572,0,0,1,.83.95,2.47,2.47,0,0,1,.5,1.13.91.91,0,0,1-.53.92,1.2,1.2,0,0,1-.82.19,1.24,1.24,0,0,1-.4-.15,1.81,1.81,0,0,1-.57-.54,6.939,6.939,0,0,1-.58-1.88,4.27,4.27,0,0,0-1.17-1.79,5.006,5.006,0,0,0-.49-.35,2.31,2.31,0,0,0-1-.32.59.59,0,0,0-.56.21.76.76,0,0,0,0,.77,3,3,0,0,0,1,1,3.35,3.35,0,0,1,1.11,2.41.72.72,0,0,1-.2.52c-.17.17-.46.13-.74.05a4.19,4.19,0,0,1-1-.42,6.049,6.049,0,0,1-1.05-.76,1.283,1.283,0,0,1-.4,1.06,3.34,3.34,0,0,1-.92.17c-.82.17-1.29,1-1.69,1.84a4.641,4.641,0,0,0-.41,1.1c-.34,1.52.31,3.65,1.06,5.61a3.84,3.84,0,0,1,.32,1.25.379.379,0,0,1-.63.34,3.1,3.1,0,0,1-.63-1,12.894,12.894,0,0,0-.87-1.22,20.094,20.094,0,0,0-1.15-1.78,1.94,1.94,0,0,0-.52-.44c-.34-.2-.66-.22-.75.1s0,.88-.42.85a3,3,0,0,1-.5-.46,1.76,1.76,0,0,0-.29-.21.8.8,0,0,0-1.15.18,2.73,2.73,0,0,0,0,1.94,13.511,13.511,0,0,0,.93,2.21,4.109,4.109,0,0,0,.64,1.07,3,3,0,0,0,.79.57c.48.25,1.07.41,1.15-.08s-.3-1.15-.06-1.37a.31.31,0,0,1,.27,0,.66.66,0,0,1,.28.11,2.36,2.36,0,0,1,1,1.64,5.6,5.6,0,0,1-.16,1.11,5.35,5.35,0,0,0,1.93,2.4,6.51,6.51,0,0,1,2.07,1.9,6.579,6.579,0,0,0,.63,1,1.44,1.44,0,0,0,.34.28,2.49,2.49,0,0,0,.57.22,2.8,2.8,0,0,1,.58.23,1.609,1.609,0,0,1,.34.27,4.63,4.63,0,0,1,.6,1,2,2,0,0,0,.7.89c.24.11.43,0,.65,0a.77.77,0,0,1,.31.11,3.66,3.66,0,0,1,1.16,1.42,8.069,8.069,0,0,0,1.23,2,2.18,2.18,0,0,0,.47.36,4.561,4.561,0,0,0,1.52.42,6,6,0,0,1,1.7.66,2.29,2.29,0,0,1,.92.91,1.5,1.5,0,0,1-.16,1.67,1.59,1.59,0,0,0-.44,1.51c.49,1.81,1,3.93-.07,4.41-.17.07-.37.13-.43.35a1.461,1.461,0,0,0,.06.67,10.22,10.22,0,0,1,.41,2.93c-.06.6-.26,1.08-.36,1.66a7.41,7.41,0,0,0,.49,3.77,12.431,12.431,0,0,1,.51,1.44c.08.35.08.67.14,1a5.59,5.59,0,0,0,1.66,3,12.006,12.006,0,0,1,1.08,1c.33.38.59,1,.43,1.3s-.58.11-1-.14l-2-1.21a9,9,0,0,1-1.93-1.39,4.6,4.6,0,0,1-1.3-2.3,4.781,4.781,0,0,0-.13-.89c-.23-.7-.89-1.23-1.18-1.92a8.23,8.23,0,0,1-.3-1.46,10.291,10.291,0,0,0-1.38-2.5,11.089,11.089,0,0,1-1-2.15c-.42-1.26-.63-2.69-1.5-3.71a7,7,0,0,0-1.87-1.37,3.57,3.57,0,0,1-1.58-1.87c-.1-.33-.09-.64-.2-1-.32-.93-1.28-1.42-1.87-2.25a3.88,3.88,0,0,1-.64-2.39,12,12,0,0,0,.09-2.19c-.06-.5-.22-1-.32-1.56-.3-1.65.1-3.06,1-3.6a8.18,8.18,0,0,0-2.12-1.83,5.057,5.057,0,0,0-.46-.24,14.61,14.61,0,0,1-1.77-.72,3,3,0,0,1-.4-.26,8,8,0,0,1-2-3,23.733,23.733,0,0,0-1.59-3.29,13.791,13.791,0,0,0-2.94-3.05,2.491,2.491,0,0,0-.48-.31,1,1,0,0,0-.37-.06,1.56,1.56,0,0,1-.57-.2,3.59,3.59,0,0,1-1.31-1.52,6.06,6.06,0,0,0-1-2.05c-.2-.09-.33.08-.33.31a2.5,2.5,0,0,0,.21.75,18.621,18.621,0,0,0,2,3.57c.32.46.71,1,.62,1.44s-.39.28-.72.09a2.661,2.661,0,0,1-.51-.39,8.46,8.46,0,0,1-2.2-4c-.3-1.41-.13-2.78-.88-4.16-.39-.72-1-1.31-1.32-2a3.15,3.15,0,0,1-.26-1.88,4,4,0,0,1,.58-1.35c.6-1,.06-3.31-.32-5a46.691,46.691,0,0,1-1.05-5.07,19.8,19.8,0,0,1,.26-4.93c.06-.49.14-1,.21-1.47a37.5,37.5,0,0,0-3.54,16.81c-.07,25.48,17.85,56.53,40,69.34s40.22,2.51,40.29-23S294.67,178.34,272.49,165.54ZM263,188a.891.891,0,0,1-.33,0l-.12-.06a.71.71,0,0,1-.24-.22l-.11-.18-.16-.13-.18-.12-.56-.28h-.05a1.88,1.88,0,0,1-.64-.59l-.12-.24v-.2a2.122,2.122,0,0,1,.07-.45l.07-.19c.1-.15.33-.12.55,0a1.179,1.179,0,0,1,.32.27,1.46,1.46,0,0,1,.27.45,2,2,0,0,0,.46.65c.14.12.28.26.41.39a2.781,2.781,0,0,1,.27.33,1.21,1.21,0,0,1,.17.43v.09Zm3.21-9.76a2.82,2.82,0,0,1-1.66,0c-.84-.1-1.67,0-2,.77a5.12,5.12,0,0,0-.3,1.24,1.82,1.82,0,0,1-.71,1.3,1,1,0,0,1-1-.09,2,2,0,0,1-.5-.43,4,4,0,0,1-.77-1.89,4.89,4.89,0,0,1-1.84-2c-.25-.59-.24-1.18-.45-1.77s-.73-1.33-.93-2,0-1.46.55-1.48c.21,0,.5,0,.44-.3a1.22,1.22,0,0,0-.24-.43,1.82,1.82,0,0,1-.15-1.66,4.22,4.22,0,0,0,.55-1.24,1.85,1.85,0,0,0-.73-1.66,1.35,1.35,0,0,0-.54-.14,3.3,3.3,0,0,1-.92-.4l-.29-.17-.36-.22a2.14,2.14,0,0,0-1.07-.38c-.58,0-1,.32-1.55,0a2.88,2.88,0,0,1-1.26-2.71c.42-1.44,2.3-1.38,3.73-.56a22.456,22.456,0,0,1,1.84,1.37,18.193,18.193,0,0,0,2,1.34c1.44.83,2.89,1.48,4.34,2.29l.14.09a3.64,3.64,0,0,1,1.09.87,4.71,4.71,0,0,1,.74,1.38,7.47,7.47,0,0,1,.5,3.22,7.9,7.9,0,0,0-.11,1.21,2.53,2.53,0,0,0,.43,1.37c.33.46.8.72,1.12,1.2a1.37,1.37,0,0,1-.08,1.85Zm32.88,61.14a1.58,1.58,0,0,0-.75.65,7.527,7.527,0,0,0-.13,1.69,1.17,1.17,0,0,1-.8,1.1,2.66,2.66,0,0,1-1.08,0l-.84-.15a.61.61,0,0,1-.25-.08h0a1.43,1.43,0,0,1-.41-.56,1.19,1.19,0,0,1-.16-.39.37.37,0,0,1,0-.24c.36-1,1.43-1.27,1.5-2.5v-.74c0-.23.12-.43.31-.44a.751.751,0,0,1,.31.08l1,.42c.5.2.76.18,1.05-.11a.57.57,0,0,1,.68-.17l.09.05c.85.36-.32,1.25-.51,1.36Zm3.76-18.52c-.28.76.14,2.06-.11,2.85a1.45,1.45,0,0,1-.38.61,4,4,0,0,1-2.31,1.29.87.87,0,0,1-.6-.08,2.69,2.69,0,0,1-.64-.66,5.89,5.89,0,0,1-1.14-2.07c-.2-1,.38-1.51.59-2.28a.69.69,0,0,0,0-.41,1.932,1.932,0,0,0-.21-.4l-1.69-2.75a3.32,3.32,0,0,0-.75-1c-.16.77-.31,1.53-.47,2.29a4.279,4.279,0,0,0-.11,1.31,8.691,8.691,0,0,0,1.55,3.38l1.62,2.52c-.07,1.21.64,2.82.57,4a3.1,3.1,0,0,1-1.45,2.2c-.8.69-2.24,1-2.37,2.42l-.39,4a3.64,3.64,0,0,1-.2,1.08,2.19,2.19,0,0,1-1.05.95,11.73,11.73,0,0,0-3.95,3.83c-.06.11-.13.21-.25.21a.49.49,0,0,1-.37-.14,14,14,0,0,1-1.44-1.09,2.109,2.109,0,0,1-.42-.47,2,2,0,0,1-.22-.56c-.4-1.37-.79-2.74-1.19-4.1a5.359,5.359,0,0,1-.28-1.46,2.78,2.78,0,0,1,.25-1c.44-1,1.64-1.86,1.44-3.35s-.76-3.11-.93-4.59a13.7,13.7,0,0,0-.49-3.47A3,3,0,0,0,285,223a1.781,1.781,0,0,0-.51-.42,4.744,4.744,0,0,0-.52-.24l-2.97-1.2a10.308,10.308,0,0,1-1.32-.61c-.15-.08-.29-.18-.44-.28a4.9,4.9,0,0,1-1.54-1.78,9.729,9.729,0,0,0-1-2.12,5.3,5.3,0,0,0-.71-.65,6.59,6.59,0,0,1-1.3-1.46,1.74,1.74,0,0,1-.3-.59.94.94,0,0,1,.05-.48c.25-.87.69-1.76,1-2.57-.12-.57-.23-1.14-.35-1.7a3.2,3.2,0,0,1,0-2.11c.56-.8,2.25.31,2.74-.59.29-.54,0-1.7.56-1.9a1,1,0,0,1,.66.11c1.56.58,3.21,1.86,4.75,2.27a2.58,2.58,0,0,1,.6.22l.15.1a2.77,2.77,0,0,1,.51.56c.7.89,1.22,1.72,1.92,2.61,2.48,1.21,5,2.37,7.44,3.46.25.12.54.23.7.08a.81.81,0,0,0,.13-.43,4.751,4.751,0,0,0-.14-1.42.85.85,0,0,0-.28-.48l-.15-.06-1-.32a1.451,1.451,0,0,1-.26-.11.48.48,0,0,1-.15-.11,1.5,1.5,0,0,1-.26-.38,4.51,4.51,0,0,1-.6-2.05c0-.62.31-1.22.8-1.21a6.63,6.63,0,0,0-1.43-2.82,14.25,14.25,0,0,0-1.27-1,1.45,1.45,0,0,1-.32-.37,1.339,1.339,0,0,1-.14-.38c-.13-.42-.26-.83-.46-1.41l-.23-.2-.39-.2a2.7,2.7,0,0,1-.34-.17,1.609,1.609,0,0,1-.46-.38c-.31-.36-.5-.93-1-1.24-.15,0,0,.32,0,.54s-.07.74-.36.57a4.769,4.769,0,0,1-1.2-1.46A18.691,18.691,0,0,1,284,194.9a2.851,2.851,0,0,0-.2-.51,2.509,2.509,0,0,0-.27-.37,4.7,4.7,0,0,0-1.19-1.14.38.38,0,0,0-.23-.08c-.2,0-.18.38,0,.67.42,1,1.53,1.52,1.82,2.49.17.53-.07,1-.46.88a1,1,0,0,1-.3-.13l-.33-.21a1,1,0,0,1-.33-.35c-.14-.3.08-.46.14-.69a1.25,1.25,0,0,0-.2-.87,4.1,4.1,0,0,0-.59-.78c-.59-.68-1.21-1.31-1.83-1.9a3.129,3.129,0,0,0-.55-.41.74.74,0,0,0-.51,0,7,7,0,0,0-1.7.91,2.28,2.28,0,0,0-1.28,2.11,1.2,1.2,0,0,1-.06.51.3.3,0,0,1-.25,0,2.74,2.74,0,0,1-1.16-.32,2.12,2.12,0,0,1-.64-.6,5.4,5.4,0,0,1-.4-.75c-.41-.92-.83-1.84-1.25-2.76a2,2,0,0,1-.23-.6c0-.27.19-.37.37-.45a3.251,3.251,0,0,1,1.15-.38c.94-.07,2.07.56,3.1.79h.19l.06-.13a1.32,1.32,0,0,0-.05-.67c-.44-.25-.83-.11-1.28-.36a2,2,0,0,1-.87-1.28c-.1-.5.09-.9.44-.92a1.37,1.37,0,0,1,.69.23l.3.19a2.6,2.6,0,0,0,.28.17,1.14,1.14,0,0,0,.76.22c.46-.11.47-.87.71-1.32s.91-.5,1.53-.14a2.83,2.83,0,0,1,.84.76.44.44,0,0,1,.57,0,1.2,1.2,0,0,1,.26.21c.15.17.27.39.43.54a.83.83,0,0,0,.19.15.65.65,0,0,0,.43.1,1.711,1.711,0,0,0,.48-.21,4.179,4.179,0,0,1,.79-.4,1,1,0,0,0,.5-.28.75.75,0,0,0,.06-.72c-.08-.18-.18-.33-.27-.5-.31-.58-.35-1.28-.77-1.74a1.21,1.21,0,0,0-.32-.25,1.341,1.341,0,0,0-.24-.12l-.23-.12a1.46,1.46,0,0,1-.32-.25,2.849,2.849,0,0,1-.56-1.31,2.79,2.79,0,0,0-.26,2.06,9.164,9.164,0,0,1,.23.94c0,.3-.07.57-.29.55a.45.45,0,0,1-.18-.07,3.531,3.531,0,0,1-.62-.56,3.38,3.38,0,0,0-.57-.41l-.36-.19-.36-.2a2.36,2.36,0,0,1-.65-.51,2.67,2.67,0,0,1-.7-1.39v-.25c0-.08.1-.1.16-.14.34-.23.39-.81.46-1.33a10,10,0,0,1,.42-1.81l.07-.11.16.06.45.27c.42.25.85.46,1.27.67a1.27,1.27,0,0,0,.56.15,2.25,2.25,0,0,0,.35-.09.85.85,0,0,1,.53.12,1.67,1.67,0,0,1,.39.33,5.109,5.109,0,0,1,.86,1.86,3.15,3.15,0,0,0,1.06,1.69c.1.06.21.1.28.05s.1-.29.17-.43c.22-.45,1.25.33,1.47-.14-.23-.31-.5-.56-.72-.88s-.36-.79-.18-.94.4,0,.62.15a7.78,7.78,0,0,0,3.39,1.1,3.39,3.39,0,0,1,1.38.21,1.15,1.15,0,0,1,.25.12,7.881,7.881,0,0,1,1.31,1.08,26.5,26.5,0,0,1,3.47,3.75c1.31,1.84,1.9,3.93,2.89,6a11.189,11.189,0,0,0,2,2.79,4.2,4.2,0,0,1,.48.55,3.44,3.44,0,0,1,.39.85l.81,2.22a13.4,13.4,0,0,1,.63,2.09,8.233,8.233,0,0,1,.07,1.55,21.351,21.351,0,0,1-1,5.47,7.51,7.51,0,0,1,.29,2.13,4,4,0,0,1-.34,1.27c-.5,1.24-1,2.49-1.49,3.75a4.34,4.34,0,0,0-.22,3.3c.33.25.66.5,1,.76a2.5,2.5,0,0,0,.63-1.64c0-.52.06-1.21.51-1.11a.47.47,0,0,1,.15.06,2.85,2.85,0,0,1,.82,1.08,3.269,3.269,0,0,1,.28.64c.09.72-.47,1-.68,1.55Z" fill="#1d6192"/>
        <path id="Path_74" data-name="Path 74" d="M262.64,187.06c-.13-.13-.27-.27-.41-.39a2,2,0,0,1-.46-.65,1.459,1.459,0,0,0-.27-.45,1.18,1.18,0,0,0-.32-.27c-.22-.12-.45-.15-.55,0l-.07.19a2.12,2.12,0,0,0-.07.45v.2l.12.24a1.881,1.881,0,0,0,.64.59h.05l.56.28.18.12.16.13.11.18a.71.71,0,0,0,.24.22l.12.06a.89.89,0,0,0,.33,0l.08-.06v-.09a1.21,1.21,0,0,0-.17-.43,2.782,2.782,0,0,0-.27-.32Z" fill="#1d6192"/>
        <path id="Path_75" data-name="Path 75" d="M251.71,165.29c.55.32,1,0,1.55,0a2.14,2.14,0,0,1,1.07.38l.36.22.29.17a3.3,3.3,0,0,0,.92.4,1.47,1.47,0,0,1,.57.15,1.87,1.87,0,0,1,.7,1.65,4.479,4.479,0,0,1-.54,1.24,1.79,1.79,0,0,0,.14,1.66,1.22,1.22,0,0,1,.24.43c.06.29-.23.29-.44.3-.53,0-.79.7-.55,1.48s.69,1.32.93,2,.2,1.18.45,1.77a4.89,4.89,0,0,0,1.84,2A4,4,0,0,0,260,181a2,2,0,0,0,.5.43,1,1,0,0,0,1,.09,1.82,1.82,0,0,0,.71-1.3,5.118,5.118,0,0,1,.3-1.24c.35-.75,1.18-.87,2-.77a2.82,2.82,0,0,0,1.66,0,1.37,1.37,0,0,0,.08-1.85c-.32-.48-.79-.74-1.12-1.2a2.53,2.53,0,0,1-.43-1.37,7.891,7.891,0,0,1,.11-1.21,7.47,7.47,0,0,0-.5-3.22,4.71,4.71,0,0,0-.74-1.38,3.64,3.64,0,0,0-1.09-.87l-.14-.09c-1.45-.81-2.9-1.46-4.34-2.29a18.191,18.191,0,0,1-2-1.34,21.786,21.786,0,0,0-1.86-1.38c-1.41-.81-3.29-.87-3.71.57a2.88,2.88,0,0,0,1.26,2.71Z" fill="#1d6192"/>
        <path id="Path_76" data-name="Path 76" d="M299.68,237.9l-.09-.05a.57.57,0,0,0-.68.17c-.29.29-.55.31-1.05.11l-1-.42a.75.75,0,0,0-.31-.08c-.19,0-.28.21-.31.44a6.09,6.09,0,0,0,0,.74c-.07,1.23-1.14,1.49-1.5,2.5a.37.37,0,0,0,0,.24,1.189,1.189,0,0,0,.16.39,1.43,1.43,0,0,0,.41.56h0a.61.61,0,0,0,.25.08l.84.15a2.66,2.66,0,0,0,1.08,0,1.17,1.17,0,0,0,.8-1.1,7.527,7.527,0,0,1,.13-1.69,1.58,1.58,0,0,1,.75-.65C299.29,239.24,300.46,238.35,299.68,237.9Z" fill="#1d6192"/>
        <path id="Path_77" data-name="Path 77" d="M303.42,219.19a3.267,3.267,0,0,0-.28-.64,2.85,2.85,0,0,0-.82-1.08.47.47,0,0,0-.15-.06c-.45-.1-.48.59-.51,1.11a2.5,2.5,0,0,1-.63,1.64c-.32-.26-.65-.51-1-.76a4.34,4.34,0,0,1,.22-3.3c.49-1.26,1-2.51,1.49-3.75a4.291,4.291,0,0,0,.35-1.27,7.923,7.923,0,0,0-.3-2.13,21.351,21.351,0,0,0,1-5.47,8.227,8.227,0,0,0-.07-1.55,13.4,13.4,0,0,0-.63-2.09l-.81-2.22a3.441,3.441,0,0,0-.39-.85,4.2,4.2,0,0,0-.48-.55,11.191,11.191,0,0,1-2-2.79c-1-2-1.58-4.13-2.89-6a26.5,26.5,0,0,0-3.47-3.75,7.88,7.88,0,0,0-1.31-1.08,1.15,1.15,0,0,0-.25-.12,3.39,3.39,0,0,0-1.38-.21,7.78,7.78,0,0,1-3.39-1.1c-.22-.12-.48-.27-.62-.15s0,.62.18.94a9.572,9.572,0,0,0,.72.88c-.22.47-1.25-.31-1.47.14-.07.14-.06.36-.17.43s-.18,0-.28-.05a3.15,3.15,0,0,1-1.06-1.69,5.11,5.11,0,0,0-.86-1.86,1.669,1.669,0,0,0-.39-.33.85.85,0,0,0-.53-.12c-.13,0-.22.08-.35.09a1.27,1.27,0,0,1-.56-.15c-.42-.21-.85-.42-1.27-.67l-.45-.27-.16-.06-.07.11a10,10,0,0,0-.42,1.81c-.07.52-.12,1.1-.46,1.33a.2.2,0,0,0-.16.14V182a2.67,2.67,0,0,0,.7,1.39,2.36,2.36,0,0,0,.65.51l.36.2.36.19a3.379,3.379,0,0,1,.57.41,3.531,3.531,0,0,0,.62.56.45.45,0,0,0,.18.07c.22,0,.32-.25.29-.55a9.163,9.163,0,0,0-.23-.94,2.79,2.79,0,0,1,.26-2.06,2.85,2.85,0,0,0,.56,1.31,1.461,1.461,0,0,0,.32.25l.23.12a1.339,1.339,0,0,1,.24.12,1.459,1.459,0,0,1,.32.25c.42.46.46,1.16.77,1.74.09.17.19.32.27.5a.75.75,0,0,1-.06.72,1,1,0,0,1-.5.28,4.181,4.181,0,0,0-.79.4,1.71,1.71,0,0,1-.48.21.65.65,0,0,1-.43-.1.83.83,0,0,1-.19-.15c-.16-.15-.28-.37-.43-.54a1.2,1.2,0,0,0-.26-.21.44.44,0,0,0-.57,0,2.83,2.83,0,0,0-.84-.76c-.62-.36-1.26-.35-1.53.14s-.25,1.21-.71,1.32a1.08,1.08,0,0,1-.76-.22,2.609,2.609,0,0,1-.28-.17l-.3-.19a1.37,1.37,0,0,0-.69-.23c-.35,0-.54.42-.44.92a2.07,2.07,0,0,0,.88,1.29c.44.24.83.1,1.28.36a1.38,1.38,0,0,1,0,.66l-.06.13h-.19c-1-.23-2.16-.86-3.1-.79a3.25,3.25,0,0,0-1.15.38c-.18.08-.36.18-.37.45a2,2,0,0,0,.21.68c.42.92.84,1.84,1.25,2.76a5.4,5.4,0,0,0,.4.75,2.121,2.121,0,0,0,.64.6,2.74,2.74,0,0,0,1.16.32.3.3,0,0,0,.25,0c.1-.09.07-.31.06-.51a2.28,2.28,0,0,1,1.28-2.11,7,7,0,0,1,1.7-.91.77.77,0,0,1,.62.05,3.367,3.367,0,0,1,.44.35c.62.59,1.24,1.22,1.83,1.9a4.1,4.1,0,0,1,.59.78,1.25,1.25,0,0,1,.2.87c-.06.23-.28.39-.14.69a1,1,0,0,0,.33.35l.33.21a1,1,0,0,0,.3.13c.39.08.63-.35.46-.88-.29-1-1.4-1.53-1.82-2.49-.13-.29-.15-.66,0-.67a.38.38,0,0,1,.23.08,4.7,4.7,0,0,1,1.19,1.14,2.508,2.508,0,0,1,.27.37,2.85,2.85,0,0,1,.2.51,18.689,18.689,0,0,0,1.74,3.68,4.6,4.6,0,0,0,1.23,1.47c.26.16.42-.25.33-.58s-.17-.53.11-.48c.35.25.54.82.85,1.18a1.609,1.609,0,0,0,.46.38,2.7,2.7,0,0,0,.34.17c.13.07.26.13.48.26l.21.3.39,1.25a1.24,1.24,0,0,0,.14.38,1.45,1.45,0,0,0,.32.37c.42.38.86.63,1.27,1a6.63,6.63,0,0,1,1.43,2.82c-.49,0-.8.59-.8,1.21a4.51,4.51,0,0,0,.6,2.05,1.5,1.5,0,0,0,.26.38.48.48,0,0,0,.15.11,1.448,1.448,0,0,0,.26.11l1,.32a.65.65,0,0,1,.26.15.85.85,0,0,1,.17.39,4.751,4.751,0,0,1,.14,1.42.81.81,0,0,1-.13.43c-.16.15-.45,0-.7-.08-2.48-1.09-5-2.25-7.44-3.46-.7-.89-1.22-1.72-1.92-2.61a2.77,2.77,0,0,0-.51-.56l-.15-.1a2.581,2.581,0,0,0-.6-.22c-1.54-.41-3.19-1.69-4.75-2.27a1,1,0,0,0-.66-.11c-.53.2-.27,1.36-.56,1.9-.49.9-2.18-.21-2.74.59a3.2,3.2,0,0,0,0,2.11c.12.56.23,1.13.35,1.7a26.331,26.331,0,0,0-1,2.57.94.94,0,0,0-.05.48,1.739,1.739,0,0,0,.3.59,6.59,6.59,0,0,0,1.3,1.46,5.3,5.3,0,0,1,.71.65,9.73,9.73,0,0,1,1,2.12,4.9,4.9,0,0,0,1.54,1.78c.15.1.29.2.44.28a10.31,10.31,0,0,0,1.32.61l2.94,1.19a4.742,4.742,0,0,1,.52.24,1.78,1.78,0,0,1,.51.42,3,3,0,0,1,.53.95,13.7,13.7,0,0,1,.49,3.47c.17,1.48.74,3.1.93,4.59s-1,2.3-1.44,3.35a2.78,2.78,0,0,0-.25,1,5.359,5.359,0,0,0,.28,1.46c.4,1.36.79,2.73,1.19,4.1a2,2,0,0,0,.22.56,2.11,2.11,0,0,0,.42.47,14.531,14.531,0,0,0,1.53,1.15.55.55,0,0,0,.28.08c.12,0,.19-.1.25-.21a11.73,11.73,0,0,1,3.95-3.83,2.19,2.19,0,0,0,1.05-.95,3.641,3.641,0,0,0,.2-1.08l.39-4c.13-1.39,1.57-1.73,2.37-2.42a3.1,3.1,0,0,0,1.45-2.2c.07-1.22-.64-2.83-.57-4L296.61,223a8.69,8.69,0,0,1-1.55-3.38,4.28,4.28,0,0,1,.11-1.31c.16-.76.31-1.52.47-2.29a3.32,3.32,0,0,1,.75,1l1.69,2.75a1.928,1.928,0,0,1,.21.4.69.69,0,0,1,0,.41c-.21.77-.79,1.28-.59,2.28a5.89,5.89,0,0,0,1.14,2.07,2.69,2.69,0,0,0,.64.66.87.87,0,0,0,.6.08,4,4,0,0,0,2.31-1.29,1.45,1.45,0,0,0,.38-.61c.25-.79-.17-2.09.11-2.85C303.07,220.28,303.63,220,303.42,219.19Z" fill="#1d6192"/>
        <path id="Path_78" data-name="Path 78" d="M270.11,243.9a5.59,5.59,0,0,1-1.66-3c-.06-.33-.06-.65-.14-1a12.436,12.436,0,0,0-.51-1.44,7.41,7.41,0,0,1-.49-3.77c.1-.58.3-1.06.36-1.66a10.22,10.22,0,0,0-.41-2.93,1.46,1.46,0,0,1-.06-.67c.06-.22.26-.28.43-.35,1.06-.48.56-2.6.07-4.41a1.59,1.59,0,0,1,.44-1.51,1.5,1.5,0,0,0,.16-1.67,2.39,2.39,0,0,0-1-1,5.53,5.53,0,0,0-1.58-.6,4.56,4.56,0,0,1-1.52-.42,2.179,2.179,0,0,1-.47-.36,8.07,8.07,0,0,1-1.23-2,3.66,3.66,0,0,0-1.16-1.42.77.77,0,0,0-.31-.11,1.289,1.289,0,0,1-.69-.05,2.06,2.06,0,0,1-.66-.87,4.63,4.63,0,0,0-.6-1,1.609,1.609,0,0,0-.34-.27,2.8,2.8,0,0,0-.58-.23,2.49,2.49,0,0,1-.57-.22,1.44,1.44,0,0,1-.34-.28,6.583,6.583,0,0,1-.63-1,6.51,6.51,0,0,0-2.07-1.9,5.35,5.35,0,0,1-1.93-2.4,5.6,5.6,0,0,0,.16-1.11,2.36,2.36,0,0,0-1-1.64.66.66,0,0,0-.28-.11.31.31,0,0,0-.27,0c-.24.22.12,1,.06,1.37s-.67.33-1.15.08l-.17-.09a2.66,2.66,0,0,1-.62-.48,4.11,4.11,0,0,1-.64-1.07,13.512,13.512,0,0,1-.93-2.21,2.73,2.73,0,0,1,0-1.94.8.8,0,0,1,1.15-.18,1.762,1.762,0,0,1,.29.21,3,3,0,0,0,.5.46.3.3,0,0,0,.17.05c.29,0,.15-.6.25-.9s.41-.3.75-.1a1.94,1.94,0,0,1,.52.44,20.093,20.093,0,0,1,1.15,1.78,12.882,12.882,0,0,1,.87,1.22,2.94,2.94,0,0,0,.71,1.1c.29.17.53-.06.55-.4a3.84,3.84,0,0,0-.32-1.25c-.75-2-1.4-4.09-1.06-5.61a4.64,4.64,0,0,1,.41-1.1c.4-.83.87-1.67,1.69-1.84a3.34,3.34,0,0,0,.92-.17c.27-.15.38-.64.4-1.06a6.051,6.051,0,0,0,1.05.76,4.19,4.19,0,0,0,1,.42c.28.08.57.12.74-.05a.72.72,0,0,0,.2-.52,3.35,3.35,0,0,0-1.11-2.41,3,3,0,0,1-1-1,.76.76,0,0,1,0-.77.59.59,0,0,1,.56-.21,2.31,2.31,0,0,1,1,.32,5,5,0,0,1,.49.35,4.27,4.27,0,0,1,1.17,1.79,6.94,6.94,0,0,0,.58,1.88,1.81,1.81,0,0,0,.57.54,1.241,1.241,0,0,0,.4.15,1.2,1.2,0,0,0,.82-.19.91.91,0,0,0,.53-.92,2.47,2.47,0,0,0-.5-1.13,9.569,9.569,0,0,0-.83-.95,14.27,14.27,0,0,1-2.14-3.07c-.37-.72-.69-1.46-1.08-2.18a8.329,8.329,0,0,0-1.79-2.3,4.632,4.632,0,0,0-.65-.47,2.07,2.07,0,0,0-1.4-.32.7.7,0,0,1-.5,0,3.57,3.57,0,0,1-.82-1,4.84,4.84,0,0,0-1.48-1.41c-.45-.26-.84-.32-1,0s.09,1.15.19,1.76a1.88,1.88,0,0,1-.83,2.07.48.48,0,0,0-.23.19c-.14.33.29.94.47,1.45s.09,1-.21,1.07a.67.67,0,0,1-.55-.09,1.69,1.69,0,0,1-.51-.49c-.57-.84-.41-1.9-1-2.77-.37-.58-.94-.87-1.37-1.39a4.18,4.18,0,0,1-.84-2.43,3.14,3.14,0,0,1,.42-2,1.25,1.25,0,0,1,1.67-.23l.5.33a4.579,4.579,0,0,0,.54.36c.35.18.74.18.8-.18a1.56,1.56,0,0,0,0-.52,3.58,3.58,0,0,1,0-1.59c.14-.38.51-.56,1-.24a2.21,2.21,0,0,1,.73,1.39,1.94,1.94,0,0,1-.26,1.17.74.74,0,0,0-.14.34,1.35,1.35,0,0,0,.31.8,3.079,3.079,0,0,0,.62.58,8.828,8.828,0,0,0,1,.67,2,2,0,0,0,1.44.36.41.41,0,0,0,.33-.27,2.51,2.51,0,0,0,.05-.74c0-.7.51-1,.7-1.59a3.18,3.18,0,0,0-.27-2.1,4.14,4.14,0,0,0-1.52-1.76,3.67,3.67,0,0,0-1.16-.41,4,4,0,0,1-1.25-.47,2,2,0,0,1-.61-.6,5.76,5.76,0,0,1-.39-1,1.54,1.54,0,0,0-.6-.8c-.24-.08-.38.12-.48.31a2.731,2.731,0,0,0-.33.84c-.11.64.09,1.48,0,2.11-.06.26-.25.47-.56.28a1.3,1.3,0,0,1-.28-.4,2.3,2.3,0,0,1-.23-1.07c0-.5.28-.94,0-1.5a1.15,1.15,0,0,0-.44-.48.63.63,0,0,0-.6-.05,1.6,1.6,0,0,0-.5,1,2,2,0,0,0-.5-.79l-.21-.23a1,1,0,0,1-.08-.41,2.07,2.07,0,0,0-.8-1.3l-.15-.1a1.14,1.14,0,0,0-.93-.13c-.5.14-.82.74-.59,1.54.18.63.66,1.34.56,1.84a1.56,1.56,0,0,0-.27-.2c-.41-.24-.79-.12-.79.38l-.15-.07a5,5,0,0,1-1.54-2,8.25,8.25,0,0,0-1.52-2.37c-.44-.38-.93-.55-1.37-.93-.29.34-.57.7-.83,1.06a1.768,1.768,0,0,0-.12.17l-.09.11-.17.24a25.768,25.768,0,0,0-1.75,2.95c-.07.49-.15,1-.21,1.47a19.8,19.8,0,0,0-.26,4.93,46.706,46.706,0,0,0,1.05,5.07c.38,1.7.92,4,.32,5a4,4,0,0,0-.58,1.35,3.15,3.15,0,0,0,.26,1.88,23.848,23.848,0,0,0,1.32,2c.75,1.38.58,2.75.88,4.16a8.46,8.46,0,0,0,2.2,4,2.66,2.66,0,0,0,.51.39c.33.19.65.23.72-.09a2.655,2.655,0,0,0-.62-1.44,18.622,18.622,0,0,1-2-3.57,2.5,2.5,0,0,1-.21-.75c0-.23.13-.4.33-.31a6.06,6.06,0,0,1,1,2.05,3.54,3.54,0,0,0,1.31,1.52,1.559,1.559,0,0,0,.57.2,1.17,1.17,0,0,1,.51.12,3.688,3.688,0,0,1,.34.25,13.789,13.789,0,0,1,2.94,3.05,23.729,23.729,0,0,1,1.59,3.29,8,8,0,0,0,2,3,3,3,0,0,0,.4.26,14.612,14.612,0,0,0,1.77.72,5.062,5.062,0,0,1,.46.24,8.18,8.18,0,0,1,2.12,1.83c-.92.54-1.32,2-1,3.6.1.52.26,1.06.32,1.56a12,12,0,0,1-.09,2.19,3.88,3.88,0,0,0,.64,2.39c.59.83,1.55,1.32,1.87,2.25.11.33.1.64.2,1a3.57,3.57,0,0,0,1.58,1.87,7,7,0,0,1,1.87,1.37c.87,1,1.08,2.45,1.5,3.71a11.089,11.089,0,0,0,1,2.15,10.16,10.16,0,0,1,1.38,2.51,8.309,8.309,0,0,0,.3,1.45c.29.69,1,1.22,1.18,1.92a4.781,4.781,0,0,1,.13.89,4.6,4.6,0,0,0,1.3,2.3,9,9,0,0,0,1.93,1.39l2.11,1.25c.37.21.8.39.95.1s-.1-.92-.43-1.3a12,12,0,0,0-1.2-1.11Z" fill="#1d6192"/>
        <g id="Group_4" data-name="Group 4" opacity="0.3">
          <path id="Path_79" data-name="Path 79" d="M262.64,187.06c-.13-.13-.27-.27-.41-.39a2,2,0,0,1-.46-.65,1.459,1.459,0,0,0-.27-.45,1.18,1.18,0,0,0-.32-.27c-.22-.12-.45-.15-.55,0l-.07.19a2.12,2.12,0,0,0-.07.45v.2l.12.24a1.881,1.881,0,0,0,.64.59h.05l.56.28.18.12.16.13.11.18a.71.71,0,0,0,.24.22l.12.06a.89.89,0,0,0,.33,0l.08-.06v-.09a1.21,1.21,0,0,0-.17-.43,2.782,2.782,0,0,0-.27-.32Z" fill="#fff"/>
          <path id="Path_80" data-name="Path 80" d="M251.71,165.29c.55.32,1,0,1.55,0a2.14,2.14,0,0,1,1.07.38l.36.22.29.17a3.3,3.3,0,0,0,.92.4,1.47,1.47,0,0,1,.57.15,1.87,1.87,0,0,1,.7,1.65,4.479,4.479,0,0,1-.54,1.24,1.79,1.79,0,0,0,.14,1.66,1.22,1.22,0,0,1,.24.43c.06.29-.23.29-.44.3-.53,0-.79.7-.55,1.48s.69,1.32.93,2,.2,1.18.45,1.77a4.89,4.89,0,0,0,1.84,2A4,4,0,0,0,260,181a2,2,0,0,0,.5.43,1,1,0,0,0,1,.09,1.82,1.82,0,0,0,.71-1.3,5.118,5.118,0,0,1,.3-1.24c.35-.75,1.18-.87,2-.77a2.82,2.82,0,0,0,1.66,0,1.37,1.37,0,0,0,.08-1.85c-.32-.48-.79-.74-1.12-1.2a2.53,2.53,0,0,1-.43-1.37,7.891,7.891,0,0,1,.11-1.21,7.47,7.47,0,0,0-.5-3.22,4.71,4.71,0,0,0-.74-1.38,3.64,3.64,0,0,0-1.09-.87l-.14-.09c-1.45-.81-2.9-1.46-4.34-2.29a18.191,18.191,0,0,1-2-1.34,21.786,21.786,0,0,0-1.86-1.38c-1.41-.81-3.29-.87-3.71.57a2.88,2.88,0,0,0,1.26,2.71Z" fill="#fff"/>
          <path id="Path_81" data-name="Path 81" d="M299.68,237.9l-.09-.05a.57.57,0,0,0-.68.17c-.29.29-.55.31-1.05.11l-1-.42a.75.75,0,0,0-.31-.08c-.19,0-.28.21-.31.44a6.09,6.09,0,0,0,0,.74c-.07,1.23-1.14,1.49-1.5,2.5a.37.37,0,0,0,0,.24,1.189,1.189,0,0,0,.16.39,1.43,1.43,0,0,0,.41.56h0a.61.61,0,0,0,.25.08l.84.15a2.66,2.66,0,0,0,1.08,0,1.17,1.17,0,0,0,.8-1.1,7.527,7.527,0,0,1,.13-1.69,1.58,1.58,0,0,1,.75-.65C299.29,239.24,300.46,238.35,299.68,237.9Z" fill="#fff"/>
          <path id="Path_82" data-name="Path 82" d="M303.42,219.19a3.267,3.267,0,0,0-.28-.64,2.85,2.85,0,0,0-.82-1.08.47.47,0,0,0-.15-.06c-.45-.1-.48.59-.51,1.11a2.5,2.5,0,0,1-.63,1.64c-.32-.26-.65-.51-1-.76a4.34,4.34,0,0,1,.22-3.3c.49-1.26,1-2.51,1.49-3.75a4.291,4.291,0,0,0,.35-1.27,7.923,7.923,0,0,0-.3-2.13,21.351,21.351,0,0,0,1-5.47,8.227,8.227,0,0,0-.07-1.55,13.4,13.4,0,0,0-.63-2.09l-.81-2.22a3.441,3.441,0,0,0-.39-.85,4.2,4.2,0,0,0-.48-.55,11.191,11.191,0,0,1-2-2.79c-1-2-1.58-4.13-2.89-6a26.5,26.5,0,0,0-3.47-3.75,7.88,7.88,0,0,0-1.31-1.08,1.15,1.15,0,0,0-.25-.12,3.39,3.39,0,0,0-1.38-.21,7.78,7.78,0,0,1-3.39-1.1c-.22-.12-.48-.27-.62-.15s0,.62.18.94a9.572,9.572,0,0,0,.72.88c-.22.47-1.25-.31-1.47.14-.07.14-.06.36-.17.43s-.18,0-.28-.05a3.15,3.15,0,0,1-1.06-1.69,5.11,5.11,0,0,0-.86-1.86,1.669,1.669,0,0,0-.39-.33.85.85,0,0,0-.53-.12c-.13,0-.22.08-.35.09a1.27,1.27,0,0,1-.56-.15c-.42-.21-.85-.42-1.27-.67l-.45-.27-.16-.06-.07.11a10,10,0,0,0-.42,1.81c-.07.52-.12,1.1-.46,1.33a.2.2,0,0,0-.16.14V182a2.67,2.67,0,0,0,.7,1.39,2.36,2.36,0,0,0,.65.51l.36.2.36.19a3.379,3.379,0,0,1,.57.41,3.531,3.531,0,0,0,.62.56.45.45,0,0,0,.18.07c.22,0,.32-.25.29-.55a9.163,9.163,0,0,0-.23-.94,2.79,2.79,0,0,1,.26-2.06,2.85,2.85,0,0,0,.56,1.31,1.461,1.461,0,0,0,.32.25l.23.12a1.339,1.339,0,0,1,.24.12,1.459,1.459,0,0,1,.32.25c.42.46.46,1.16.77,1.74.09.17.19.32.27.5a.75.75,0,0,1-.06.72,1,1,0,0,1-.5.28,4.181,4.181,0,0,0-.79.4,1.71,1.71,0,0,1-.48.21.65.65,0,0,1-.43-.1.83.83,0,0,1-.19-.15c-.16-.15-.28-.37-.43-.54a1.2,1.2,0,0,0-.26-.21.44.44,0,0,0-.57,0,2.83,2.83,0,0,0-.84-.76c-.62-.36-1.26-.35-1.53.14s-.25,1.21-.71,1.32a1.08,1.08,0,0,1-.76-.22,2.609,2.609,0,0,1-.28-.17l-.3-.19a1.37,1.37,0,0,0-.69-.23c-.35,0-.54.42-.44.92a2.07,2.07,0,0,0,.88,1.29c.44.24.83.1,1.28.36a1.38,1.38,0,0,1,0,.66l-.06.13h-.19c-1-.23-2.16-.86-3.1-.79a3.25,3.25,0,0,0-1.15.38c-.18.08-.36.18-.37.45a2,2,0,0,0,.21.68c.42.92.84,1.84,1.25,2.76a5.4,5.4,0,0,0,.4.75,2.121,2.121,0,0,0,.64.6,2.74,2.74,0,0,0,1.16.32.3.3,0,0,0,.25,0c.1-.09.07-.31.06-.51a2.28,2.28,0,0,1,1.28-2.11,7,7,0,0,1,1.7-.91.77.77,0,0,1,.62.05,3.367,3.367,0,0,1,.44.35c.62.59,1.24,1.22,1.83,1.9a4.1,4.1,0,0,1,.59.78,1.25,1.25,0,0,1,.2.87c-.06.23-.28.39-.14.69a1,1,0,0,0,.33.35l.33.21a1,1,0,0,0,.3.13c.39.08.63-.35.46-.88-.29-1-1.4-1.53-1.82-2.49-.13-.29-.15-.66,0-.67a.38.38,0,0,1,.23.08,4.7,4.7,0,0,1,1.19,1.14,2.508,2.508,0,0,1,.27.37,2.85,2.85,0,0,1,.2.51,18.689,18.689,0,0,0,1.74,3.68,4.6,4.6,0,0,0,1.23,1.47c.26.16.42-.25.33-.58s-.17-.53.11-.48c.35.25.54.82.85,1.18a1.609,1.609,0,0,0,.46.38,2.7,2.7,0,0,0,.34.17c.13.07.26.13.48.26l.21.3.39,1.25a1.24,1.24,0,0,0,.14.38,1.45,1.45,0,0,0,.32.37c.42.38.86.63,1.27,1a6.63,6.63,0,0,1,1.43,2.82c-.49,0-.8.59-.8,1.21a4.51,4.51,0,0,0,.6,2.05,1.5,1.5,0,0,0,.26.38.48.48,0,0,0,.15.11,1.448,1.448,0,0,0,.26.11l1,.32a.65.65,0,0,1,.26.15.85.85,0,0,1,.17.39,4.751,4.751,0,0,1,.14,1.42.81.81,0,0,1-.13.43c-.16.15-.45,0-.7-.08-2.48-1.09-5-2.25-7.44-3.46-.7-.89-1.22-1.72-1.92-2.61a2.77,2.77,0,0,0-.51-.56l-.15-.1a2.581,2.581,0,0,0-.6-.22c-1.54-.41-3.19-1.69-4.75-2.27a1,1,0,0,0-.66-.11c-.53.2-.27,1.36-.56,1.9-.49.9-2.18-.21-2.74.59a3.2,3.2,0,0,0,0,2.11c.12.56.23,1.13.35,1.7a26.331,26.331,0,0,0-1,2.57.94.94,0,0,0-.05.48,1.739,1.739,0,0,0,.3.59,6.59,6.59,0,0,0,1.3,1.46,5.3,5.3,0,0,1,.71.65,9.73,9.73,0,0,1,1,2.12,4.9,4.9,0,0,0,1.54,1.78c.15.1.29.2.44.28a10.31,10.31,0,0,0,1.32.61l2.94,1.19a4.742,4.742,0,0,1,.52.24,1.78,1.78,0,0,1,.51.42,3,3,0,0,1,.53.95,13.7,13.7,0,0,1,.49,3.47c.17,1.48.74,3.1.93,4.59s-1,2.3-1.44,3.35a2.78,2.78,0,0,0-.25,1,5.359,5.359,0,0,0,.28,1.46c.4,1.36.79,2.73,1.19,4.1a2,2,0,0,0,.22.56,2.11,2.11,0,0,0,.42.47,14.531,14.531,0,0,0,1.53,1.15.55.55,0,0,0,.28.08c.12,0,.19-.1.25-.21a11.73,11.73,0,0,1,3.95-3.83,2.19,2.19,0,0,0,1.05-.95,3.641,3.641,0,0,0,.2-1.08l.39-4c.13-1.39,1.57-1.73,2.37-2.42a3.1,3.1,0,0,0,1.45-2.2c.07-1.22-.64-2.83-.57-4L296.61,223a8.69,8.69,0,0,1-1.55-3.38,4.28,4.28,0,0,1,.11-1.31c.16-.76.31-1.52.47-2.29a3.32,3.32,0,0,1,.75,1l1.69,2.75a1.928,1.928,0,0,1,.21.4.69.69,0,0,1,0,.41c-.21.77-.79,1.28-.59,2.28a5.89,5.89,0,0,0,1.14,2.07,2.69,2.69,0,0,0,.64.66.87.87,0,0,0,.6.08,4,4,0,0,0,2.31-1.29,1.45,1.45,0,0,0,.38-.61c.25-.79-.17-2.09.11-2.85C303.07,220.28,303.63,220,303.42,219.19Z" fill="#fff"/>
          <path id="Path_83" data-name="Path 83" d="M270.11,243.9a5.59,5.59,0,0,1-1.66-3c-.06-.33-.06-.65-.14-1a12.436,12.436,0,0,0-.51-1.44,7.41,7.41,0,0,1-.49-3.77c.1-.58.3-1.06.36-1.66a10.22,10.22,0,0,0-.41-2.93,1.46,1.46,0,0,1-.06-.67c.06-.22.26-.28.43-.35,1.06-.48.56-2.6.07-4.41a1.59,1.59,0,0,1,.44-1.51,1.5,1.5,0,0,0,.16-1.67,2.39,2.39,0,0,0-1-1,5.53,5.53,0,0,0-1.58-.6,4.56,4.56,0,0,1-1.52-.42,2.179,2.179,0,0,1-.47-.36,8.07,8.07,0,0,1-1.23-2,3.66,3.66,0,0,0-1.16-1.42.77.77,0,0,0-.31-.11,1.289,1.289,0,0,1-.69-.05,2.06,2.06,0,0,1-.66-.87,4.63,4.63,0,0,0-.6-1,1.609,1.609,0,0,0-.34-.27,2.8,2.8,0,0,0-.58-.23,2.49,2.49,0,0,1-.57-.22,1.44,1.44,0,0,1-.34-.28,6.583,6.583,0,0,1-.63-1,6.51,6.51,0,0,0-2.07-1.9,5.35,5.35,0,0,1-1.93-2.4,5.6,5.6,0,0,0,.16-1.11,2.36,2.36,0,0,0-1-1.64.66.66,0,0,0-.28-.11.31.31,0,0,0-.27,0c-.24.22.12,1,.06,1.37s-.67.33-1.15.08l-.17-.09a2.66,2.66,0,0,1-.62-.48,4.11,4.11,0,0,1-.64-1.07,13.512,13.512,0,0,1-.93-2.21,2.73,2.73,0,0,1,0-1.94.8.8,0,0,1,1.15-.18,1.762,1.762,0,0,1,.29.21,3,3,0,0,0,.5.46.3.3,0,0,0,.17.05c.29,0,.15-.6.25-.9s.41-.3.75-.1a1.94,1.94,0,0,1,.52.44,20.093,20.093,0,0,1,1.15,1.78,12.882,12.882,0,0,1,.87,1.22,2.94,2.94,0,0,0,.71,1.1c.29.17.53-.06.55-.4a3.84,3.84,0,0,0-.32-1.25c-.75-2-1.4-4.09-1.06-5.61a4.64,4.64,0,0,1,.41-1.1c.4-.83.87-1.67,1.69-1.84a3.34,3.34,0,0,0,.92-.17c.27-.15.38-.64.4-1.06a6.051,6.051,0,0,0,1.05.76,4.19,4.19,0,0,0,1,.42c.28.08.57.12.74-.05a.72.72,0,0,0,.2-.52,3.35,3.35,0,0,0-1.11-2.41,3,3,0,0,1-1-1,.76.76,0,0,1,0-.77.59.59,0,0,1,.56-.21,2.31,2.31,0,0,1,1,.32,5,5,0,0,1,.49.35,4.27,4.27,0,0,1,1.17,1.79,6.94,6.94,0,0,0,.58,1.88,1.81,1.81,0,0,0,.57.54,1.241,1.241,0,0,0,.4.15,1.2,1.2,0,0,0,.82-.19.91.91,0,0,0,.53-.92,2.47,2.47,0,0,0-.5-1.13,9.569,9.569,0,0,0-.83-.95,14.27,14.27,0,0,1-2.14-3.07c-.37-.72-.69-1.46-1.08-2.18a8.329,8.329,0,0,0-1.79-2.3,4.632,4.632,0,0,0-.65-.47,2.07,2.07,0,0,0-1.4-.32.7.7,0,0,1-.5,0,3.57,3.57,0,0,1-.82-1,4.84,4.84,0,0,0-1.48-1.41c-.45-.26-.84-.32-1,0s.09,1.15.19,1.76a1.88,1.88,0,0,1-.83,2.07.48.48,0,0,0-.23.19c-.14.33.29.94.47,1.45s.09,1-.21,1.07a.67.67,0,0,1-.55-.09,1.69,1.69,0,0,1-.51-.49c-.57-.84-.41-1.9-1-2.77-.37-.58-.94-.87-1.37-1.39a4.18,4.18,0,0,1-.84-2.43,3.14,3.14,0,0,1,.42-2,1.25,1.25,0,0,1,1.67-.23l.5.33a4.579,4.579,0,0,0,.54.36c.35.18.74.18.8-.18a1.56,1.56,0,0,0,0-.52,3.58,3.58,0,0,1,0-1.59c.14-.38.51-.56,1-.24a2.21,2.21,0,0,1,.73,1.39,1.94,1.94,0,0,1-.26,1.17.74.74,0,0,0-.14.34,1.35,1.35,0,0,0,.31.8,3.079,3.079,0,0,0,.62.58,8.828,8.828,0,0,0,1,.67,2,2,0,0,0,1.44.36.41.41,0,0,0,.33-.27,2.51,2.51,0,0,0,.05-.74c0-.7.51-1,.7-1.59a3.18,3.18,0,0,0-.27-2.1,4.14,4.14,0,0,0-1.52-1.76,3.67,3.67,0,0,0-1.16-.41,4,4,0,0,1-1.25-.47,2,2,0,0,1-.61-.6,5.76,5.76,0,0,1-.39-1,1.54,1.54,0,0,0-.6-.8c-.24-.08-.38.12-.48.31a2.731,2.731,0,0,0-.33.84c-.11.64.09,1.48,0,2.11-.06.26-.25.47-.56.28a1.3,1.3,0,0,1-.28-.4,2.3,2.3,0,0,1-.23-1.07c0-.5.28-.94,0-1.5a1.15,1.15,0,0,0-.44-.48.63.63,0,0,0-.6-.05,1.6,1.6,0,0,0-.5,1,2,2,0,0,0-.5-.79l-.21-.23a1,1,0,0,1-.08-.41,2.07,2.07,0,0,0-.8-1.3l-.15-.1a1.14,1.14,0,0,0-.93-.13c-.5.14-.82.74-.59,1.54.18.63.66,1.34.56,1.84a1.56,1.56,0,0,0-.27-.2c-.41-.24-.79-.12-.79.38l-.15-.07a5,5,0,0,1-1.54-2,8.25,8.25,0,0,0-1.52-2.37c-.44-.38-.93-.55-1.37-.93-.29.34-.57.7-.83,1.06a1.768,1.768,0,0,0-.12.17l-.09.11-.17.24a25.768,25.768,0,0,0-1.75,2.95c-.07.49-.15,1-.21,1.47a19.8,19.8,0,0,0-.26,4.93,46.706,46.706,0,0,0,1.05,5.07c.38,1.7.92,4,.32,5a4,4,0,0,0-.58,1.35,3.15,3.15,0,0,0,.26,1.88,23.848,23.848,0,0,0,1.32,2c.75,1.38.58,2.75.88,4.16a8.46,8.46,0,0,0,2.2,4,2.66,2.66,0,0,0,.51.39c.33.19.65.23.72-.09a2.655,2.655,0,0,0-.62-1.44,18.622,18.622,0,0,1-2-3.57,2.5,2.5,0,0,1-.21-.75c0-.23.13-.4.33-.31a6.06,6.06,0,0,1,1,2.05,3.54,3.54,0,0,0,1.31,1.52,1.559,1.559,0,0,0,.57.2,1.17,1.17,0,0,1,.51.12,3.688,3.688,0,0,1,.34.25,13.789,13.789,0,0,1,2.94,3.05,23.729,23.729,0,0,1,1.59,3.29,8,8,0,0,0,2,3,3,3,0,0,0,.4.26,14.612,14.612,0,0,0,1.77.72,5.062,5.062,0,0,1,.46.24,8.18,8.18,0,0,1,2.12,1.83c-.92.54-1.32,2-1,3.6.1.52.26,1.06.32,1.56a12,12,0,0,1-.09,2.19,3.88,3.88,0,0,0,.64,2.39c.59.83,1.55,1.32,1.87,2.25.11.33.1.64.2,1a3.57,3.57,0,0,0,1.58,1.87,7,7,0,0,1,1.87,1.37c.87,1,1.08,2.45,1.5,3.71a11.089,11.089,0,0,0,1,2.15,10.16,10.16,0,0,1,1.38,2.51,8.309,8.309,0,0,0,.3,1.45c.29.69,1,1.22,1.18,1.92a4.781,4.781,0,0,1,.13.89,4.6,4.6,0,0,0,1.3,2.3,9,9,0,0,0,1.93,1.39l2.11,1.25c.37.21.8.39.95.1s-.1-.92-.43-1.3a12,12,0,0,0-1.2-1.11Z" fill="#fff"/>
        </g>
        <path id="Path_84" data-name="Path 84" d="M292.08,246.17l6.48,11.22-2.69,1.54-6.49-11.23c-3.22,1.12-7.14.35-11.06-1.91a35.79,35.79,0,0,1-12.43-13.11C259,220.82,259.08,208,266,204c3.45-2,8-1.33,12.48,1.28a35.81,35.81,0,0,1,12.44,13.11C297.28,229.51,297.67,241.44,292.08,246.17Zm-3.95-3.73c5.41-3.09,5.44-13.16.07-22.47a28.21,28.21,0,0,0-9.77-10.29c-3.54-2-7.08-2.54-9.78-1-5.41,3.08-5.44,13.15-.07,22.46a28.08,28.08,0,0,0,9.76,10.28c3.54,2,7.09,2.54,9.79,1" fill="#fff"/>
        <path id="Path_85" data-name="Path 85" d="M299.23,257l19.08,33c1.11,1.92,1.1,4,0,4.63a2.06,2.06,0,0,1-2-.21,5.73,5.73,0,0,1-2-2.12l-19.07-33,.67-.39,2.69-1.54Z" fill="#f0f0f0"/>
        <path id="Path_86" data-name="Path 86" d="M227.69,252.19l1.27,2.95,10.51,6.06-.04,15.5-19.6-11.31.04-14.71.01-.79v-2.21Z" fill="#1d6192"/>
        <path id="Path_87" data-name="Path 87" d="M219.83,269.84l19.6,11.31v-1.74l-19.6-11.31Z" fill="#1d6192"/>
        <path id="Path_88" data-name="Path 88" d="M219.83,271.73v1.74l10.39,5.99v-1.74Z" fill="#1d6192"/>
        <path id="Path_89" data-name="Path 89" d="M219.83,269.84l19.6,11.31v-1.74l-19.6-11.31Z" fill="#fff" opacity="0.2"/>
        <path id="Path_90" data-name="Path 90" d="M219.83,271.73v1.74l10.39,5.99v-1.74Z" fill="#fff" opacity="0.2"/>
        <path id="Path_91" data-name="Path 91" d="M258.32,269.94l1.27,2.94,10.51,6.07-.05,15.5-19.59-11.32.04-14.7v-.79l.01-2.21Z" fill="#1d6192"/>
        <path id="Path_92" data-name="Path 92" d="M250.46,287.58l19.59,11.32v-1.74l-19.59-11.32Z" fill="#1d6192"/>
        <path id="Path_93" data-name="Path 93" d="M250.46,289.47v1.74l10.38,6v-1.74Z" fill="#1d6192"/>
        <path id="Path_94" data-name="Path 94" d="M250.46,287.58l19.59,11.32v-1.74l-19.59-11.32Z" fill="#fff" opacity="0.2"/>
        <path id="Path_95" data-name="Path 95" d="M250.46,289.47v1.74l10.38,6v-1.74Z" fill="#fff" opacity="0.2"/>
        <path id="Path_96" data-name="Path 96" d="M288.94,287.68l1.28,2.95,10.51,6.06-.05,15.5-19.59-11.31.04-14.71v-.79l.01-2.21Z" fill="#1d6192"/>
        <path id="Path_97" data-name="Path 97" d="M281.09,305.33l19.59,11.31V314.9l-19.59-11.31Z" fill="#1d6192"/>
        <path id="Path_98" data-name="Path 98" d="M281.09,307.22v1.74l10.38,5.99v-1.74Z" fill="#1d6192"/>
        <path id="Path_99" data-name="Path 99" d="M281.09,305.33l19.59,11.31V314.9l-19.59-11.31Z" fill="#fff" opacity="0.2"/>
        <path id="Path_100" data-name="Path 100" d="M281.09,307.22v1.74l10.38,5.99v-1.74Z" fill="#fff" opacity="0.2"/>
        <path id="Path_101" data-name="Path 101" d="M319.57,305.43l1.28,2.94,10.5,6.07-.04,15.5-19.6-11.31.05-14.71v-3Z" fill="#1d6192"/>
        <path id="Path_102" data-name="Path 102" d="M311.71,323.07l19.6,11.32v-1.74l-19.6-11.32Z" fill="#1d6192"/>
        <path id="Path_103" data-name="Path 103" d="M311.71,324.96v1.74l10.39,6v-1.74Z" fill="#1d6192"/>
        <path id="Path_104" data-name="Path 104" d="M311.71,323.07l19.6,11.32v-1.74l-19.6-11.32Z" fill="#fff" opacity="0.2"/>
        <path id="Path_105" data-name="Path 105" d="M311.71,324.96v1.74l10.39,6v-1.74Z" fill="#fff" opacity="0.2"/>
        <path id="Path_106" data-name="Path 106" d="M227.69,283.95l1.27,2.94,10.51,6.07-.04,15.5-19.6-11.31.04-14.71.01-.79v-2.21Z" fill="#1d6192"/>
        <path id="Path_107" data-name="Path 107" d="M219.83,301.6l19.6,11.31v-1.74l-19.6-11.31Z" fill="#1d6192"/>
        <path id="Path_108" data-name="Path 108" d="M219.83,303.49v1.74l10.39,5.99v-1.74Z" fill="#1d6192"/>
        <path id="Path_109" data-name="Path 109" d="M219.83,301.6l19.6,11.31v-1.74l-19.6-11.31Z" fill="#fff" opacity="0.2"/>
        <path id="Path_110" data-name="Path 110" d="M219.83,303.49v1.74l10.39,5.99v-1.74Z" fill="#fff" opacity="0.2"/>
        <path id="Path_111" data-name="Path 111" d="M258.32,301.69l1.27,2.95,10.51,6.07-.05,15.5-19.59-11.32.04-14.7v-.8l.01-2.2Z" fill="#1d6192"/>
        <path id="Path_112" data-name="Path 112" d="M250.46,319.34l19.59,11.32v-1.74L250.46,317.6Z" fill="#1d6192"/>
        <path id="Path_113" data-name="Path 113" d="M250.46,321.23v1.74l10.38,6v-1.74Z" fill="#1d6192"/>
        <path id="Path_114" data-name="Path 114" d="M250.46,319.34l19.59,11.32v-1.74L250.46,317.6Z" fill="#fff" opacity="0.2"/>
        <path id="Path_115" data-name="Path 115" d="M250.46,321.23v1.74l10.38,6v-1.74Z" fill="#fff" opacity="0.2"/>
        <path id="Path_116" data-name="Path 116" d="M288.94,319.44l1.28,2.95,10.51,6.06-.05,15.5-19.59-11.31.04-14.71v-.79l.01-2.21Z" fill="#1d6192"/>
        <path id="Path_117" data-name="Path 117" d="M281.09,337.09l19.59,11.31v-1.74l-19.59-11.31Z" fill="#1d6192"/>
        <path id="Path_118" data-name="Path 118" d="M281.09,338.98v1.74l10.38,5.99v-1.74Z" fill="#1d6192"/>
        <path id="Path_119" data-name="Path 119" d="M281.09,337.09l19.59,11.31v-1.74l-19.59-11.31Z" fill="#fff" opacity="0.2"/>
        <path id="Path_120" data-name="Path 120" d="M281.09,338.98v1.74l10.38,5.99v-1.74Z" fill="#fff" opacity="0.2"/>
        <path id="Path_121" data-name="Path 121" d="M319.57,337.19l1.28,2.94,10.5,6.07-.04,15.5-19.6-11.32.05-14.7v-3Z" fill="#1d6192"/>
        <path id="Path_122" data-name="Path 122" d="M311.71,354.83l19.6,11.32v-1.74l-19.6-11.32Z" fill="#1d6192"/>
        <path id="Path_123" data-name="Path 123" d="M311.71,356.72v1.74l10.39,6v-1.74Z" fill="#1d6192"/>
        <path id="Path_124" data-name="Path 124" d="M311.71,354.83l19.6,11.32v-1.74l-19.6-11.32Z" fill="#fff" opacity="0.2"/>
        <path id="Path_125" data-name="Path 125" d="M311.71,356.72v1.74l10.39,6v-1.74Z" fill="#fff" opacity="0.2"/>
        <path id="Path_126" data-name="Path 126" d="M227.69,252.19l-7.81-4.51v2.21l-.01.79-.04,14.71,19.6,11.31.04-15.5-10.51-6.06Z" fill="#fff" opacity="0.3"/>
        <path id="Path_127" data-name="Path 127" d="M239.43,279.41l-19.6-11.31v1.74l19.6,11.31Z" fill="#fff" opacity="0.3"/>
        <path id="Path_128" data-name="Path 128" d="M230.22,277.72l-10.39-5.99v1.74l10.39,5.99Z" fill="#fff" opacity="0.3"/>
        <path id="Path_129" data-name="Path 129" d="M258.32,269.94l-7.81-4.51-.01,2.21v.79l-.04,14.7,19.59,11.32.05-15.5-10.51-6.07Z" fill="#fff" opacity="0.3"/>
        <path id="Path_130" data-name="Path 130" d="M270.05,297.16l-19.59-11.32v1.74l19.59,11.32Z" fill="#fff" opacity="0.3"/>
        <path id="Path_131" data-name="Path 131" d="M260.84,295.47l-10.38-6v1.74l10.38,6Z" fill="#fff" opacity="0.3"/>
        <path id="Path_132" data-name="Path 132" d="M288.94,287.68l-7.8-4.51-.01,2.21v.79l-.04,14.71,19.59,11.31.05-15.5-10.51-6.06Z" fill="#fff" opacity="0.3"/>
        <path id="Path_133" data-name="Path 133" d="M300.68,314.9l-19.59-11.31v1.74l19.59,11.31Z" fill="#fff" opacity="0.3"/>
        <path id="Path_134" data-name="Path 134" d="M291.47,313.21l-10.38-5.99v1.74l10.38,5.99Z" fill="#fff" opacity="0.3"/>
        <path id="Path_135" data-name="Path 135" d="M331.35,314.44l-10.5-6.07-1.28-2.94-7.81-4.51v3l-.05,14.71,19.6,11.31Z" fill="#fff" opacity="0.3"/>
        <path id="Path_136" data-name="Path 136" d="M331.31,332.65l-19.6-11.32v1.74l19.6,11.32Z" fill="#fff" opacity="0.3"/>
        <path id="Path_137" data-name="Path 137" d="M322.1,330.96l-10.39-6v1.74l10.39,6Z" fill="#fff" opacity="0.3"/>
        <path id="Path_138" data-name="Path 138" d="M227.69,283.95l-7.81-4.51v2.21l-.01.79-.04,14.71,19.6,11.31.04-15.5-10.51-6.07Z" fill="#fff" opacity="0.3"/>
        <path id="Path_139" data-name="Path 139" d="M219.83,301.6l19.6,11.31v-1.74l-19.6-11.31Z" fill="#fff" opacity="0.3"/>
        <path id="Path_140" data-name="Path 140" d="M219.83,305.23l10.39,5.99v-1.74l-10.39-5.99Z" fill="#fff" opacity="0.3"/>
        <path id="Path_141" data-name="Path 141" d="M258.32,301.69l-7.81-4.5-.01,2.2v.8l-.04,14.7,19.59,11.32.05-15.5-10.51-6.07Z" fill="#fff" opacity="0.3"/>
        <path id="Path_142" data-name="Path 142" d="M250.46,319.34l19.59,11.32v-1.74L250.46,317.6Z" fill="#fff" opacity="0.3"/>
        <path id="Path_143" data-name="Path 143" d="M250.46,322.97l10.38,6v-1.74l-10.38-6Z" fill="#fff" opacity="0.3"/>
        <path id="Path_144" data-name="Path 144" d="M288.94,319.44l-7.8-4.51-.01,2.21v.79l-.04,14.71,19.59,11.31.05-15.5-10.51-6.06Z" fill="#fff" opacity="0.3"/>
        <path id="Path_145" data-name="Path 145" d="M281.09,337.09l19.59,11.31v-1.74l-19.59-11.31Z" fill="#fff" opacity="0.3"/>
        <path id="Path_146" data-name="Path 146" d="M281.09,340.72l10.38,5.99v-1.74l-10.38-5.99Z" fill="#fff" opacity="0.3"/>
        <path id="Path_147" data-name="Path 147" d="M319.57,337.19l-7.81-4.51v3l-.05,14.7,19.6,11.32.04-15.5-10.5-6.07Z" fill="#fff" opacity="0.3"/>
        <path id="Path_148" data-name="Path 148" d="M311.71,354.83l19.6,11.32v-1.74l-19.6-11.32Z" fill="#fff" opacity="0.3"/>
        <path id="Path_149" data-name="Path 149" d="M311.71,358.46l10.39,6v-1.74l-10.39-6Z" fill="#fff" opacity="0.3"/>
      </g>
      <g id="freepik--earth-globe--inject-33">
        <path id="Path_150" data-name="Path 150" d="M278.22,433.08c0,3.18-2.06,6.36-6.23,8.79-8.36,4.85-21.94,4.85-30.35,0-4.2-2.43-6.31-5.61-6.33-8.79h0v6.36h0c0,3.18,2.13,6.36,6.33,8.78,8.41,4.86,22,4.86,30.35,0,4.17-2.42,6.25-5.6,6.23-8.78h0Z" fill="#1d6192"/>
        <path id="Path_151" data-name="Path 151" d="M241.64,441.87c8.41,4.85,22,4.85,30.35,0,4.17-2.43,6.25-5.61,6.23-8.79s-2.13-6.36-6.33-8.79c-8.41-4.85-22-4.85-30.35,0-4.17,2.43-6.25,5.61-6.23,8.79S237.44,439.44,241.64,441.87Z" fill="#1d6192"/>
        <path id="Path_152" data-name="Path 152" d="M278.22,433.08c0,3.18-2.06,6.36-6.23,8.79-8.36,4.85-21.94,4.85-30.35,0-4.2-2.43-6.31-5.61-6.33-8.79h0v6.36h0c0,3.18,2.13,6.36,6.33,8.78,8.41,4.86,22,4.86,30.35,0,4.17-2.42,6.25-5.6,6.23-8.78h0Z" opacity="0.1"/>
        <path id="Path_153" data-name="Path 153" d="M241.64,441.87c8.41,4.85,22,4.85,30.35,0,4.17-2.43,6.25-5.61,6.23-8.79s-2.13-6.36-6.33-8.79c-8.41-4.85-22-4.85-30.35,0-4.17,2.43-6.25,5.61-6.23,8.79S237.44,439.44,241.64,441.87Z" opacity="0.3"/>
        <path id="Path_154" data-name="Path 154" d="M246,436.15c6,3.46,15.66,3.46,21.6,0,3-1.73,4.45-4,4.44-6.25s-1.52-4.53-4.51-6.26c-6-3.46-15.66-3.46-21.6,0-3,1.73-4.45,4-4.44,6.26S243,434.42,246,436.15Z" opacity="0.2"/>
        <circle id="Ellipse_1" data-name="Ellipse 1" cx="44.32" cy="44.32" r="44.32" transform="translate(194.095 386.014) rotate(-45)" fill="#455a64"/>
        <path id="Path_155" data-name="Path 155" d="M215.79,374.34a27.928,27.928,0,0,0,1.16,4.28c.43,1.42,1,3.31.37,4.63a6.491,6.491,0,0,0-.63,1.61,2.13,2.13,0,0,0,.29,1.66c.38.52,1,.77,1.47,1.24.83.9.64,2.31,1,3.49a4,4,0,0,0,2.44,2.6c.5.18,1.23.13,1.34-.39s-.33-.78-.68-1a8.38,8.38,0,0,1-2.19-2.33,1.28,1.28,0,0,1-.24-.61.47.47,0,0,1,.36-.47c.59.19.73.93,1.08,1.43a1.77,1.77,0,0,0,2.07.61,2.9,2.9,0,0,1,.41-.16,1.32,1.32,0,0,1,.52.05,7.54,7.54,0,0,1,3.25,1.29,11.321,11.321,0,0,1,1.77,2.28,3.75,3.75,0,0,0,2.24,1.7,8.49,8.49,0,0,0,2.39-.25,5,5,0,0,1,2.85.55,4.35,4.35,0,0,0-1.11,4c.1.45.28.88.35,1.33a11.088,11.088,0,0,1-.09,2.15,2.24,2.24,0,0,0,.71,1.94c.65.47,1.72.39,2.07,1.12.12.25.12.55.22.81a1.85,1.85,0,0,0,1.75.93,4.729,4.729,0,0,1,2.06.27c1,.51,1.2,1.75,1.67,2.73a4.721,4.721,0,0,0,1.12,1.49c.57.51,1.28.93,1.53,1.65a5.59,5.59,0,0,0,.34,1.23c.32.5,1.06.64,1.3,1.19a3.9,3.9,0,0,1,.16.77,2.15,2.15,0,0,0,1.44,1.49,6.33,6.33,0,0,0,2.13.27h2.25c.42,0,.94,0,1.12-.42a.84.84,0,0,0-.48-1,7.841,7.841,0,0,0-1.2-.32,2.67,2.67,0,0,1-1.83-1.93c-.06-.29-.07-.59-.16-.88a6.13,6.13,0,0,0-.57-1.11,5,5,0,0,1-.54-3.34c.11-.6.33-1.19.38-1.79a6.75,6.75,0,0,0-.45-2.58,1.08,1.08,0,0,1-.08-.61,1.3,1.3,0,0,1,.49-.58c1.16-1,.6-2.8,0-4.26-.21-.57.17-1.17.48-1.69s.57-1.24.18-1.7a1.4,1.4,0,0,0-1.16-.35,6.051,6.051,0,0,0-1.74.3,3.51,3.51,0,0,1-2.2.36,3.77,3.77,0,0,1-1.36-1.25,1.56,1.56,0,0,0-1.62-.66c-.25.1-.45.31-.72.33a1,1,0,0,1-.78-.46,2,2,0,0,0-.65-.66c-.63-.28-1.4.34-2,0-.29-.13-.46-.42-.69-.64a3.78,3.78,0,0,0-2.3-.67,2.69,2.69,0,0,1-2.12-1.24,7.6,7.6,0,0,0,.17-1.15,1.16,1.16,0,0,0-1.46-.95.62.62,0,0,0-.29.18c-.27.35.13.85.06,1.29s-.73.69-1.26.71a1.75,1.75,0,0,1-.88-.11,2.16,2.16,0,0,1-.71-.67,6.58,6.58,0,0,1-1-1.6,2.28,2.28,0,0,1,0-1.86,1.4,1.4,0,0,1,1.58-.76c.25.07.53.24.75.1s.16-.65.26-1c.16-.53.92-.63,1.41-.37a10.578,10.578,0,0,1,1.28,1.06,6.221,6.221,0,0,1,1,.7c.21.25.38.59.7.65s.67-.31.68-.68a2.06,2.06,0,0,0-.36-1,7,7,0,0,1-1.18-4.79,7.3,7.3,0,0,1,.45-1.29,6,6,0,0,1,1.87-2.7,7.373,7.373,0,0,0,1-.67,2,2,0,0,0,.43-1.24,4.279,4.279,0,0,0,2.22,0,1.41,1.41,0,0,0,.82-.46,1.09,1.09,0,0,0,.21-.61,1.69,1.69,0,0,0-1.23-1.69c-.39-.1-.88-.09-1.11-.42a.72.72,0,0,1,0-.76,1.36,1.36,0,0,1,.61-.5,2.54,2.54,0,0,1,1.69-.2,2,2,0,0,1,1.29,1.06c.22.5.22,1.14.65,1.48a1.1,1.1,0,0,0,1.07.13,2.48,2.48,0,0,0,.91-.64,1.51,1.51,0,0,0,.57-1.17,1.19,1.19,0,0,0-.55-.82,6,6,0,0,0-.92-.44,6.74,6.74,0,0,1-2.37-1.76c-.41-.48-.76-1-1.19-1.49a4,4,0,0,0-2-1.22,2.79,2.79,0,0,0-2.25.38,1.341,1.341,0,0,1-.43.25c-.39.09-.72-.28-1-.53-.73-.58-2.36-.83-2.73,0-.21.5.1,1.05.21,1.58a2.76,2.76,0,0,1-.91,2.45,1,1,0,0,0-.24.3c-.16.4.32.75.52,1.13a.924.924,0,0,1-1.4,1.15c-.64-.49-.46-1.6-1.07-2.13-.41-.35-1-.31-1.51-.57a2.2,2.2,0,0,1-.94-1.86,3.76,3.76,0,0,1,.45-2.19,2.32,2.32,0,0,1,1.85-1.15c.38,0,.77.1,1.15.08a.89.89,0,0,0,.88-.61,1.17,1.17,0,0,0,0-.49,2.94,2.94,0,0,1,0-1.5,1.12,1.12,0,0,1,1.14-.81,1.07,1.07,0,0,1,.81.93,2.17,2.17,0,0,1-.29,1.26,1.331,1.331,0,0,0-.14.41.66.66,0,0,0,.34.59,1.76,1.76,0,0,0,.68.22,3.46,3.46,0,0,0,2.67-.35,1.1,1.1,0,0,0,.36-.44,3,3,0,0,0,.05-.74c0-.69.56-1.25.77-1.91a2.1,2.1,0,0,0-2-2.72c-.91,0-1.76.56-2.66.5a1.08,1.08,0,0,1-.68-.24,2.43,2.43,0,0,1-.43-.73c-.14-.25-.39-.49-.67-.44s-.41.32-.53.56a4.32,4.32,0,0,0-.35,1c-.12.67.1,1.37,0,2-.06.3-.3.64-.61.57a.5.5,0,0,1-.3-.23,1.34,1.34,0,0,1-.27-.89c0-.49.3-1.06,0-1.44a.81.81,0,0,0-1.15.08,2.49,2.49,0,0,0-.54,1.24,1,1,0,0,0-.56-.48.61.61,0,0,1-.23-.11.62.62,0,0,1-.1-.34,1,1,0,0,0-.88-.81,1.63,1.63,0,0,0-1.19.37,1.65,1.65,0,0,0-.65,1.82c.2.5.74.92.63,1.45a.85.85,0,0,0-1.16.75,2.29,2.29,0,0,1-1.88-1A3.67,3.67,0,0,0,221,362.1c-.49-.13-1,0-1.51-.13a44.244,44.244,0,0,0-3.25,6c-.08.51-.16,1-.23,1.52A17.71,17.71,0,0,0,215.79,374.34Z" fill="#1d6192"/>
        <path id="Path_156" data-name="Path 156" d="M248.74,355a1.36,1.36,0,0,1-.48-1.08,9.719,9.719,0,0,1,.12-1.21,4.92,4.92,0,0,0-.56-2.82,2.35,2.35,0,0,0-.82-.92,2.7,2.7,0,0,0-1.36-.23c-2.35,0-4.71.41-7,0a12.676,12.676,0,0,0-2-.28c-1.55,0-3.64,1-4.1,2.59a1.39,1.39,0,0,0,.61,1.64c1.07.68,1.62-.12,2.5-.6s2,0,2.91-.34a2.051,2.051,0,0,1,.62-.17c.54,0,.86.66.79,1.19a7.379,7.379,0,0,1-.61,1.5,1.35,1.35,0,0,0,.18,1.5c.09.09.22.16.26.28s-.25.41-.48.54a1.4,1.4,0,0,0-.61,1.72c.23.54.77.88,1,1.4a13.861,13.861,0,0,0,.5,1.46,2.65,2.65,0,0,0,2,.89,2,2,0,0,0,.85,1.39,1.51,1.51,0,0,0,1.69-.34,3.17,3.17,0,0,0,.77-1.64,6.9,6.9,0,0,1,.32-1.36,3.76,3.76,0,0,1,2.23-1.85,5.19,5.19,0,0,0,1.82-.95,1.29,1.29,0,0,0,.09-1.83C249.63,355.21,249.11,355.23,248.74,355Z" fill="#1d6192"/>
        <path id="Path_157" data-name="Path 157" d="M291,376a1.38,1.38,0,0,0-.31-.46c-.27-.33-.66-.69-1.07-.56s-.53.83-.56,1.35a3.77,3.77,0,0,1-.68,1.92l-1.09-.19c-.54-1-.15-2.23.24-3.29q.81-2.21,1.63-4.41a5,5,0,0,0,.37-1.41,5.069,5.069,0,0,0-.33-1.88,24,24,0,0,0,1.09-5.8,5.84,5.84,0,0,0-.08-1.45,6.729,6.729,0,0,0-.7-1.66c-.3-.56-.6-1.12-.89-1.68a1.76,1.76,0,0,0-.44-.6,2,2,0,0,0-.53-.25A5.071,5.071,0,0,1,285.5,354c-1.1-1.39-1.76-3.07-3.21-4.11a13.751,13.751,0,0,0-3.84-1.68,4,4,0,0,0-1.71-.29,5.321,5.321,0,0,0-1.53.56,9.14,9.14,0,0,1-3.74.83.83.83,0,0,0-.68.2.61.61,0,0,0,.2.8c.23.19.54.28.79.45-.24.57-1.37.38-1.62.95-.07.16-.05.37-.18.5a.43.43,0,0,1-.31.1c-.55,0-.94-.53-1.17-1s-.46-1.07-1-1.3a1,1,0,0,0-1,.07c-.13.09-.24.21-.38.29a1.42,1.42,0,0,1-.62.16,14.919,14.919,0,0,1-1.89,0,.2.2,0,0,0-.26.18,11,11,0,0,0-.45,2,2.74,2.74,0,0,1-.51,1.52.921.921,0,0,0-.17.22.49.49,0,0,0,0,.24,1.3,1.3,0,0,0,.77,1c.66.28,1.45,0,2.15.18.29.09.59.28.88.16a.64.64,0,0,0,.31-.69,3.469,3.469,0,0,0-.25-.77,2.94,2.94,0,0,1,.28-2.13,1.35,1.35,0,0,0,.63.95c.38.15.84-.07,1.22.1s.51.85.85,1.24a2.146,2.146,0,0,1,.29.32.73.73,0,0,1-.06.74,2.311,2.311,0,0,1-.54.54,11.374,11.374,0,0,0-.88.82,3,3,0,0,1-.53.47.8.8,0,0,1-.67.1,4.76,4.76,0,0,1-.49-.28.77.77,0,0,0-.91.26,1.89,1.89,0,0,0-2.61.73c-.27.56-.27,1.29-.78,1.65s-1.56,0-2.24.35a1,1,0,0,0,.52,1.87c.49,0,.92-.37,1.41-.36a1.15,1.15,0,0,1,.05.61.29.29,0,0,1-.07.16.35.35,0,0,1-.21.12,16.7,16.7,0,0,0-3.41,1,6.939,6.939,0,0,0-1.28,1,.708.708,0,0,0-.17,1.16l1.39,2a2.11,2.11,0,0,0,.44.5c.56.41,1.34.15,2-.11a.71.71,0,0,0,.27-.18.76.76,0,0,0,.07-.52,4,4,0,0,1,1.4-2.74,15.22,15.22,0,0,1,1.87-1.81,1.26,1.26,0,0,1,.56-.29,1.369,1.369,0,0,1,.6.09,15.574,15.574,0,0,1,2,.8,2.091,2.091,0,0,1,.66.43.78.78,0,0,1,.22.72c-.07.25-.31.53-.15.74a.51.51,0,0,0,.36.15,1.831,1.831,0,0,0,.7,0,.86.86,0,0,0,.5-1.11c-.32-.76-1.55-.68-2-1.37-.14-.21-.16-.55.06-.67a.509.509,0,0,1,.25,0,2.75,2.75,0,0,1,1.32.43,1,1,0,0,1,.29.21,1.329,1.329,0,0,1,.23.38,8.78,8.78,0,0,0,1.92,2.57,2.51,2.51,0,0,0,1.34.73c.3,0,.49-.47.39-.75s-.19-.41,0-.5a.2.2,0,0,1,.15,0c.39.05.6.49.94.67s.94,0,1.41.06a.38.38,0,0,1,.16.05.29.29,0,0,1,.08.13l.42,1a.85.85,0,0,0,.16.28.72.72,0,0,0,.36.18c.46.13.95.12,1.39.29a3.05,3.05,0,0,1,1.59,1.91,1.92,1.92,0,0,0-.88,1.62,2.53,2.53,0,0,0,.67,1.62.829.829,0,0,0,.3.23.82.82,0,0,0,.44,0l1.07-.23a.39.39,0,0,1,.3,0,.4.4,0,0,1,.18.27,3.549,3.549,0,0,1,.16,1.29.88.88,0,0,1-.15.48,1,1,0,0,1-.77.32q-4.1.48-8.2.8c-.77-.47-1.35-1-2.12-1.44a1.78,1.78,0,0,0-.58-.26,2,2,0,0,0-.82.12c-1.7.45-3.51.14-5.25.44a1.62,1.62,0,0,0-.71.27c-.59.48-.3,1.44-.62,2.13-.53,1.13-2.39,1-3,2.08a2.66,2.66,0,0,0,0,2l.39,1.44c-.35.95-.83,2.05-1.11,3a1,1,0,0,0,0,.48.8.8,0,0,0,.32.41,3.881,3.881,0,0,0,1.44.67,2.689,2.689,0,0,1,.78.23c.54.3.7,1,1.08,1.5a2.53,2.53,0,0,0,1.7.86,7.923,7.923,0,0,0,1.94-.12l3.24-.49a1.92,1.92,0,0,1,1.14.06,1.32,1.32,0,0,1,.58.61,9.16,9.16,0,0,1,.55,3.06c.19,1.33.83,2.57,1.05,3.89s-1.1,2.76-1.58,4a3.29,3.29,0,0,0-.27,1.11,3.19,3.19,0,0,0,.31,1.24l1.32,3.27a1.1,1.1,0,0,0,.24.42,1.171,1.171,0,0,0,.48.22A8.246,8.246,0,0,0,275,408a.71.71,0,0,0,.41-.06.78.78,0,0,0,.28-.34,26,26,0,0,1,4.33-5.87,4.6,4.6,0,0,0,1.15-1.49,4,4,0,0,0,.23-1.14c.13-1.34.27-2.68.41-4s1.72-2.53,2.61-3.64a5.66,5.66,0,0,0,1.58-2.91c.09-1.21-.71-2.36-.63-3.57l-1.8-1.51a4.13,4.13,0,0,1-1.71-2.38,4,4,0,0,1,.12-1.32c.16-.81.33-1.63.5-2.45a1.62,1.62,0,0,1,.83.49l1.88,1.7a.74.74,0,0,1,.22.28.61.61,0,0,1,0,.4c-.23.84-.86,1.66-.63,2.5A2.64,2.64,0,0,0,286,384a1.37,1.37,0,0,0,.7.28,1.26,1.26,0,0,0,.66-.26,9.16,9.16,0,0,0,2.54-2.5,2.79,2.79,0,0,0,.42-.8c.27-.9-.19-1.91.12-2.8C290.63,377.26,291.25,376.66,291,376Z" fill="#1d6192"/>
        <path id="Path_158" data-name="Path 158" d="M286.86,396a1.17,1.17,0,0,0-.75.53,1.49,1.49,0,0,1-1.16.69l-1.14.18a.82.82,0,0,0-.34.09.76.76,0,0,0-.34.59v.72c-.07,1.22-1.26,2.07-1.65,3.23a.569.569,0,0,0,0,.26.64.64,0,0,0,.18.29.79.79,0,0,0,.45.3.81.81,0,0,0,.31-.06l.93-.32a4.629,4.629,0,0,0,1.19-.56,2.21,2.21,0,0,0,.88-1.51,7.072,7.072,0,0,1,.13-1.67,3.36,3.36,0,0,1,.83-1.05C286.53,397.53,287.91,395.92,286.86,396Z" fill="#1d6192"/>
        <path id="Path_159" data-name="Path 159" d="M246.28,368a1,1,0,0,0-.3-.17l-.45-.16a.93.93,0,0,1-.51-.36,1,1,0,0,0-.3-.29.79.79,0,0,0-1,.23,1,1,0,0,0-.09.22,2.52,2.52,0,0,0-.06.47.41.41,0,0,0,0,.19.48.48,0,0,0,.13.16,1.16,1.16,0,0,0,.77.21,5.618,5.618,0,0,1,.82,0,.491.491,0,0,1,.16.05.688.688,0,0,1,.13.11.44.44,0,0,0,.4.06,1.269,1.269,0,0,0,.36-.2s.08-.05.09-.1a.27.27,0,0,0,0-.09.75.75,0,0,0-.15-.33Z" fill="#1d6192"/>
        <g id="Group_5" data-name="Group 5" opacity="0.4">
          <path id="Path_160" data-name="Path 160" d="M215.79,374.34a27.928,27.928,0,0,0,1.16,4.28c.43,1.42,1,3.31.37,4.63a6.491,6.491,0,0,0-.63,1.61,2.13,2.13,0,0,0,.29,1.66c.38.52,1,.77,1.47,1.24.83.9.64,2.31,1,3.49a4,4,0,0,0,2.44,2.6c.5.18,1.23.13,1.34-.39s-.33-.78-.68-1a8.38,8.38,0,0,1-2.19-2.33,1.28,1.28,0,0,1-.24-.61.47.47,0,0,1,.36-.47c.59.19.73.93,1.08,1.43a1.77,1.77,0,0,0,2.07.61,2.9,2.9,0,0,1,.41-.16,1.32,1.32,0,0,1,.52.05,7.54,7.54,0,0,1,3.25,1.29,11.321,11.321,0,0,1,1.77,2.28,3.75,3.75,0,0,0,2.24,1.7,8.49,8.49,0,0,0,2.39-.25,5,5,0,0,1,2.85.55,4.35,4.35,0,0,0-1.11,4c.1.45.28.88.35,1.33a11.088,11.088,0,0,1-.09,2.15,2.24,2.24,0,0,0,.71,1.94c.65.47,1.72.39,2.07,1.12.12.25.12.55.22.81a1.85,1.85,0,0,0,1.75.93,4.729,4.729,0,0,1,2.06.27c1,.51,1.2,1.75,1.67,2.73a4.721,4.721,0,0,0,1.12,1.49c.57.51,1.28.93,1.53,1.65a5.59,5.59,0,0,0,.34,1.23c.32.5,1.06.64,1.3,1.19a3.9,3.9,0,0,1,.16.77,2.15,2.15,0,0,0,1.44,1.49,6.33,6.33,0,0,0,2.13.27h2.25c.42,0,.94,0,1.12-.42a.84.84,0,0,0-.48-1,7.841,7.841,0,0,0-1.2-.32,2.67,2.67,0,0,1-1.83-1.93c-.06-.29-.07-.59-.16-.88a6.13,6.13,0,0,0-.57-1.11,5,5,0,0,1-.54-3.34c.11-.6.33-1.19.38-1.79a6.75,6.75,0,0,0-.45-2.58,1.08,1.08,0,0,1-.08-.61,1.3,1.3,0,0,1,.49-.58c1.16-1,.6-2.8,0-4.26-.21-.57.17-1.17.48-1.69s.57-1.24.18-1.7a1.4,1.4,0,0,0-1.16-.35,6.051,6.051,0,0,0-1.74.3,3.51,3.51,0,0,1-2.2.36,3.77,3.77,0,0,1-1.36-1.25,1.56,1.56,0,0,0-1.62-.66c-.25.1-.45.31-.72.33a1,1,0,0,1-.78-.46,2,2,0,0,0-.65-.66c-.63-.28-1.4.34-2,0-.29-.13-.46-.42-.69-.64a3.78,3.78,0,0,0-2.3-.67,2.69,2.69,0,0,1-2.12-1.24,7.6,7.6,0,0,0,.17-1.15,1.16,1.16,0,0,0-1.46-.95.62.62,0,0,0-.29.18c-.27.35.13.85.06,1.29s-.73.69-1.26.71a1.75,1.75,0,0,1-.88-.11,2.16,2.16,0,0,1-.71-.67,6.58,6.58,0,0,1-1-1.6,2.28,2.28,0,0,1,0-1.86,1.4,1.4,0,0,1,1.58-.76c.25.07.53.24.75.1s.16-.65.26-1c.16-.53.92-.63,1.41-.37a10.578,10.578,0,0,1,1.28,1.06,6.221,6.221,0,0,1,1,.7c.21.25.38.59.7.65s.67-.31.68-.68a2.06,2.06,0,0,0-.36-1,7,7,0,0,1-1.18-4.79,7.3,7.3,0,0,1,.45-1.29,6,6,0,0,1,1.87-2.7,7.373,7.373,0,0,0,1-.67,2,2,0,0,0,.43-1.24,4.279,4.279,0,0,0,2.22,0,1.41,1.41,0,0,0,.82-.46,1.09,1.09,0,0,0,.21-.61,1.69,1.69,0,0,0-1.23-1.69c-.39-.1-.88-.09-1.11-.42a.72.72,0,0,1,0-.76,1.36,1.36,0,0,1,.61-.5,2.54,2.54,0,0,1,1.69-.2,2,2,0,0,1,1.29,1.06c.22.5.22,1.14.65,1.48a1.1,1.1,0,0,0,1.07.13,2.48,2.48,0,0,0,.91-.64,1.51,1.51,0,0,0,.57-1.17,1.19,1.19,0,0,0-.55-.82,6,6,0,0,0-.92-.44,6.74,6.74,0,0,1-2.37-1.76c-.41-.48-.76-1-1.19-1.49a4,4,0,0,0-2-1.22,2.79,2.79,0,0,0-2.25.38,1.341,1.341,0,0,1-.43.25c-.39.09-.72-.28-1-.53-.73-.58-2.36-.83-2.73,0-.21.5.1,1.05.21,1.58a2.76,2.76,0,0,1-.91,2.45,1,1,0,0,0-.24.3c-.16.4.32.75.52,1.13a.924.924,0,0,1-1.4,1.15c-.64-.49-.46-1.6-1.07-2.13-.41-.35-1-.31-1.51-.57a2.2,2.2,0,0,1-.94-1.86,3.76,3.76,0,0,1,.45-2.19,2.32,2.32,0,0,1,1.85-1.15c.38,0,.77.1,1.15.08a.89.89,0,0,0,.88-.61,1.17,1.17,0,0,0,0-.49,2.94,2.94,0,0,1,0-1.5,1.12,1.12,0,0,1,1.14-.81,1.07,1.07,0,0,1,.81.93,2.17,2.17,0,0,1-.29,1.26,1.331,1.331,0,0,0-.14.41.66.66,0,0,0,.34.59,1.76,1.76,0,0,0,.68.22,3.46,3.46,0,0,0,2.67-.35,1.1,1.1,0,0,0,.36-.44,3,3,0,0,0,.05-.74c0-.69.56-1.25.77-1.91a2.1,2.1,0,0,0-2-2.72c-.91,0-1.76.56-2.66.5a1.08,1.08,0,0,1-.68-.24,2.43,2.43,0,0,1-.43-.73c-.14-.25-.39-.49-.67-.44s-.41.32-.53.56a4.32,4.32,0,0,0-.35,1c-.12.67.1,1.37,0,2-.06.3-.3.64-.61.57a.5.5,0,0,1-.3-.23,1.34,1.34,0,0,1-.27-.89c0-.49.3-1.06,0-1.44a.81.81,0,0,0-1.15.08,2.49,2.49,0,0,0-.54,1.24,1,1,0,0,0-.56-.48.61.61,0,0,1-.23-.11.62.62,0,0,1-.1-.34,1,1,0,0,0-.88-.81,1.63,1.63,0,0,0-1.19.37,1.65,1.65,0,0,0-.65,1.82c.2.5.74.92.63,1.45a.85.85,0,0,0-1.16.75,2.29,2.29,0,0,1-1.88-1A3.67,3.67,0,0,0,221,362.1c-.49-.13-1,0-1.51-.13a44.244,44.244,0,0,0-3.25,6c-.08.51-.16,1-.23,1.52A17.71,17.71,0,0,0,215.79,374.34Z" fill="#fff"/>
          <path id="Path_161" data-name="Path 161" d="M248.74,355a1.36,1.36,0,0,1-.48-1.08,9.719,9.719,0,0,1,.12-1.21,4.92,4.92,0,0,0-.56-2.82,2.35,2.35,0,0,0-.82-.92,2.7,2.7,0,0,0-1.36-.23c-2.35,0-4.71.41-7,0a12.676,12.676,0,0,0-2-.28c-1.55,0-3.64,1-4.1,2.59a1.39,1.39,0,0,0,.61,1.64c1.07.68,1.62-.12,2.5-.6s2,0,2.91-.34a2.051,2.051,0,0,1,.62-.17c.54,0,.86.66.79,1.19a7.379,7.379,0,0,1-.61,1.5,1.35,1.35,0,0,0,.18,1.5c.09.09.22.16.26.28s-.25.41-.48.54a1.4,1.4,0,0,0-.61,1.72c.23.54.77.88,1,1.4a13.861,13.861,0,0,0,.5,1.46,2.65,2.65,0,0,0,2,.89,2,2,0,0,0,.85,1.39,1.51,1.51,0,0,0,1.69-.34,3.17,3.17,0,0,0,.77-1.64,6.9,6.9,0,0,1,.32-1.36,3.76,3.76,0,0,1,2.23-1.85,5.19,5.19,0,0,0,1.82-.95,1.29,1.29,0,0,0,.09-1.83C249.63,355.21,249.11,355.23,248.74,355Z" fill="#fff"/>
          <path id="Path_162" data-name="Path 162" d="M291,376a1.38,1.38,0,0,0-.31-.46c-.27-.33-.66-.69-1.07-.56s-.53.83-.56,1.35a3.77,3.77,0,0,1-.68,1.92l-1.09-.19c-.54-1-.15-2.23.24-3.29q.81-2.21,1.63-4.41a5,5,0,0,0,.37-1.41,5.069,5.069,0,0,0-.33-1.88,24,24,0,0,0,1.09-5.8,5.84,5.84,0,0,0-.08-1.45,6.729,6.729,0,0,0-.7-1.66c-.3-.56-.6-1.12-.89-1.68a1.76,1.76,0,0,0-.44-.6,2,2,0,0,0-.53-.25A5.071,5.071,0,0,1,285.5,354c-1.1-1.39-1.76-3.07-3.21-4.11a13.751,13.751,0,0,0-3.84-1.68,4,4,0,0,0-1.71-.29,5.321,5.321,0,0,0-1.53.56,9.14,9.14,0,0,1-3.74.83.83.83,0,0,0-.68.2.61.61,0,0,0,.2.8c.23.19.54.28.79.45-.24.57-1.37.38-1.62.95-.07.16-.05.37-.18.5a.43.43,0,0,1-.31.1c-.55,0-.94-.53-1.17-1s-.46-1.07-1-1.3a1,1,0,0,0-1,.07c-.13.09-.24.21-.38.29a1.42,1.42,0,0,1-.62.16,14.919,14.919,0,0,1-1.89,0,.2.2,0,0,0-.26.18,11,11,0,0,0-.45,2,2.74,2.74,0,0,1-.51,1.52.921.921,0,0,0-.17.22.49.49,0,0,0,0,.24,1.3,1.3,0,0,0,.77,1c.66.28,1.45,0,2.15.18.29.09.59.28.88.16a.64.64,0,0,0,.31-.69,3.469,3.469,0,0,0-.25-.77,2.94,2.94,0,0,1,.28-2.13,1.35,1.35,0,0,0,.63.95c.38.15.84-.07,1.22.1s.51.85.85,1.24a2.146,2.146,0,0,1,.29.32.73.73,0,0,1-.06.74,2.311,2.311,0,0,1-.54.54,11.374,11.374,0,0,0-.88.82,3,3,0,0,1-.53.47.8.8,0,0,1-.67.1,4.76,4.76,0,0,1-.49-.28.77.77,0,0,0-.91.26,1.89,1.89,0,0,0-2.61.73c-.27.56-.27,1.29-.78,1.65s-1.56,0-2.24.35a1,1,0,0,0,.52,1.87c.49,0,.92-.37,1.41-.36a1.15,1.15,0,0,1,.05.61.29.29,0,0,1-.07.16.35.35,0,0,1-.21.12,16.7,16.7,0,0,0-3.41,1,6.939,6.939,0,0,0-1.28,1,.708.708,0,0,0-.17,1.16l1.39,2a2.11,2.11,0,0,0,.44.5c.56.41,1.34.15,2-.11a.71.71,0,0,0,.27-.18.76.76,0,0,0,.07-.52,4,4,0,0,1,1.4-2.74,15.22,15.22,0,0,1,1.87-1.81,1.26,1.26,0,0,1,.56-.29,1.369,1.369,0,0,1,.6.09,15.574,15.574,0,0,1,2,.8,2.091,2.091,0,0,1,.66.43.78.78,0,0,1,.22.72c-.07.25-.31.53-.15.74a.51.51,0,0,0,.36.15,1.831,1.831,0,0,0,.7,0,.86.86,0,0,0,.5-1.11c-.32-.76-1.55-.68-2-1.37-.14-.21-.16-.55.06-.67a.509.509,0,0,1,.25,0,2.75,2.75,0,0,1,1.32.43,1,1,0,0,1,.29.21,1.329,1.329,0,0,1,.23.38,8.78,8.78,0,0,0,1.92,2.57,2.51,2.51,0,0,0,1.34.73c.3,0,.49-.47.39-.75s-.19-.41,0-.5a.2.2,0,0,1,.15,0c.39.05.6.49.94.67s.94,0,1.41.06a.38.38,0,0,1,.16.05.29.29,0,0,1,.08.13l.42,1a.85.85,0,0,0,.16.28.72.72,0,0,0,.36.18c.46.13.95.12,1.39.29a3.05,3.05,0,0,1,1.59,1.91,1.92,1.92,0,0,0-.88,1.62,2.53,2.53,0,0,0,.67,1.62.829.829,0,0,0,.3.23.82.82,0,0,0,.44,0l1.07-.23a.39.39,0,0,1,.3,0,.4.4,0,0,1,.18.27,3.549,3.549,0,0,1,.16,1.29.88.88,0,0,1-.15.48,1,1,0,0,1-.77.32q-4.1.48-8.2.8c-.77-.47-1.35-1-2.12-1.44a1.78,1.78,0,0,0-.58-.26,2,2,0,0,0-.82.12c-1.7.45-3.51.14-5.25.44a1.62,1.62,0,0,0-.71.27c-.59.48-.3,1.44-.62,2.13-.53,1.13-2.39,1-3,2.08a2.66,2.66,0,0,0,0,2l.39,1.44c-.35.95-.83,2.05-1.11,3a1,1,0,0,0,0,.48.8.8,0,0,0,.32.41,3.881,3.881,0,0,0,1.44.67,2.689,2.689,0,0,1,.78.23c.54.3.7,1,1.08,1.5a2.53,2.53,0,0,0,1.7.86,7.923,7.923,0,0,0,1.94-.12l3.24-.49a1.92,1.92,0,0,1,1.14.06,1.32,1.32,0,0,1,.58.61,9.16,9.16,0,0,1,.55,3.06c.19,1.33.83,2.57,1.05,3.89s-1.1,2.76-1.58,4a3.29,3.29,0,0,0-.27,1.11,3.19,3.19,0,0,0,.31,1.24l1.32,3.27a1.1,1.1,0,0,0,.24.42,1.171,1.171,0,0,0,.48.22A8.246,8.246,0,0,0,275,408a.71.71,0,0,0,.41-.06.78.78,0,0,0,.28-.34,26,26,0,0,1,4.33-5.87,4.6,4.6,0,0,0,1.15-1.49,4,4,0,0,0,.23-1.14c.13-1.34.27-2.68.41-4s1.72-2.53,2.61-3.64a5.66,5.66,0,0,0,1.58-2.91c.09-1.21-.71-2.36-.63-3.57l-1.8-1.51a4.13,4.13,0,0,1-1.71-2.38,4,4,0,0,1,.12-1.32c.16-.81.33-1.63.5-2.45a1.62,1.62,0,0,1,.83.49l1.88,1.7a.74.74,0,0,1,.22.28.61.61,0,0,1,0,.4c-.23.84-.86,1.66-.63,2.5A2.64,2.64,0,0,0,286,384a1.37,1.37,0,0,0,.7.28,1.26,1.26,0,0,0,.66-.26,9.16,9.16,0,0,0,2.54-2.5,2.79,2.79,0,0,0,.42-.8c.27-.9-.19-1.91.12-2.8C290.63,377.26,291.25,376.66,291,376Z" fill="#fff"/>
          <path id="Path_163" data-name="Path 163" d="M286.86,396a1.17,1.17,0,0,0-.75.53,1.49,1.49,0,0,1-1.16.69l-1.14.18a.82.82,0,0,0-.34.09.76.76,0,0,0-.34.59v.72c-.07,1.22-1.26,2.07-1.65,3.23a.569.569,0,0,0,0,.26.64.64,0,0,0,.18.29.79.79,0,0,0,.45.3.81.81,0,0,0,.31-.06l.93-.32a4.629,4.629,0,0,0,1.19-.56,2.21,2.21,0,0,0,.88-1.51,7.072,7.072,0,0,1,.13-1.67,3.36,3.36,0,0,1,.83-1.05C286.53,397.53,287.91,395.92,286.86,396Z" fill="#fff"/>
          <path id="Path_164" data-name="Path 164" d="M246.28,368a1,1,0,0,0-.3-.17l-.45-.16a.93.93,0,0,1-.51-.36,1,1,0,0,0-.3-.29.79.79,0,0,0-1,.23,1,1,0,0,0-.09.22,2.52,2.52,0,0,0-.06.47.41.41,0,0,0,0,.19.48.48,0,0,0,.13.16,1.16,1.16,0,0,0,.77.21,5.618,5.618,0,0,1,.82,0,.491.491,0,0,1,.16.05.688.688,0,0,1,.13.11.44.44,0,0,0,.4.06,1.269,1.269,0,0,0,.36-.2s.08-.05.09-.1a.27.27,0,0,0,0-.09.75.75,0,0,0-.15-.33Z" fill="#fff"/>
        </g>
        <path id="Path_165" data-name="Path 165" d="M220.37,372.07a48.461,48.461,0,0,1,2.11-14.13,44.31,44.31,0,0,0,66.86,58.12,48.5,48.5,0,0,1-69-44Z" opacity="0.22"/>
      </g>
      <g id="freepik--Character--inject-33">
        <path id="Path_166" data-name="Path 166" d="M226,196.6l.21-.34Z" fill="#232d32"/>
        <path id="Path_167" data-name="Path 167" d="M224.76,198.72Z" fill="#1d6192"/>
        <path id="Path_168" data-name="Path 168" d="M224.76,198.72c.37-.73.77-1.44,1.18-2.12C225.53,197.28,225.13,198,224.76,198.72Z" fill="#1d6192"/>
        <path id="Path_169" data-name="Path 169" d="M175.91,175.67l4.64-3.45a9.21,9.21,0,0,0,3.17-4.24l1.1-3a11.43,11.43,0,0,1,3.9-5.2,38.909,38.909,0,0,0,7.13-6.86h0a4.3,4.3,0,0,1,.31,5.43,29.776,29.776,0,0,1-2.85,3.26l2.56.18a9,9,0,0,0,5.28-1.29l6.5-4a1.23,1.23,0,0,1,1.88,1,28.279,28.279,0,0,1-1.87,9.41,10.61,10.61,0,0,1-6.21,6.28c-3.45,1.32-6.81,2.47-8.73,3.11a11,11,0,0,0-3.05,1.59L182.83,183Z" fill="#ffa8a7"/>
        <path id="Path_170" data-name="Path 170" d="M181,171.18,175.09,175a11.46,11.46,0,0,0,7.56,9.81l5.38-5.09S182.84,178.89,181,171.18Z" fill="#1d6192"/>
        <path id="Path_171" data-name="Path 171" d="M181,171.18,175.09,175a11.46,11.46,0,0,0,7.56,9.81l5.38-5.09S182.84,178.89,181,171.18Z" fill="#fff" opacity="0.6"/>
        <path id="Path_172" data-name="Path 172" d="M177.27,180.77a11.66,11.66,0,0,1-2.18-5.8l-18.36,11.85-10.84-30.33a11.43,11.43,0,0,0-9.31-7.49l-5.29-.69,4.94,35.5,8.44,16.93a11.27,11.27,0,0,0,17.23,3.68l20.75-19.64a11.72,11.72,0,0,1-5.38-4.01Z" fill="#1d6192"/>
        <path id="Path_173" data-name="Path 173" d="M177.27,180.77a11.66,11.66,0,0,1-2.18-5.8l-18.36,11.85-10.84-30.33a11.43,11.43,0,0,0-9.31-7.49l-5.29-.69,4.94,35.5,8.44,16.93a11.27,11.27,0,0,0,17.23,3.68l20.75-19.64a11.72,11.72,0,0,1-5.38-4.01Z" fill="#fff" opacity="0.4"/>
        <path id="Path_174" data-name="Path 174" d="M156.73,186.82l-6.97,5.21,5.03-10.62Z" opacity="0.2"/>
        <path id="Path_175" data-name="Path 175" d="M154.74,379.28a11.46,11.46,0,0,1-8.59,3.15,25.861,25.861,0,0,1-9.09-2.29c-2.9-1.19-6.55-4.54-9.69-4.47a76.129,76.129,0,0,1-9.19-.63,47.74,47.74,0,0,1,1.31-12.44l14.66-.39c4,5.42,11.66,9.93,17.49,11.62a5.14,5.14,0,0,1,3.61,3.86.28.28,0,0,1,0,.09,6.19,6.19,0,0,1-.51,1.5Z" fill="#455a64"/>
        <path id="Path_176" data-name="Path 176" d="M127.37,375.67c3.14-.07,6.79,3.28,9.69,4.47a25.859,25.859,0,0,0,9.09,2.29,11.46,11.46,0,0,0,8.59-3.15,6.189,6.189,0,0,0,.5-1.5.28.28,0,0,0,0-.09,4.58,4.58,0,0,1,0,1.95,6.19,6.19,0,0,1-.5,1.5,11.46,11.46,0,0,1-8.59,3.15,25.86,25.86,0,0,1-9.09-2.29c-2.9-1.19-6.55-4.53-9.69-4.47a69.875,69.875,0,0,1-9-.52c-.08-.66-.12-1.32-.15-2a76.138,76.138,0,0,0,9.15.66Z" fill="#263238"/>
        <path id="Path_177" data-name="Path 177" d="M86,380.65a22.089,22.089,0,0,0,.44,4.45,10.29,10.29,0,0,0,4.07,6.48,13,13,0,0,0,6.46,1.72,14.2,14.2,0,0,0,5.91-.61,6.66,6.66,0,0,0,3.46-2.82s0,.05,0,.08a6.21,6.21,0,0,1-4,4.14,14.37,14.37,0,0,1-5.91.61,13.12,13.12,0,0,1-6.49-1.7,10.3,10.3,0,0,1-4.06-6.49,21.36,21.36,0,0,1-.44-4.44,7.53,7.53,0,0,0-2.39-5.44,9.071,9.071,0,0,1-1-1.07,2.64,2.64,0,0,1-.63-1.94,6.943,6.943,0,0,1,.08-.81c.54.62,1.81,2.12,2.13,2.42A7.5,7.5,0,0,1,86,380.65Z" fill="#263238"/>
        <path id="Path_178" data-name="Path 178" d="M97.19,365.16a16.33,16.33,0,0,0,1.14,9,33.941,33.941,0,0,0,4.78,7.85,23.667,23.667,0,0,1,2.49,3.64,6.53,6.53,0,0,1,.71,4.21,6.66,6.66,0,0,1-3.46,2.82,14.2,14.2,0,0,1-5.91.61,13,13,0,0,1-6.458-1.719,10.29,10.29,0,0,1-4.072-6.481,22.09,22.09,0,0,1-.44-4.45,7.5,7.5,0,0,0-2.38-5.44c-.32-.3-1.59-1.8-2.13-2.42a16.58,16.58,0,0,1,2.2-6.3Z" fill="#455a64"/>
        <path id="Path_179" data-name="Path 179" d="M140.51,220.32,139.28,304l-3.94,58.54c-10,6.32-17.23,1.15-17.23,1.15-3.79-27.73-4.31-44.79-2.24-56.33L114,262.18,108.29,309l-9.56,57.44c-10.25,6.65-17.48,0-17.48,0,0-21.26-1.9-45,4-60.37C81.07,258.74,88,221.18,88,221.18Z" fill="#37474f"/>
        <path id="Path_180" data-name="Path 180" d="M116.07,245,114,262.18l.88,21.14,3.85-34.74c8.92-3.49,10.08-8.4,10.08-8.4A27.43,27.43,0,0,1,116.07,245Z" opacity="0.3"/>
        <path id="Path_181" data-name="Path 181" d="M121.51,147.28l9.78,1c8,7.07,12.15,21.88,10.42,38.25a290.214,290.214,0,0,0-1.2,33.76c-21.71,15.85-49.1,4.31-52.55.86l1.62-20.06a14,14,0,0,0-1.1-6.61c-2-4.76-5.71-14.13-6.2-21.39a38,38,0,0,1,4-18.69l14.21-6.2Z" fill="#1d6192"/>
        <g id="Group_6" data-name="Group 6" opacity="0.5">
          <path id="Path_182" data-name="Path 182" d="M121.51,147.28l9.78,1c8,7.07,12.15,21.88,10.42,38.25a290.214,290.214,0,0,0-1.2,33.76c-21.71,15.85-49.1,4.31-52.55.86l1.62-20.06a14,14,0,0,0-1.1-6.61c-2-4.76-5.71-14.13-6.2-21.39a38,38,0,0,1,4-18.69l14.21-6.2Z" fill="#fff"/>
        </g>
        <path id="Path_183" data-name="Path 183" d="M124.23,161.54c8.18,18.82,8,38.2,8,38.2l-4,8.65-6.31-8.27a325.835,325.835,0,0,0-.75-38Z" fill="#1d6192"/>
        <path id="Path_184" data-name="Path 184" d="M124.57,154.43a29.711,29.711,0,0,1-.34,7.11,5.7,5.7,0,0,1-3,.56,25.11,25.11,0,0,1-4.89-5.9l4.89-1.77Z" fill="#1d6192"/>
        <path id="Path_185" data-name="Path 185" d="M121.19,154.43c-4.21,1.55-8,9-8,9-11-9.38-12.78-15.24-12.78-15.24a22.23,22.23,0,0,1,5.36-5.66Z" fill="#1d6192"/>
        <path id="Path_186" data-name="Path 186" d="M121.19,154.43c3.21.09,6,4.57,6,4.57.52-7.84-6-13.87-6-13.87Z" fill="#1d6192"/>
        <g id="Group_7" data-name="Group 7" opacity="0.35">
          <path id="Path_187" data-name="Path 187" d="M121.19,154.43c-4.21,1.55-8,9-8,9-11-9.38-12.78-15.24-12.78-15.24a22.23,22.23,0,0,1,5.36-5.66Z" fill="#fff"/>
          <path id="Path_188" data-name="Path 188" d="M121.19,154.43c3.21.09,6,4.57,6,4.57.52-7.84-6-13.87-6-13.87Z" fill="#fff"/>
        </g>
        <path id="Path_189" data-name="Path 189" d="M100.45,111a8.7,8.7,0,0,1,5.57-3l29.1,2.74c3.36,7.22.68,12,.68,12,.45,11,.82,18-3.94,20.32-2.6,1.26-6.56,1.8-10.63,1.5a25,25,0,0,1-9.75-2.63l-.15-.08a8.33,8.33,0,0,1-4.17-5.56,44.92,44.92,0,0,1-1-6.51,28.789,28.789,0,0,0-.41-3.72,6.74,6.74,0,0,0-1.63-3.29,3.76,3.76,0,0,0-3.36-1.14,3.369,3.369,0,0,0-.6.23C99.33,116.92,99.09,112.68,100.45,111Z" fill="#37474f"/>
        <path id="Path_190" data-name="Path 190" d="M111.11,111.81a10.4,10.4,0,0,1-.39,6.18,45.788,45.788,0,0,0-1.85,6,9.92,9.92,0,0,0,.8,6.06,7,7,0,0,0,4.64,3.76c3.13.68,6.18-1.18,9.32-1.79a12.87,12.87,0,0,1,8.76,1.57,1.51,1.51,0,0,0,2.28-1.23c.38-6.33.37-16.26-.55-20.92Z" fill="#ffa8a7"/>
        <path id="Path_191" data-name="Path 191" d="M108.14,140.11Z" fill="#ffa8a7"/>
        <path id="Path_192" data-name="Path 192" d="M105.6,132.89s.06,2.57.12,5.64a8.81,8.81,0,0,1-2.71-4.26,4,4,0,0,0,2.59-1.38Z" fill="#37474f"/>
        <path id="Path_193" data-name="Path 193" d="M133.62,106.07l3.62-2.55a7.9,7.9,0,0,1-1.38,7.23,11.53,11.53,0,0,1-6.38,3.81,23.86,23.86,0,0,1-7.5.34,54.57,54.57,0,0,1-10.82-2,8.7,8.7,0,0,1-4.26-2.27,5.79,5.79,0,0,1-.22-6.73,8.4,8.4,0,0,1,6-3.51,22.46,22.46,0,0,1,7.2.57,21.64,21.64,0,0,0,7.2.53,7.56,7.56,0,0,0,5.81-3.91C134.91,100.94,133.62,106.07,133.62,106.07Z" fill="#37474f"/>
        <path id="Path_194" data-name="Path 194" d="M124.5,123.04l5.3,6.52-4.87,1.75Z" fill="#f28f8f"/>
        <path id="Path_195" data-name="Path 195" d="M120.48,134.55l4.1,1.28a2.54,2.54,0,0,1-2.77,1.29A2.31,2.31,0,0,1,120.48,134.55Z" fill="#f28f8f"/>
        <path id="Path_196" data-name="Path 196" d="M120.48,134.55l4.1,1.28a2.54,2.54,0,0,1-2.77,1.29A2.31,2.31,0,0,1,120.48,134.55Z" opacity="0.3"/>
        <path id="Path_197" data-name="Path 197" d="M123.16,137a2.33,2.33,0,0,1-1.35.09,2.1,2.1,0,0,1-1.33-1.88,2.39,2.39,0,0,1,1.59.29,2.49,2.49,0,0,1,1.09,1.5Z" fill="#f28f8f"/>
        <path id="Path_198" data-name="Path 198" d="M117.28,124.47a1.46,1.46,0,0,0,1.53,1.4,1.5,1.5,0,1,0-.16-3,1.47,1.47,0,0,0-1.37,1.6Z" fill="#263238"/>
        <path id="Path_199" data-name="Path 199" d="M129.47,123.32a1.46,1.46,0,1,0,.367-1.063A1.46,1.46,0,0,0,129.47,123.32Z" fill="#263238"/>
        <path id="Path_200" data-name="Path 200" d="M130.58,117.37l3.34,2.09a2.13,2.13,0,0,0-.75-2.29A2.42,2.42,0,0,0,130.58,117.37Z" fill="#263238"/>
        <path id="Path_201" data-name="Path 201" d="M118.1,117.87l-3.1,2.44a2.13,2.13,0,0,1,.5-2.35,2.44,2.44,0,0,1,2.6-.09Z" fill="#263238"/>
        <path id="Path_202" data-name="Path 202" d="M98.15,124a4.08,4.08,0,0,1,2-2.14,3.369,3.369,0,0,1,.6-.23,3.76,3.76,0,0,1,3.36,1.14,6.74,6.74,0,0,1,1.63,3.29,28.791,28.791,0,0,1,.41,3.72,45.761,45.761,0,0,0,1,6.67,8.2,8.2,0,0,0,4.15,5.4l.14.08a25,25,0,0,0,9.75,2.63v9.93l-13.75-8.14a3.32,3.32,0,0,1-1.63-2.81c0-1.58-.07-3.33-.11-4.95-.06-3.07-.12-5.64-.12-5.64a4,4,0,0,1-2.59,1.38,3.42,3.42,0,0,1-1.36-.07,5.11,5.11,0,0,1-3-2.63,9.77,9.77,0,0,1-1-4,8.07,8.07,0,0,1,.52-3.63Z" fill="#ffa8a7"/>
        <path id="Path_203" data-name="Path 203" d="M109.52,141.68a9.54,9.54,0,0,1-1.7-3.58,8.18,8.18,0,0,0,3.52,3.7l.14.08a25,25,0,0,0,9.75,2.63V147a24.54,24.54,0,0,1-5.76-1.23,12.93,12.93,0,0,1-5.95-4.09Z" opacity="0.2"/>
        <path id="Path_204" data-name="Path 204" d="M149.18,220.77l10-40.8a4.81,4.81,0,0,1,2.27-3l24.92-14.35a.94.94,0,0,1,.47-.12h0a2.35,2.35,0,0,1,2.26,1.59h0a.89.89,0,0,1,.06.63l-10,40.81a4.83,4.83,0,0,1-2.27,3L152,222.87a1,1,0,0,1-.66.1h0a2.85,2.85,0,0,1-2.07-1.58.25.25,0,0,1,0-.07h0A1,1,0,0,1,149.18,220.77Z" fill="#1d6192"/>
        <path id="Path_205" data-name="Path 205" d="M150.56,221.8l10-40.81a4.83,4.83,0,0,1,2.27-3l24.92-14.36a1,1,0,0,1,1.36.44.89.89,0,0,1,.06.63l-10,40.81a4.83,4.83,0,0,1-2.27,3L152,222.87a1,1,0,0,1-.66.1.94.94,0,0,1-.78-1.17Z" opacity="0.3"/>
        <path id="Path_206" data-name="Path 206" d="M166.41,203.21c-2.66-1.16-8.94,6.07-14.12,5l1.29-5.23c-8.13.93-10.39,3.88-13.29,4.28a27.613,27.613,0,0,1-5.33-.22,24.93,24.93,0,0,1,.06,12.49c2.84,0,4.9.08,5.61.08,3.69,0,8,1.57,12,.77,7.55-1.79,10.54-4.55,10.57-7.83,0,0,3.11-2.11,2.14-5.49C165.32,207.08,169.07,204.38,166.41,203.21Z" fill="#ffa8a7"/>
        <path id="Path_207" data-name="Path 207" d="M129.76,205.46c-7.14-1.25-10.26-2.48-18.94-2.93l-6-16.88h0c-2.73-8.47-9.21-27.2-14.8-32.89-16.12,3.44-17.32,10.81-2.84,45.46,1.07,2.57,5.12,10.73,8,16.38a10.4,10.4,0,0,0,9.29,5.72H129.2A31.23,31.23,0,0,0,129.76,205.46Z" fill="#1d6192"/>
        <path id="Path_208" data-name="Path 208" d="M138.17,206.65c-3.43-.38-6.12-.79-8.41-1.19a31.23,31.23,0,0,1-.62,14.86h8.12S141.2,212.63,138.17,206.65Z" fill="#1d6192"/>
        <path id="Path_209" data-name="Path 209" d="M129.76,205.46c-7.14-1.25-10.26-2.48-18.94-2.93l-6-16.88h0c-2.73-8.47-9.21-27.2-14.8-32.89-16.12,3.44-17.32,10.81-2.84,45.46,1.07,2.57,5.12,10.73,8,16.38a10.4,10.4,0,0,0,9.29,5.72H129.2A31.23,31.23,0,0,0,129.76,205.46Z" fill="#fff" opacity="0.4"/>
        <path id="Path_210" data-name="Path 210" d="M138.17,206.65c-3.43-.38-6.12-.79-8.41-1.19a31.23,31.23,0,0,1-.62,14.86h8.12S141.2,212.63,138.17,206.65Z" fill="#fff" opacity="0.6"/>
        <path id="Path_211" data-name="Path 211" d="M110.82,202.53a43.211,43.211,0,0,0-10.36,1.23,23.27,23.27,0,0,1,8.58-6.22Z" opacity="0.2"/>
      </g>
    </g>
  </g>
</svg>
