<?xml version="1.0" encoding="iso-8859-1"?>
<!-- Generator: Adobe Illustrator 23.0.1, SVG Export Plug-In . SVG Version: 6.00 Build 0)  -->
<svg version="1.1" xmlns="http://www.w3.org/2000/svg" xmlns:xlink="http://www.w3.org/1999/xlink" x="0px" y="0px"
	 viewBox="0 0 512 512" style="enable-background:new 0 0 512 512;" xml:space="preserve">
<g id="Layer_1">
</g>
<g id="Isolation_Mode">
	<g>
		<path style="fill:#010101;" d="M120.92,267.107c-0.309-15.767,2.094-32.364,5.89-48.819c1.551-6.721,1.909-13.637,1.719-20.512
			c-0.948-34.235-10.092-66.271-26.158-96.423c-0.827-1.552-2.088-2.653-3.276-3.844c-0.587-0.589-0.768-1.199-0.896-2.021
			c-0.643-4.129,1.045-6.967,3.974-9.889c16.911-16.871,33.604-33.961,50.348-50.999c0.7-0.713,1.41-0.913,2.381-1.011
			c3.699-0.37,6.832,0.779,10.096,2.533c23.839,12.812,49.192,21.083,76.078,24.365c36.361,4.439,69.733-4.113,100.48-23.648
			c2.473-1.571,4.848-3.296,7.242-4.988c0.66-0.466,1.298-0.824,2.136-0.701c0.314,0.046,0.65,0.057,0.96,0
			c3.555-0.65,5.999,0.877,8.385,3.481c16.726,18.254,33.584,36.388,50.409,54.551c0.401,0.433,0.585,0.863,0.573,1.46
			c-0.036,1.787-0.031,3.576-0.002,5.364c0.009,0.576-0.167,1.062-0.407,1.566c-11.343,23.845-19.715,48.67-24.525,74.657
			c-1.879,10.155-3.102,20.399-3.232,30.735c-0.09,7.167,0.853,14.229,2.317,21.266c2.77,13.32,3.946,26.83,4.066,40.433
			c0.094,10.69-0.102,21.364-1.605,31.974c-2.577,18.193-7.887,35.407-18.785,50.457c-7.674,10.599-17.066,19.45-28.154,26.523
			c-4.783,3.051-9.352,6.436-14.348,9.161c-17.491,9.541-36.116,15.366-56.015,16.793c-17.098,1.227-34.075,0.498-50.769-3.875
			c-16.309-4.273-31.533-11.042-45.658-20.173c-26.404-17.07-42.858-41.162-49.837-71.752
			C121.65,292.115,120.92,283.423,120.92,267.107z M134.698,267.74c0.004,3.753,0.197,7.048,0.474,10.337
			c1.312,15.62,5.01,30.61,11.833,44.774c0.957,1.986,0.96,1.983,2.596,0.57c78.084-67.468,156.167-134.937,234.259-202.395
			c0.683-0.59,1.164-1.24,1.466-2.092c2.829-7.987,6.043-15.819,9.571-23.52c0.355-0.774,0.338-1.24-0.265-1.89
			c-13.816-14.887-27.613-29.792-41.383-44.722c-0.675-0.732-1.06-0.754-1.872-0.201c-24.89,16.935-52.413,25.823-82.481,26.845
			c-13.628,0.463-27.223,0.108-40.725-2.024c-24.279-3.834-47.282-11.509-69.026-22.96c-0.84-0.442-1.338-0.459-2.067,0.284
			c-13.577,13.85-27.185,27.669-40.812,41.47c-0.691,0.7-0.789,1.177-0.305,2.073c6.235,11.545,11.434,23.54,15.567,36
			c5.171,15.59,8.553,31.553,10.045,47.907c1.01,11.068,1.014,22.163,0.533,33.254c-0.214,4.94-0.603,9.879-1.748,14.722
			C137.094,239.992,135.012,253.972,134.698,267.74z M380.937,131.419c-0.407-0.095-0.594,0.129-0.788,0.316
			c-3.261,3.15-6.714,6.083-10.145,9.042c-4.332,3.735-8.638,7.5-12.967,11.237c-5.748,4.963-11.516,9.903-17.262,14.869
			c-5.089,4.398-10.155,8.823-15.241,13.223c-5.916,5.119-11.847,10.221-17.766,15.337c-4.258,3.68-8.5,7.378-12.76,11.056
			c-5.817,5.023-11.648,10.03-17.466,15.052c-4.294,3.707-8.572,7.434-12.867,11.141c-6.406,5.531-12.826,11.046-19.23,16.579
			c-4.397,3.799-8.77,7.627-13.166,11.427c-5.815,5.025-11.647,10.032-17.464,15.054c-4.295,3.707-8.574,7.432-12.869,11.139
			c-6.407,5.53-12.826,11.046-19.23,16.58c-4.397,3.8-8.765,7.633-13.166,11.427c-5.544,4.779-11.111,9.533-16.664,14.301
			c-0.729,0.626-0.803,1.367-0.32,2.182c3.604,6.084,7.746,11.776,12.519,16.993c4.385,4.794,9.474,8.73,14.945,12.225
			c12.443,7.949,25.52,14.549,39.629,19.015c12.618,3.994,25.487,6.452,38.771,6.507c5.178,0.022,10.309-0.49,15.409-1.243
			c9.157-1.352,18.101-3.598,26.813-6.761c7.896-2.866,15.473-6.399,22.756-10.583c3.977-2.285,7.589-5.123,11.473-7.523
			c9.29-5.741,17.169-12.869,23.159-22.054c6.955-10.665,11.671-22.265,14.581-34.618c1.677-7.12,2.836-14.328,3.393-21.635
			c0.416-5.455,0.848-10.907,0.622-16.379c-0.228-5.524-0.61-11.037-1.216-16.537c-0.65-5.905-1.572-11.765-2.629-17.607
			c-0.553-3.055-1.484-6.038-1.772-9.141c-0.523-5.638-0.781-11.283-0.63-16.952c0.146-5.48-0.117-10.959,0.286-16.446
			c0.532-7.25,1.373-14.456,2.617-21.608c1.897-10.907,4.502-21.653,7.746-32.243C380.376,133.686,380.886,132.603,380.937,131.419z
			"/>
		<path style="fill:#FDEB23;" d="M134.698,267.74c0.314-13.767,2.396-27.748,5.661-41.567c1.144-4.843,1.533-9.782,1.748-14.722
			c0.481-11.091,0.477-22.187-0.533-33.254c-1.492-16.354-4.874-32.317-10.045-47.907c-4.133-12.46-9.332-24.455-15.567-36
			c-0.484-0.896-0.386-1.373,0.305-2.073c13.627-13.8,27.235-27.62,40.812-41.47c0.729-0.744,1.227-0.727,2.067-0.284
			c21.744,11.451,44.747,19.125,69.026,22.96c13.502,2.133,27.097,2.488,40.725,2.024c30.068-1.022,57.591-9.91,82.481-26.845
			c0.812-0.553,1.197-0.531,1.872,0.201c13.77,14.93,27.566,29.835,41.383,44.722c0.603,0.65,0.62,1.116,0.265,1.89
			c-3.528,7.702-6.742,15.534-9.571,23.52c-0.302,0.851-0.783,1.502-1.466,2.092c-78.093,67.458-156.176,134.927-234.259,202.395
			c-1.636,1.413-1.639,1.416-2.596-0.57c-6.824-14.163-10.521-29.154-11.833-44.774C134.895,274.787,134.702,271.493,134.698,267.74
			z M261.394,86.961c-1.598-0.095-3.14,0.315-4.701,0.535c-13.923,1.963-27.845,3.932-41.763,5.932
			c-0.76,0.109-1.148-0.052-1.497-0.736c-1.184-2.317-2.655-4.448-4.421-6.355c-0.461-0.498-0.543-0.937-0.382-1.58
			c0.466-1.85,0.888-3.713,1.265-5.583c0.323-1.603,0.86-3.172,0.992-4.994c-3.113,1.643-6.043,3.167-8.947,4.741
			c-0.634,0.343-1.111,0.341-1.735-0.035c-4.061-2.445-8.469-3.883-13.176-4.323c-7.509-0.703-14.785,0.128-21.361,4.118
			c-13.493,8.187-19.096,21.088-17.125,36.1c0.298,2.271,1.723,4.404,1.083,6.737c-0.623,2.272-1.573,4.452-2.383,6.672
			c-0.944,2.585-1.891,5.169-2.946,8.05c0.659-0.389,1.039-0.604,1.41-0.834c2.734-1.696,5.486-3.365,8.186-5.114
			c0.695-0.45,1.016-0.374,1.527,0.254c2.097,2.579,4.404,4.97,7.126,6.882c0.944,0.663,1.095,1.334,0.973,2.387
			c-0.649,5.597-1.224,11.202-1.827,16.804c-0.764,7.093-1.531,14.186-2.294,21.279c-0.49,4.555-0.973,9.111-1.467,13.734
			c0.546-0.411,0.567-0.998,0.742-1.492c5.409-15.293,10.812-30.589,16.19-45.893c0.292-0.831,0.604-1.143,1.547-0.947
			c1.636,0.34,3.315,0.562,4.99,0.432c1.006-0.078,1.525,0.27,1.989,1.164c5.689,10.97,11.418,21.92,17.14,32.873
			c1.189,2.276,2.389,4.546,3.768,7.17c0-0.642,0.029-0.858-0.004-1.064c-2.282-13.946-4.559-27.892-6.879-41.832
			c-0.144-0.863-0.04-1.312,0.794-1.686c1.614-0.724,3.132-1.653,4.517-2.754c0.76-0.604,1.295-0.596,2.107-0.052
			c9.981,6.684,19.989,13.327,29.997,19.971c0.345,0.229,0.643,0.611,1.219,0.607c-0.168-0.227-0.267-0.376-0.381-0.512
			c-7.826-9.311-15.646-18.627-23.493-27.92c-0.549-0.65-0.678-1.083-0.158-1.851c0.81-1.198,1.505-2.491,2.107-3.809
			c0.402-0.881,0.87-1.186,1.854-1.097c6.8,0.613,13.607,1.149,20.41,1.737c10.79,0.933,21.579,1.888,32.41,2.838
			c-0.179-0.454-0.553-0.399-0.836-0.491c-3.616-1.172-7.235-2.332-10.854-3.496c-12.88-4.142-25.757-8.294-38.645-12.408
			c-0.881-0.281-1.237-0.655-1.199-1.615c0.053-1.313,0.001-2.643-0.158-3.947c-0.135-1.105,0.249-1.572,1.277-1.963
			c12.057-4.587,24.097-9.218,36.131-13.865c2.304-0.89,4.688-1.586,6.866-2.789c0.088-0.012,0.175-0.023,0.263-0.035
			c-0.021-0.038-0.042-0.076-0.062-0.114C261.518,86.85,261.456,86.906,261.394,86.961z"/>
		<path style="fill:#007302;" d="M380.937,131.419c-0.051,1.184-0.562,2.267-0.9,3.372c-3.244,10.59-5.848,21.335-7.746,32.243
			c-1.244,7.152-2.085,14.358-2.617,21.608c-0.403,5.487-0.14,10.966-0.286,16.446c-0.151,5.668,0.107,11.313,0.63,16.952
			c0.288,3.103,1.219,6.087,1.772,9.141c1.057,5.842,1.978,11.702,2.629,17.607c0.606,5.5,0.989,11.014,1.216,16.537
			c0.226,5.472-0.206,10.924-0.622,16.379c-0.557,7.307-1.716,14.515-3.393,21.635c-2.909,12.353-7.626,23.953-14.581,34.618
			c-5.99,9.185-13.869,16.313-23.159,22.054c-3.884,2.4-7.496,5.238-11.473,7.523c-7.283,4.184-14.86,7.716-22.756,10.583
			c-8.712,3.163-17.657,5.409-26.813,6.761c-5.1,0.753-10.231,1.265-15.409,1.243c-13.285-0.055-26.153-2.513-38.771-6.507
			c-14.109-4.465-27.186-11.066-39.629-19.015c-5.471-3.495-10.56-7.431-14.945-12.225c-4.772-5.217-8.915-10.909-12.519-16.993
			c-0.483-0.815-0.409-1.556,0.32-2.182c5.554-4.768,11.12-9.522,16.664-14.301c4.401-3.794,8.769-7.627,13.166-11.427
			c6.404-5.534,12.823-11.049,19.23-16.58c4.295-3.707,8.574-7.432,12.869-11.139c5.818-5.022,11.649-10.029,17.464-15.054
			c4.397-3.8,8.769-7.628,13.166-11.427c6.404-5.533,12.824-11.049,19.23-16.579c4.294-3.707,8.572-7.434,12.867-11.141
			c5.818-5.022,11.649-10.029,17.466-15.052c4.26-3.678,8.502-7.376,12.76-11.056c5.919-5.116,11.85-10.218,17.766-15.337
			c5.086-4.401,10.152-8.826,15.241-13.223c5.746-4.965,11.513-9.906,17.262-14.869c4.329-3.738,8.635-7.503,12.967-11.237
			c3.432-2.958,6.884-5.892,10.145-9.042C380.344,131.548,380.531,131.324,380.937,131.419z"/>
		<path style="fill:#FC2602;" d="M262.523,86.862c-2.206,1.212-4.621,1.914-6.954,2.811c-12.188,4.682-24.382,9.348-36.593,13.969
			c-1.042,0.394-1.43,0.865-1.293,1.978c0.161,1.314,0.213,2.654,0.16,3.976c-0.039,0.967,0.322,1.344,1.214,1.627
			c13.054,4.145,26.095,8.328,39.14,12.502c3.665,1.173,7.33,2.341,10.993,3.522c0.286,0.092,0.665,0.037,0.847,0.495
			c-10.97-0.957-21.897-1.919-32.825-2.859c-6.889-0.593-13.783-1.133-20.671-1.75c-0.996-0.089-1.47,0.218-1.878,1.105
			c-0.61,1.328-1.314,2.63-2.134,3.837c-0.526,0.774-0.395,1.211,0.161,1.865c7.948,9.363,15.868,18.749,23.794,28.13
			c0.116,0.137,0.216,0.287,0.386,0.516c-0.583,0.003-0.885-0.381-1.234-0.612c-10.136-6.693-20.272-13.387-30.381-20.121
			c-0.823-0.548-1.365-0.556-2.134,0.052c-1.403,1.11-2.941,2.045-4.575,2.775c-0.845,0.377-0.95,0.83-0.804,1.699
			c2.35,14.044,4.656,28.096,6.967,42.147c0.034,0.208,0.004,0.426,0.004,1.072c-1.397-2.644-2.612-4.931-3.816-7.224
			c-5.795-11.036-11.597-22.068-17.359-33.121c-0.47-0.901-0.995-1.251-2.014-1.173c-1.697,0.13-3.397-0.094-5.054-0.436
			c-0.956-0.197-1.271,0.117-1.567,0.954c-5.446,15.42-10.918,30.831-16.397,46.239c-0.177,0.498-0.199,1.09-0.752,1.504
			c0.5-4.658,0.99-9.248,1.486-13.838c0.772-7.147,1.55-14.293,2.323-21.439c0.611-5.644,1.194-11.292,1.851-16.931
			c0.124-1.061-0.03-1.737-0.986-2.405c-2.757-1.927-5.093-4.336-7.217-6.934c-0.517-0.633-0.842-0.709-1.546-0.255
			c-2.735,1.761-5.522,3.443-8.291,5.152c-0.375,0.232-0.76,0.448-1.428,0.84c1.068-2.903,2.028-5.506,2.984-8.111
			c0.821-2.236,1.783-4.433,2.414-6.722c0.648-2.351-0.795-4.5-1.097-6.788c-1.997-15.125,3.678-28.123,17.344-36.372
			c6.661-4.021,14.029-4.857,21.634-4.149c4.767,0.444,9.232,1.892,13.345,4.356c0.632,0.379,1.116,0.382,1.758,0.035
			c2.941-1.585,5.908-3.121,9.061-4.776c-0.133,1.836-0.678,3.417-1.004,5.032c-0.381,1.885-0.81,3.761-1.281,5.625
			c-0.164,0.647-0.08,1.09,0.387,1.592c1.789,1.922,3.278,4.069,4.478,6.403c0.354,0.689,0.746,0.852,1.516,0.742
			c14.096-2.015,28.196-3.999,42.297-5.977c1.581-0.222,3.143-0.635,4.762-0.539L262.523,86.862z M213.35,109.095
			c-0.778-16.997-12.987-30.25-30.462-30.238c-17.747,0.011-30.363,13.572-30.307,30.372c0.058,16.991,12.824,30.252,30.303,30.239
			C200.648,139.455,212.681,125.891,213.35,109.095z"/>
		<g>
			<path style="fill:#040402;" d="M316.845,155.762c0.89-0.794,1.818-0.446,2.053,0.79c-0.456-0.289-0.872-0.279-1.263,0.029
				c-0.419,0.33-0.607,0.79-0.678,1.323c-0.135,1.025-0.276,2.049-0.412,3.074c-0.005,0.037,0.021,0.079,0.033,0.12
				c0.173,0.031,0.244-0.128,0.344-0.219c2.06-1.883,4.111-3.775,6.179-5.648c0.294-0.266,0.377-0.453,0.061-0.749
				c-0.181-0.17-0.345-0.37-0.479-0.583c-0.265-0.419-0.585-0.618-1.068-0.453c-0.409,0.14-0.577,0.001-0.534-0.493
				c0.123-1.391,0.208-2.786,0.31-4.204c0.22,0.001,0.277,0.187,0.37,0.301c1.055,1.282,2.117,2.558,3.147,3.862
				c0.257,0.325,0.426,0.322,0.656,0.026c0.599-0.768,1.357-1.353,2.054-2.006c0.245-0.229,0.271-0.376,0.034-0.603
				c-0.135-0.129-0.244-0.288-0.362-0.436c-0.594-0.746-1.095-1.684-2.301-1.113c0.745-2.356,0.822-2.906,0.589-4.44
				c0.768,0.931,1.444,1.751,2.141,2.594c0.134-0.189,0.052-0.329,0.029-0.458c-0.24-1.343,0.115-2.521,1.045-3.411
				c2.23-2.134,4.514-4.205,6.768-6.311c0.226-0.211,0.336-0.183,0.525,0.049c1.667,2.059,3.384,4.073,5.005,6.172
				c0.802,1.039,1.006,2.119,0.213,3.259c-0.119,0.171-0.21,0.369-0.291,0.565c-0.396,0.95-0.394,0.949-1.377,1.239
				c-0.195,0.057-0.392,0.118-0.573,0.211c-1.262,0.645-2.331,0.288-3.234-0.745c-0.297-0.34-0.455-0.306-0.759-0.021
				c-4.048,3.788-8.105,7.566-12.167,11.337c-1.48,1.375-2.991,2.713-4.463,4.098c-0.456,0.429-0.956,0.263-1.438,0.25
				c-0.421-0.012-0.666,0.062-0.611,0.572c0.094,0.864-0.324,1.401-0.922,1.938c-2.232,2-4.424,4.051-6.614,6.103
				c-0.336,0.315-0.508,0.364-0.834-0.041c-2.575-3.191-5.189-6.346-7.758-9.542c-0.406-0.505-0.791-0.734-1.385-0.515
				c-0.112,0.041-0.237,0.04-0.426,0.069c0.103-1.589,0.204-3.148,0.305-4.712c0.244-0.038,0.294,0.167,0.387,0.28
				c2.983,3.642,5.966,7.285,8.933,10.942c0.279,0.344,0.432,0.433,0.795,0.089c1.663-1.579,3.355-3.124,5.044-4.673
				c0.224-0.206,0.371-0.416,0.409-0.747c0.202-1.755,0.417-3.508,0.651-5.259c0.042-0.314-0.063-0.412-0.311-0.5
				c-0.445-0.158-0.9-0.227-1.277,0.096c-0.383,0.328-0.794,0.403-1.249,0.357c-0.312-0.031-0.501,0.036-0.479,0.438
				c0.026,0.477-0.177,0.872-0.459,1.231c-0.129,0.164-0.249,0.342-0.339,0.532c-0.425,0.9-0.226,1.244,0.695,1.222
				c0.061-0.001,0.121-0.006,0.182-0.008c1.67-0.062,1.72,0.015,1.267,1.782c-0.067,0.262-0.175,0.35-0.417,0.338
				c-0.344-0.017-0.689-0.004-1.033-0.004c-1.44,0-1.758,0.32-1.811,1.818c-0.91-0.236-1.264-1.206-0.679-1.966
				c0.22-0.286,0.161-0.367-0.028-0.64c-0.518-0.744-0.424-1.583-0.105-2.395c0.101-0.256,0.244-0.498,0.394-0.727
				c0.747-1.137,1.041-2.369,0.639-3.884c1.145,0.845,2.173,0.414,3.199,0.029c0.745-0.279,1.476-0.592,2.295-0.522
				C316.055,154.92,316.581,155.062,316.845,155.762z M329.599,149.066c0.28-0.249,0.452-0.395,0.617-0.548
				c1.68-1.556,3.365-3.106,5.034-4.677c0.268-0.253,0.415-0.299,0.657,0.032c0.41,0.56,0.861,1.087,1.309,1.615
				c0.481,0.566,1.17,0.636,1.677,0.192c0.425-0.372,0.487-1.153,0.06-1.696c-0.987-1.256-2.013-2.478-3.014-3.721
				c-0.155-0.193-0.259-0.197-0.435-0.032c-1.73,1.626-3.491,3.216-5.192,4.874C329.218,146.17,329.327,147.554,329.599,149.066z"/>
			<path style="fill:#040402;" d="M361.949,116.574c-0.918-0.264-1.637,0.155-1.809,1.133c-0.204,1.163-0.34,2.339-0.508,3.525
				c0.29-0.016,0.41-0.245,0.569-0.393c1.675-1.563,3.34-3.14,5.018-4.701c0.226-0.21,0.278-0.325,0.048-0.594
				c-1.863-2.189-1.767-3.971-0.19-6.617c0.582-0.977,1.371-1.825,1.551-3.027c0.233-0.034,0.283,0.173,0.378,0.289
				c1.707,2.079,3.4,4.171,5.119,6.239c0.284,0.342,0.258,0.499-0.057,0.791c-3.439,3.185-6.877,6.372-10.279,9.602
				c-0.512,0.486-1.031,0.53-1.61,0.466c-0.476-0.053-0.732,0.042-0.674,0.623c0.078,0.776-0.274,1.291-0.829,1.793
				c-3.503,3.172-6.977,6.379-10.448,9.591c-0.321,0.297-0.48,0.3-0.748-0.056c-0.709-0.942-1.505-1.813-2.18-2.78
				c-1.635-2.343-0.791-5.593,1.718-6.777c0.071-0.034,0.14-0.071,0.271-0.138c-0.363-0.446-0.695-0.874-1.048-1.281
				c-0.256-0.295-0.611-0.16-0.924-0.174c-0.28-0.013-0.392-0.056-0.309-0.409c0.29-1.228,0.544-2.466,0.811-3.697
				c0.235-0.012,0.288,0.186,0.386,0.305c1.972,2.406,3.946,4.81,5.901,7.231c0.273,0.338,0.431,0.366,0.754,0.064
				c1.37-1.278,2.765-2.528,4.156-3.779c0.243-0.218,0.397-0.45,0.437-0.805c0.18-1.606,0.386-3.208,0.584-4.812
				c0.103-0.833-0.05-1.021-0.845-1.033c-0.229-0.003-0.465,0.034-0.633,0.188c-0.401,0.367-0.86,0.453-1.36,0.394
				c-0.307-0.036-0.45,0.072-0.425,0.425c0.035,0.506-0.193,0.91-0.489,1.282c-0.295,0.37-0.485,0.776-0.487,1.286
				c-0.001,0.35,0.118,0.448,0.425,0.436c0.587-0.025,1.176,0.004,1.762-0.038c0.362-0.026,0.395,0.112,0.352,0.444
				c-0.22,1.687-0.213,1.688-1.826,1.695c-1.198,0.005-1.537,0.324-1.624,1.606c-0.027,0.406-0.2,0.223-0.345,0.141
				c-0.677-0.383-0.827-1.267-0.349-1.941c0.083-0.117,0.369-0.17,0.111-0.438c-0.725-0.752-0.526-1.642-0.271-2.525
				c0.035-0.12,0.12-0.224,0.181-0.335c1.099-2.004,1.099-2.004,0.965-4.256c0.931,0.735,1.867,0.437,2.8,0.099
				c0.879-0.318,1.73-0.742,2.702-0.628c0.69,0.081,0.955,0.237,1.297,0.886c0.38-0.472,0.842-0.598,1.36-0.314
				c0.381,0.209,0.727,0.471,0.604,1.029L361.949,116.574z M346.757,130.001c-0.02,0.729,0.582,1.313,1.1,1.945
				c0.141,0.172,0.245,0.029,0.352-0.07c0.733-0.681,1.464-1.364,2.204-2.036c0.182-0.165,0.183-0.273,0.021-0.462
				c-0.504-0.591-0.996-1.194-1.475-1.808c-0.169-0.217-0.327-0.253-0.577-0.175C347.419,127.695,346.739,128.677,346.757,130.001z
				 M366.018,111.937c-0.009,1.056,0.374,1.689,0.921,2.243c0.151,0.153,0.258,0.129,0.404-0.009c0.574-0.544,1.152-1.082,1.74-1.61
				c0.179-0.161,0.196-0.273,0.034-0.465c-0.594-0.705-1.17-1.427-1.757-2.139c-0.083-0.1-0.171-0.295-0.319-0.07
				C366.579,110.581,365.943,111.186,366.018,111.937z"/>
			<path style="fill:#040402;" d="M366.46,94.458c3.039,3.719,6.091,7.441,9.124,11.18c0.326,0.402,0.497,0.497,0.925,0.093
				c2.669-2.519,5.363-5.007,8.071-7.478c0.402-0.367,0.336-0.516-0.04-0.816c-1.197-0.955-2.375-1.052-3.674-0.254
				c-0.726,0.446-1.336,1.047-1.964,1.625c-0.475,0.438-0.945,0.883-1.508,1.195c-0.65,0.361-1.102,0.313-1.591-0.239
				c-0.526-0.593-1.016-1.224-1.52-1.836c0.049-0.058,0.074-0.113,0.097-0.112c1.511,0.083,2.743-0.545,3.84-1.614
				c1.438-1.401,3.085-2.052,5.027-1.342c0.947,0.346,1.792,0.906,2.578,1.556c0.295,0.244,0.485,0.247,0.764-0.031
				c0.62-0.62,1.285-1.189,1.915-1.797c0.216-0.208,0.347-0.207,0.531,0.038c0.342,0.454,0.696,0.901,1.078,1.317
				c0.264,0.287,0.173,0.444-0.071,0.659c-0.577,0.509-1.118,1.066-1.707,1.558c-0.36,0.301-0.267,0.458,0.041,0.697
				c0.732,0.567,1.554,0.881,2.479,1.022c-0.97,0.76-2.481,0.771-3.513-0.024c-0.386-0.297-0.59-0.227-0.907,0.068
				c-3.309,3.083-6.64,6.141-9.936,9.24c-0.456,0.429-0.644,0.358-1.009-0.095c-2.52-3.128-5.08-6.22-7.601-9.347
				c-0.418-0.518-0.802-0.875-1.471-0.588c-0.257,0.11-0.417,0.062-0.388-0.311c0.108-1.376,0.193-2.753,0.291-4.13
				C366.326,94.602,366.284,94.467,366.46,94.458z"/>
			<path style="fill:#040402;" d="M299.713,172.362c-0.603-0.021-1.164,0.089-1.642,0.518c-0.915,0.821-0.737,2.204,0.38,2.658
				c1.157,0.471,2.26,0.385,3.23-0.535c0.56-0.531,1.14-1.037,1.69-1.579c0.234-0.231,0.357-0.203,0.569,0.043
				c1.077,1.247,1.083,1.238-0.111,2.342c-0.765,0.707-1.516,1.43-2.293,2.122c-1.247,1.11-1.583,2.484-1.106,4.113
				c0.028,0.097,0.05,0.196,0.085,0.332c-1.565-1.03-1.857-2.617-0.996-5.335c-0.895,0.137-1.739-0.031-2.548-0.398
				c-1.658-0.752-2.282-2.493-1.511-4.223c0.075-0.168,0.204-0.321,0.337-0.447c0.335-0.319,0.616-0.683,0.882-1.065
				c0.674-0.97,0.682-1.459,0.026-2.439c0.816,0.015,1.631,1.118,1.683,2.115c0.016,0.299,0.016,0.485,0.391,0.543
				C299.275,171.203,299.561,171.657,299.713,172.362z"/>
			<path style="fill:#090804;" d="M339.64,121.489c1.227,0.059,1.227,0.059,1.27-1.25c0.043-1.293,0.043-1.293,1.253-1.163
				c1.223,0.131,1.223,0.131,1.17,1.429c-0.053,1.286-0.053,1.286-1.263,1.18c-1.221-0.107-1.221-0.107-1.291,1.213
				c-0.068,1.291-0.068,1.291-1.277,1.188c-1.188-0.101-1.188-0.101-1.148-1.366C338.393,121.429,338.393,121.429,339.64,121.489z"
				/>
			<path style="fill:#090804;" d="M317.056,145.168c-0.045,0.663-0.105,1.113-0.097,1.562c0.009,0.476-0.181,0.575-0.587,0.523
				c-0.54-0.07-1.086-0.104-1.629-0.11c-0.381-0.004-0.478-0.152-0.433-0.545c0.069-0.596,0.104-1.199,0.112-1.799
				c0.006-0.415,0.13-0.575,0.535-0.507c0.417,0.07,0.843,0.08,1.265,0.12C317.225,144.508,317.097,144.341,317.056,145.168z"/>
			<path style="fill:#090804;" d="M386.63,104.78c1.274,0.038,1.274,0.038,1.159,1.407c-0.114,1.354-0.114,1.354-1.397,1.252
				c-1.104-0.088-1.104-0.088-1.047-1.3c0.001-0.021,0.005-0.043,0.006-0.064C385.41,104.744,385.41,104.744,386.63,104.78z"/>
		</g>
		<path style="fill:#FC2602;" d="M253.337,86.173c0.062-0.056,0.125-0.112,0.187-0.168c0.021,0.038,0.042,0.077,0.063,0.115
			c-0.089,0.012-0.177,0.023-0.266,0.035L253.337,86.173z"/>
		<path style="fill:#040402;" d="M300.081,156.369c0.057-0.002,0.115-0.004,0.172-0.005c-0.02,0.017-0.049,0.052-0.057,0.047
			c-0.036-0.019-0.066-0.049-0.099-0.075C300.096,156.338,300.081,156.369,300.081,156.369z"/>
		<path style="fill:#FAE923;" d="M226.919,225.361c-0.615-3.213-0.861-6.152,1.611-8.415c3.849-3.523,7.832-6.901,11.745-10.354
			c0.399-0.352,0.633-0.342,0.984,0.067c2.264,2.642,4.584,5.238,6.817,7.906c0.965,1.153,0.825,2.813-0.136,3.603
			c-1.147,0.944-2.705,0.794-3.793-0.408c-1.013-1.12-2.034-2.24-2.961-3.431c-0.547-0.703-0.878-0.604-1.486-0.067
			c-3.774,3.336-7.585,6.629-11.386,9.935C227.94,224.522,227.553,224.833,226.919,225.361z"/>
		<path style="fill:#FAE923;" d="M265.732,184.86c-0.042-2.812,1.496-4.898,3.675-5.536c0.566-0.166,0.923-0.089,1.306,0.372
			c1.083,1.304,2.196,2.586,3.337,3.84c0.366,0.402,0.364,0.632-0.047,0.982c-1.675,1.427-3.328,2.879-4.986,4.325
			c-0.241,0.21-0.477,0.514-0.796,0.148C267.049,187.65,265.687,186.408,265.732,184.86z"/>
		<path style="fill:#FAE923;" d="M309.3,146.487c-0.169-1.595,1.27-2.881,2.31-4.355c0.336-0.477,0.535-0.063,0.722,0.15
			c1.328,1.512,2.632,3.044,3.975,4.543c0.367,0.409,0.329,0.647-0.076,0.988c-1.329,1.12-2.637,2.264-3.935,3.419
			c-0.33,0.293-0.572,0.345-0.913,0.02C310.146,150.075,309.28,148.73,309.3,146.487z"/>
		<path style="fill:#007302;" d="M246.246,346.171c-1.675,0.006-2.717-1.431-2.108-2.985c0.404-1.03,0.965-2.347,2.057-2.344
			c1.112,0.003,1.374,1.421,1.679,2.417C248.457,345.162,247.878,346.165,246.246,346.171z"/>
		<path style="fill:#0D0D0D;" d="M174.341,103.492c2.176-2.877,4.191-5.542,6.46-8.541c0,1.294,0.007,2.186-0.006,3.078
			c-0.003,0.167-0.058,0.461-0.141,0.482c-1.546,0.376-1.727,2-2.796,2.836c0.505,0.522,1.034,0.291,1.494,0.297
			c2.2,0.029,4.401,0.046,6.6-0.004c0.845-0.019,1.317,0.139,1.159,1.107c-0.058,0.357,0.018,0.734-0.016,1.098
			c-0.054,0.574,0.125,0.812,0.753,0.801c2.016-0.035,4.034-0.042,6.05,0.001c0.798,0.017,0.837-0.341,0.607-0.91
			c-0.274-0.68-0.789-1.14-1.502-1.287c-0.624-0.129-1.268-0.198-1.906-0.216c-2.448-0.069-2.449-0.057-2.296-2.68
			c1.07,0.837,2.258,0.947,3.503,1.001c1.909,0.084,2.979,1.301,3.39,3.064c0.195,0.837,0.566,1.085,1.382,1.029
			c1.272-0.088,2.937,0.401,3.721-0.236c0.83-0.674,0.2-2.403,0.259-3.67c0.045-0.961,0.009-1.925,0.009-2.887
			c0-0.229,0.092-0.521-0.015-0.678c-1.31-1.924,0.929-2.154,1.683-3.181c0,1.386,0,2.773,0,4.159c0,2.429-0.033,4.86,0.018,7.288
			c0.017,0.827-0.185,1.14-1.063,1.097c-1.463-0.072-2.938,0.056-4.398-0.042c-1.353-0.091-1.216,0.457-0.733,1.311
			c0.118,0.208,0.389,0.367,0.277,0.74c-0.757-0.111-1.315-0.554-1.528-1.2c-0.262-0.795-0.752-0.854-1.438-0.84
			c-1.924,0.041-3.85,0.036-5.775,0.035c-0.567,0-1.017-0.069-1.04,0.802c-0.023,0.847-1.772,2.271-2.439,1.953
			c-0.918-0.437-2.294-0.59-2.402-1.952c-0.063-0.801-0.405-0.842-1.019-0.836c-2.704,0.025-5.408,0.036-8.112,0.01
			c-0.522-0.005-0.784,0.154-1.085,0.588c-1.245,1.796-3.452,1.855-4.671,0.094c-0.378-0.546-0.744-0.67-1.332-0.665
			c-2.016,0.017-4.035-0.06-6.049,0.005c-0.94,0.03-1.23-0.292-1.12-1.175c0.062-0.497-0.002-1.009,0.046-1.51
			c0.195-2.053,1.391-3.203,3.432-3.089c0.844,0.047,1.131-0.375,0.799-0.855c-0.79-1.143,0.092-1.424,0.747-1.881
			c0.297-0.207,0.594-0.413,1.159-0.806c0,2.017-0.047,3.812,0.027,5.602c0.025,0.593-0.486,1.497,0.405,1.756
			c0.75,0.218,1.44,0.083,2.023-0.84c0.958-1.516,3.349-1.418,4.309,0.104c0.46,0.729,0.947,0.803,1.67,0.796
			c2.979-0.03,5.961,0.045,8.937-0.044c1.078-0.032,1.396,0.302,1.249,1.298c-0.039,0.262,0.007,0.551,0.075,0.812
			c0.114,0.437,0.401,0.727,0.879,0.727c0.549,0,0.869-0.328,0.898-0.844c0.049-0.868,0.054-1.741,0.033-2.61
			c-0.019-0.791-0.66-0.474-1.034-0.477c-2.842-0.026-5.684-0.014-8.526-0.014C175.511,103.492,175.071,103.492,174.341,103.492z
			 M161.755,104.624c0.789,0.024,1.575,0.218,1.423-1c-0.08-0.646,0.058-1.343-0.899-1.298c-0.999,0.047-1.575,0.564-1.65,1.605
			C160.549,105.027,161.378,104.499,161.755,104.624z M169.656,106.767c0.71-0.1,1.12-0.52,1.089-1.185
			c-0.031-0.682-0.388-1.234-1.174-1.228c-0.783,0.006-1.152,0.531-1.129,1.24C168.466,106.323,168.935,106.724,169.656,106.767z"/>
		<path style="fill:#151515;" d="M204.273,93.935c0.37,0.518,0.716,1.056,1.117,1.548c0.396,0.486,1.213,0.841,0.199,1.551
			c-0.187,0.131-0.094,0.692-0.095,1.054c-0.007,2.514-0.015,5.029,0.002,7.543c0.004,0.643,0.034,1.134-0.891,1.117
			c-0.863-0.016-0.811-0.484-0.81-1.061c0.007-3.787,0.004-7.574,0.004-11.362C203.957,94.197,204.115,94.066,204.273,93.935z"/>
		<path style="fill:#151515;" d="M161.528,95.316c-0.683,0.416-1.136,1.786-2.17,0.359c-0.498-0.688,0.059-0.859,0.318-1.21
			c0.303-0.411,0.644-0.683,1.054-0.108c0.505,0.707,1.006,0.781,1.533,0.019c0.45-0.652,0.754-0.245,1.156,0.114
			c0.593,0.53,0.509,0.896-0.028,1.416c-0.433,0.42-0.724,0.65-1.17,0.064C162.031,95.72,161.762,95.532,161.528,95.316z"/>
		<g>
			<path style="fill:#151515;" d="M170.655,115.764c0,2.2,0.046,4.197-0.02,6.19c-0.031,0.925,0.184,1.357,1.187,1.222
				c0.539-0.072,1.104-0.051,1.644,0.021c1.084,0.144,1.336-0.663,0.901-1.196c-0.803-0.982-0.035-1.289,0.452-1.78
				c0.38-0.384,0.784-0.744,1.417-1.339c0,1.326,0.025,2.391-0.01,3.454c-0.02,0.616,0.099,0.944,0.825,0.849
				c0.585-0.076,1.188-0.026,1.783-0.018c1.486,0.022,2.264-1.079,1.433-2.348c-0.457-0.698-0.244-0.886,0.164-1.278
				c0.521-0.5,1.025-1.019,1.778-1.772c0,2.442,0.014,4.568-0.007,6.694c-0.009,0.844-0.7,0.558-1.132,0.559
				c-4.67,0.018-9.34,0.011-14.01,0.011c-2.883,0-2.953-0.083-2.532-2.968c0.264-1.808,1.589-2.99,3.438-2.785
				c1.076,0.119,1.076-0.606,0.765-0.96c-0.859-0.979,0.011-1.203,0.526-1.602C169.642,116.419,170.061,116.166,170.655,115.764z
				 M167.383,123.181c0.803,0.026,1.591,0.213,1.452-1.013c-0.075-0.658,0.03-1.365-0.896-1.332
				c-0.997,0.036-1.576,0.597-1.675,1.627C166.158,123.573,167.001,123.061,167.383,123.181z"/>
			<path style="fill:#0D0D0D;" d="M201.911,117.82c0,3.132,0,5.951,0,9.257c-1.603-2.983-4.092-1.802-6.219-2.058
				c-0.671-0.081-0.8,0.436-1.09,0.837c-1.066,1.474-3.347,1.605-4.363,0.103c-0.573-0.847-1.168-0.954-2.028-0.947
				c-3.055,0.025-3.055,0.007-3.055-3.038c0-1.832,0-3.665,0-5.497c0-0.229,0.092-0.519-0.014-0.678
				c-1.275-1.91,0.842-2.228,1.65-3.231c0,3.046-0.026,6.093,0.027,9.138c0.008,0.481-0.494,1.437,0.437,1.418
				c0.877-0.018,1.937,0.622,2.696-0.578c1.135-1.795,3.493-1.793,4.657-0.032c0.363,0.549,0.726,0.709,1.322,0.685
				c0.869-0.036,1.74-0.009,2.611-0.009c1.569,0,2.373-1.008,1.56-2.305c-0.52-0.829-0.183-1.052,0.254-1.488
				C200.807,118.948,201.251,118.491,201.911,117.82z M193.46,124.054c-0.123-0.678-0.43-1.215-1.235-1.165
				c-0.714,0.044-1.071,0.524-1.056,1.195c0.017,0.75,0.465,1.199,1.229,1.173C193.111,125.232,193.436,124.768,193.46,124.054z"/>
			<path style="fill:#151515;" d="M167.022,114.15c0.683-0.457,1.157-1.783,2.176-0.351c0.496,0.698-0.1,0.853-0.349,1.211
				c-0.315,0.452-0.671,0.624-1.053,0.078c-0.525-0.751-1.02-0.692-1.525,0.017c-0.475,0.666-0.765,0.185-1.157-0.144
				c-0.629-0.53-0.466-0.909,0.039-1.414c0.429-0.43,0.736-0.63,1.174-0.047C166.513,113.748,166.785,113.933,167.022,114.15z"/>
			<path style="fill:#151515;" d="M175.654,130.053c-0.235-0.214-0.43-0.34-0.556-0.516c-0.51-0.717-0.988-0.658-1.477,0.017
				c-0.543,0.749-0.857,0.146-1.26-0.191c-0.51-0.426-0.507-0.755-0.001-1.19c0.41-0.353,0.726-0.939,1.267-0.2
				c0.506,0.691,0.968,0.691,1.481,0.002c0.208-0.279,0.527-0.649,0.859-0.176c0.259,0.369,1.005,0.534,0.706,1.143
				C176.466,129.364,176.019,129.67,175.654,130.053z"/>
			<path style="fill:#151515;" d="M201.589,128.239c-0.312,0.343-0.561,0.664-0.858,0.93c-0.363,0.324-0.586-0.025-0.769-0.255
				c-0.443-0.557-0.839-0.598-1.261,0.015c-0.43,0.625-0.784,0.326-1.174-0.083c-0.352-0.369-0.602-0.663-0.092-1.108
				c0.415-0.362,0.769-0.856,1.281-0.154c0.481,0.66,0.87,0.409,1.28-0.082c0.192-0.229,0.413-0.554,0.763-0.188
				C201.036,127.604,201.296,127.911,201.589,128.239z"/>
			<path style="fill:#151515;" d="M180.535,114.757c-0.507,0.465-0.912,1.136-1.369,1.173c-0.5,0.041-1.171-0.642-1.192-1.129
				c-0.026-0.593,0.668-1.247,1.217-1.243C179.616,113.561,180.036,114.281,180.535,114.757z"/>
		</g>
		<path style="fill:#F5F5F5;" d="M183.301,127.44c-0.024,0.714-0.349,1.178-1.062,1.203c-0.764,0.026-1.212-0.423-1.229-1.173
			c-0.015-0.671,0.342-1.151,1.056-1.195C182.872,126.225,183.178,126.761,183.301,127.44z"/>
		<path style="fill:#ED1C24;" d="M288.947,357.377c-51.108,0-92.54-35.769-92.54-79.893c0-44.124,41.431-79.893,92.54-79.893
			c16.356,0,31.718,3.669,45.051,10.097c-20.319-18.038-48.459-29.208-79.556-29.208c-61.956,0-112.181,44.325-112.181,99.004
			s50.225,99.004,112.181,99.004c31.098,0,59.237-11.169,79.556-29.208C320.664,353.708,305.303,357.377,288.947,357.377z"/>
		<g>
			<path style="fill:#559AFF;" d="M403.786,270.878c-2.155,80.384-67.991,144.886-148.895,144.886s-146.74-64.502-148.895-144.886
				h-61.36c2.169,114.884,95.962,207.35,211.364,207.35s209.195-92.466,211.364-207.35H403.786z"/>
			<path style="fill:#000C7A;" d="M256,481c-56.493,0-109.796-21.802-150.087-61.388c-40.239-39.534-62.985-92.338-64.049-148.682
				l-0.054-2.825h66.884l0.072,2.698c2.138,79.731,66.322,142.188,146.124,142.188s143.987-62.457,146.124-142.188l0.072-2.698
				h69.102l-0.054,2.825c-1.063,56.344-23.809,109.147-64.048,148.682C365.795,459.198,312.493,481,256,481z M47.48,273.65
				C51.104,385.187,144.056,475.456,256,475.456s204.896-90.269,208.52-201.806h-58.059c-1.711,38.636-17.861,74.695-45.656,101.8
				c-28.494,27.784-66.108,43.086-105.914,43.086s-77.42-15.302-105.914-43.086c-27.795-27.104-43.945-63.164-45.657-101.8H47.48z"
				/>
		</g>
		<g>
			<path style="fill:#FFFFFF;" d="M317.603,210.434c0,0-2.196-1.921-6.038-0.823s-8.782,5.214-8.782,5.214s3.293,5.214,6.038,5.214
				c2.744,0,8.508,1.372,9.057,0.549S317.603,210.434,317.603,210.434z"/>
			<path style="fill:#FFFFFF;" d="M328.581,263.126l-6.038-7.959c0,0-10.154,0.549-10.703,1.372
				c-0.549,0.823,3.293,6.861,4.117,7.959c0.823,1.098,10.154,4.391,10.154,4.391l3.842-2.47L328.581,263.126z"/>
			<g>
				<path style="fill:#FFFFFF;" d="M265.682,229.318l-7.092-3.392l-13.259-2.158l-12.643,2.775l-4.009,5.55
					c0,0-0.925,15.418-0.925,16.343s-2.158,20.66-2.158,20.66l14.493,13.876l-0.617,8.942l-4.934,27.135l5.48,17.888l-1.163,8.939
					l7.632,6.23l5.319-0.372c0,0,2.158-3.084,2.158-4.009s3.7-12.951,3.7-14.184s-0.308-11.718,0-12.643
					c0.308-0.925-1.233-9.559-1.233-9.559l12.951-11.101c0,0,4.625-9.867,4.625-10.792c0-0.925-6.167-9.867-6.167-9.867
					l-6.784-4.625l-3.084-11.409l4.625-6.167l3.7-4.317l0.925-8.326L265.682,229.318z"/>
				<path style="fill:#FFFFFF;" d="M343.696,296.231c0,0-8.634,4.934-9.559,7.092c-0.925,2.159-10.176,15.109-9.867,16.651
					c0.308,1.542,17.268,6.167,18.193,5.55c0.925-0.617,8.634-5.242,9.867-7.401c1.233-2.159,4.934-18.501,4.934-18.501
					L343.696,296.231z"/>
				<path d="M236.627,330.137c-7.705-1.583-12.905-5.705-16.708-11.679c-3.023-4.749-0.925-13.121,4.593-17.073
					c2.867-2.053,6.169-3.608,9.459-4.929c3-1.205,3.393-3.27,3.282-6.028c-0.126-3.161-2.398-2.701-4.41-3.136
					c-3.46-0.748-7.02-1.416-10.245-2.8c-12.947-5.556-13.607-28.177-2.9-35.103c4.654-3.01,6.348-6.44,6.109-12.005
					c-0.34-7.913,3.294-11.827,10.833-14.14c7.826-2.401,15.555-2.023,23.2,0.515c3.745,1.243,5.225-0.103,5.737-3.729
					c1.646-11.649,9.409-14.981,19.402-8.411c6.798,4.47,6.812,4.489,13.204-0.127c3.248-2.345,6.43-4.78,9.65-7.164
					c4.643-3.438,11.252-1.967,14.898,2.586c1.453,1.815,4.351,3.368,6.636,3.433c4.562,0.129,8.017,0.935,10.115,5.519
					c0.877,1.916,3.302,3.075,4.444,4.934c0.833,1.357,1.291,3.477,0.838,4.918c-0.349,1.11-2.488,2.533-3.637,2.378
					c-8.824-1.192-13.771,4.509-19.668,10.94c2.295,0,3.802,0.109,5.288-0.018c8.735-0.744,17.456-1.716,26.204-2.228
					c2.936-0.172,5.868,0.802,7.28,4.078c2.581,5.989,5.851,11.749,7.795,17.931c5.662,18.008,3.253,35.317-3.438,52.946
					c-4.597,12.111-13.264,20.327-20.846,29.89c-6.384,8.053-13.235,7.388-21.736,5.244c-5.211-1.315-10.974-0.461-16.489-0.539
					c-1.64-0.023-3.288,0.025-4.921,0.169c-5.98,0.525-11.478,0.072-14.248-8.064c-1.329,6.382,3.067,11.841-1.902,17.022
					c-0.836-1.41-1.62-2.489-2.159-3.678c-4.09-9.025-10.893-14.433-20.658-16.555c-3.979-0.865-3.927,0.908-3.841,3.665
					c0.087,2.795,0.221,5.63-0.125,8.39c-0.877,6.997-10.294,11.596-15.876,7.317c-2.52-1.931-4.425-5.737-4.942-8.96
					C236.03,340.579,236.627,335.287,236.627,330.137z M283.383,334.929c0.072-1.314,0.17-2.033,0.141-2.746
					c-0.257-6.285-0.133-6.201,5.931-7.147c1.898-0.296,4.306-1.566,5.229-3.129c3.836-6.495,8.151-7.533,14.068-2.808
					c2.853,2.278,5.686,4.582,9.468,7.632c0-2.517,0.269-3.991-0.068-5.31c-0.422-1.65-1.76-3.123-1.955-4.761
					c-0.333-2.795-0.262-5.674-0.034-8.491c0.281-3.472-1.01-4.768-4.541-4.664c-6.858,0.201-13.732,0.187-20.587-0.059
					c-1.369-0.049-3.762-1.437-3.846-2.372c-0.396-4.411-0.475-8.91-0.059-13.32c0.568-6.024,0.8-5.803,6.771-5.699
					c11.772,0.205,23.583,0.753,35.314,0.068c12.352-0.721,15.7-4.435,16.93-14.25c1.173-9.364-7.902-16.775-17.738-12.571
					c4.079,1.938,8.157,3.876,13.008,6.181c-3.174,3.534-6.102,7.229-9.538,10.368c-1.122,1.025-3.633,1.005-5.394,0.729
					c-2.001-0.314-4.025-1.203-5.769-2.279c-3.679-2.271-5.372-0.66-6.726,2.735c-0.568,1.425-1.558,2.962-2.797,3.79
					c-6.178,4.13-13.493,1.492-15.679-5.47c-0.209-0.667-0.5-1.307-0.931-2.418c-2.184,1.143-4.073,2.22-6.034,3.141
					c-4.516,2.12-10.428,0.152-13.717-4.495c-1.886-2.664-0.738-6.569,3.109-10.146c1.634-1.519,3.616-2.696,5.091-4.341
					c1.16-1.295,2.578-3.101,2.52-4.628c-0.413-10.807,5.276-11.855,12.343-13.686c4.892-1.268,9.465-3.953,13.989-6.364
					c2.015-1.074,1.842-3.519-0.303-4.057c-6.626-1.661-13.341-2.848-19.826,0.946c-3.722,2.177-7.442,4.916-11.512,5.812
					c-6.532,1.438-8.301,5.748-9.452,11.294c-1.52,7.324-1.043,15.608-10.334,19.174c-1.619,0.622-2.094,5.363-2.153,8.221
					c-0.018,0.858,3.17,1.766,4.874,2.679c3.633,1.945,7.425,3.653,10.845,5.921c6.089,4.037,7.491,11.95,4.448,18.478
					c-3.387,7.265-9.606,10.735-16.152,14.255c-1.752,0.942-2.626,3.518-3.902,5.344c1.417,0.939,2.715,2.233,4.272,2.756
					c7.668,2.574,14.871,5.648,18.514,13.667C281.507,333.588,282.366,334.014,283.383,334.929z M230.287,242.265
					c-1.289,6.172-0.215,10.833,3.303,11.866c6.342,1.863,7.508,6.46,7.695,12.022c0.037,1.092,0.55,3.046,1.021,3.102
					c3.076,0.365,6.299,0.773,9.255,0.141c0.952-0.203,1.65-3.474,1.756-5.382c0.236-4.228,1.481-7.267,5.866-8.93
					c5.149-1.953,6.649-5.999,5.139-12.465C252.978,247.47,241.56,247.19,230.287,242.265z M247.244,243.068
					c5.103-1.486,9.676-2.28,13.761-4.143c5.152-2.35,5.172-5.971,0.846-9.545c-6.313-5.215-23.926-4.491-30.182,1.298
					c-2.58,2.388-2.564,5.541,0.939,7.242C237.278,240.186,242.442,241.434,247.244,243.068z M252.508,303.152
					c0.007,0,0.014,0,0.021,0c0-2.827-0.019-5.653,0.004-8.479c0.058-7.297,0.057-7.156-7.269-7.576
					c-2.824-0.162-4.079,0.36-4.111,3.46c-0.063,6.084-0.534,12.162-0.713,18.246c-0.253,8.603-0.184,8.478,8.012,9.882
					c3.167,0.542,4.076-0.698,4.062-3.482C252.492,311.185,252.508,307.169,252.508,303.152z M240.351,336.89
					c-0.111,0.016-0.222,0.032-0.334,0.048c0.412,3.076,0.285,6.367,1.404,9.16c0.925,2.309,3.322,4.028,5.066,6.009
					c1.708-2.017,4.354-3.804,4.919-6.102c1.008-4.103,0.858-8.512,0.964-12.798c0.025-1.003-0.725-2.799-1.354-2.911
					c-2.99-0.535-6.145-1.083-9.052-0.565c-0.856,0.152-1.11,3.778-1.598,5.822C240.265,335.975,240.351,336.443,240.351,336.89z
					 M341.3,300.968c1.448,4.437,3.872,8.917-0.639,11.464c-3.209,1.812-7.335,2-11.075,2.918c1.115,4.364,3.528,5.963,8.992,5.538
					c4.426-0.344,9.658-5.399,10.268-9.92C349.435,306.607,346.719,302.563,341.3,300.968z M310.465,211.486
					c-1.514,1.442-2.569,2.448-3.625,3.453c1.351,0.938,2.702,2.61,4.053,2.609c1.377,0,2.754-1.645,4.131-2.569
					C313.669,213.941,312.314,212.903,310.465,211.486z M324.816,264.308c0.287-0.388,0.573-0.776,0.86-1.164
					c-1.007-4.073-2.6-4.98-7.084-2.865C321.033,261.859,322.924,263.083,324.816,264.308z"/>
			</g>
		</g>
		<g>
			<g>
				<path d="M94.77,317.167c-0.372-0.219-0.558-0.329-0.93-0.551c-0.376-0.241-0.564-0.362-0.939-0.607
					c-0.678-0.446-1.051-0.732-1.12-0.848c0.015-0.1,0.022-0.149,0.037-0.249c0.031-0.28,0.143-0.817,0.343-1.61
					c0.304-1.166,0.511-1.817,0.603-1.961c-0.199-0.16-0.299-0.24-0.497-0.402c-0.18-0.155-0.27-0.232-0.45-0.388
					c-0.532-0.482-0.857-0.726-0.975-0.724c0.011-0.36,0.05-0.692,0.117-0.995c0.133-0.469,0.201-0.704,0.337-1.172
					c0.113-0.338,0.17-0.507,0.285-0.845c0.145-0.394,0.278-0.679,0.398-0.857c0.816,0.633,1.225,0.944,2.046,1.557
					c0.336,0.259,0.504,0.388,0.84,0.643c-0.136,0.243-0.417,0.841-0.758,1.765c-0.303,0.822-0.414,1.384-0.37,1.616
					c0.029,0.154,0.217,0.362,0.565,0.622c0.612,0.487,0.918,0.728,1.533,1.202C95.393,314.879,95.18,315.64,94.77,317.167z
					 M76.028,328.218c-0.336-1.257-0.498-1.889-0.813-3.161c-0.271-1.094,0.414-2.259,1.861-2.925
					c1.106-0.509,1.952-0.75,2.129-0.891c0.081-0.038,0.122-0.057,0.203-0.095c-0.053-0.114-0.08-0.171-0.133-0.285
					c-0.259-0.346-0.996-0.711-2.212-1.113c-1.216-0.402-1.89-0.918-2.019-1.535c-0.054-0.257-0.109-1.554-0.104-3.909
					c-0.013-1.164-0.015-1.747-0.011-2.916c-0.011-0.374-0.016-0.561-0.025-0.935c-0.026-0.265-0.039-0.397-0.065-0.662
					c0.521-0.073,1.64,0.123,3.357,0.557c1.717,0.434,2.901,0.935,3.555,1.519c0.418,0.346,1.047,1.079,1.899,2.17
					c1.222,1.52,1.841,2.262,3.091,3.712c0.172-0.034,0.405-0.163,0.7-0.386c0.248-0.138,0.372-0.207,0.62-0.344
					c0.615,0.277,0.923,0.413,1.539,0.683c0.528,0.198,0.793,0.296,1.321,0.489c0.601,0.198,0.902,0.296,1.504,0.488
					c-0.75,0.33-1.125,0.496-1.873,0.83c-0.744,0.314-1.116,0.472-1.859,0.789c-2.2,0.847-3.299,1.276-5.492,2.146
					c-1.653,0.67-2.616,1.119-2.893,1.336c-0.172,0.215-0.258,0.322-0.43,0.538c-0.101,0.195-0.096,0.516,0.016,0.957
					c0.05,0.196,0.075,0.294,0.126,0.49c0.144,0.558,0.217,0.836,0.365,1.391C78.642,327.582,77.771,327.794,76.028,328.218z
					 M80.98,320.562c0.223-0.046,0.334-0.069,0.557-0.115c0.297-0.113,0.446-0.169,0.744-0.281c0.2-0.041,0.385-0.114,0.556-0.217
					c0.282-0.139,0.424-0.209,0.706-0.348c1.203-0.5,1.848-0.822,1.934-0.973c-0.315-0.339-0.716-0.604-1.205-0.795
					c-0.51-0.164-0.765-0.247-1.276-0.415c-0.471-0.251-0.982-0.759-1.526-1.536c-0.657-0.952-0.983-1.435-1.629-2.411
					c-0.024,0.348-0.036,0.521-0.058,0.869c-0.013,0.398-0.019,0.596-0.029,0.993c0.018,0.361,0.027,0.541,0.046,0.901
					c0.058,0.51,0.065,0.829,0.018,0.958c0.067,0.58,0.102,0.87,0.173,1.448c0.108,0.498,0.163,0.746,0.274,1.242
					c0.075,0.296,0.113,0.443,0.19,0.738C80.664,320.596,80.769,320.585,80.98,320.562z"/>
				<path d="M80.405,327.152c2.083,7.763,3.328,11.493,6.176,18.648c-1.689,0.613-2.534,0.919-4.223,1.532
					c-2.919-7.334-4.196-11.157-6.33-19.114C77.779,327.792,78.654,327.579,80.405,327.152z"/>
				<path d="M86.54,345.815c1.356,3.418,2.077,5.093,3.597,8.373c0.076,0.019,0.114,0.029,0.19,0.048
					c0.938-0.231,1.407-0.348,2.344-0.583c0.256-0.109,0.385-0.163,0.641-0.272c0.209-0.089,0.313-0.133,0.521-0.221
					c0.192-0.041,0.288-0.062,0.48-0.103c0.793,0.215,1.189,0.32,1.981,0.525c1.254,0.337,1.966,0.57,2.139,0.725
					c-0.044,0.049-0.066,0.074-0.11,0.123c-0.096,0.062-0.143,0.093-0.239,0.156c-0.649,0.289-1.385,0.534-2.208,0.731
					c-0.84,0.242-1.26,0.362-2.101,0.602c-0.1,0.034-0.149,0.051-0.249,0.085c-0.544,0.24-0.91,0.699-1.092,1.379
					c-0.094,0.333-0.121,0.672-0.079,1.013c0.041,0.198,0.061,0.297,0.103,0.496c0.081,0.2,0.122,0.3,0.205,0.5
					c0.243,0.477,0.365,0.715,0.611,1.19c-1.614,0.757-2.421,1.135-4.035,1.892c-0.566-1.091-0.845-1.641-1.394-2.748
					c-0.386-0.779-0.512-1.612-0.307-2.37c0.176-0.65,0.699-1.35,1.466-2.039c-1.398-0.195-2.098-0.299-3.499-0.521
					c-1.33-2.928-1.965-4.418-3.168-7.453C84.019,346.73,84.859,346.425,86.54,345.815z M82.474,362.54
					c-0.458-0.1-0.686-0.15-1.144-0.253c-0.115-0.037-0.173-0.055-0.288-0.092c-0.135-0.039-0.203-0.058-0.338-0.097
					c-0.247-0.089-0.37-0.133-0.617-0.223c-0.67-0.219-1.124-0.427-1.361-0.619c-0.003-0.209-0.005-0.313-0.008-0.522
					c0.001-0.321,0.003-0.482,0.006-0.803c0.016-0.294,0.024-0.44,0.042-0.734c0.053-0.815,0.082-1.222,0.144-2.035
					c-0.62-0.314-0.929-0.473-1.548-0.795c-0.529-0.226-0.83-0.336-0.904-0.325c-0.083-0.298-0.126-0.667-0.125-1.108
					c-0.004-0.251-0.006-0.377-0.009-0.629c0.029-0.264,0.044-0.397,0.074-0.661c0.108-0.901,0.226-1.491,0.345-1.773
					c0.999,0.41,1.498,0.61,2.497,1.001c0.443,0.195,0.664,0.292,1.107,0.484c-0.191,0.399-0.337,1.219-0.418,2.463
					c-0.017,0.531,0.004,0.967,0.063,1.306c0.074,0.056,0.11,0.084,0.184,0.141c0.224,0.114,0.336,0.171,0.56,0.284
					c0.79,0.343,1.185,0.511,1.975,0.842C82.597,360.048,82.55,360.878,82.474,362.54z"/>
				<path d="M93.275,360.579c1.922,3.703,2.937,5.507,5.065,9.022c0.165,0.256,0.248,0.384,0.414,0.64
					c0.112,0.184,0.2,0.311,0.26,0.382c0.168,0.135,0.287,0.245,0.356,0.329c0.31,0.336,0.809,0.767,1.499,1.287
					c1.231,0.966,1.937,1.389,2.108,1.307c-0.358-1.364-0.53-2.048-0.857-3.418c-0.503-1.946-0.842-3.118-1.074-3.508
					c-0.554-0.934-1.048-1.545-1.493-1.828c-0.609-0.33-0.914-0.497-1.522-0.837c1.205,0.038,1.807,0.052,3.008,0.072
					c2.172,0.3,3.652,0.976,4.469,2.068c0.176,0.255,0.264,0.383,0.441,0.637c0.669,1.087,1.099,2.59,1.376,4.454
					c0.387,2.604,0.814,4.384,1.091,5.273c0.261,0.651,0.393,0.976,0.661,1.625c0.305,0.656,0.46,0.984,0.773,1.636
					c0.614,1.187,1.213,2.145,1.785,2.879c-0.689,0.18-1.033,0.269-1.724,0.445c-0.486,0.145-0.729,0.217-1.216,0.361
					c-0.218,0.093-0.483,0.162-0.791,0.206c0.853,1.114,1.285,1.666,2.16,2.757c-1.447,1.013-2.171,1.52-3.618,2.533
					c-1.574-1.963-2.344-2.962-3.848-4.997c0.982-0.904,1.475-1.355,2.463-2.253c-0.07-0.096-0.105-0.144-0.175-0.239
					c-0.162-0.221-0.242-0.332-0.403-0.555c-0.218-0.359-0.326-0.539-0.542-0.901c-0.413-0.593-0.618-0.892-1.025-1.491
					c-0.404-0.579-0.604-0.87-1.002-1.456c-0.302-0.444-0.769-0.899-1.402-1.372c-0.634-0.474-1.536-1.01-2.651-1.639
					c-0.917-0.517-1.772-1.083-2.516-1.654c-0.684-0.525-1.157-1.026-1.417-1.461c-1.963-3.286-2.903-4.969-4.691-8.414
					C90.853,361.714,91.66,361.336,93.275,360.579z"/>
				<path d="M110.065,386.369c1.62,2.021,2.45,3.012,4.143,4.954c0.828-0.929,1.244-1.392,2.078-2.315
					c0.231-0.082,0.986-0.104,2.256-0.087c1.132,0.002,1.697-0.001,2.823-0.017c-1.649,1.445-2.472,2.17-4.115,3.621
					c-0.316,0.247-0.52,0.575-0.609,0.985c0.039,0.208,0.058,0.312,0.097,0.52c0.124,0.186,0.186,0.279,0.311,0.465
					c0.188,0.204,0.282,0.306,0.471,0.51c0.183,0.185,0.275,0.277,0.459,0.461c0.134,0.101,0.368,0.212,0.626,0.353
					c0.425,0.233,1.036,0.524,1.796,0.737c1.204,0.337,1.805,0.499,3.007,0.81c2.627,0.58,3.937,0.84,6.546,1.301
					c2.723,0.57,4.386,1.075,5.009,1.626c0.772,0.681,1.261,1.982,1.522,3.924c0.261,1.942,0.089,3.263-0.58,3.955
					c-0.086,0.039-0.129,0.058-0.215,0.097c-0.214,0.116-0.416,0.179-0.607,0.188c-0.843,0.229-1.266,0.341-2.114,0.561
					c-0.167,0.081-0.251,0.122-0.418,0.203c0.785,0.652,1.179,0.975,1.974,1.615c-1.204,1.256-1.806,1.884-3.01,3.141
					c-7.222-6.169-13.64-12.292-20.14-19.219c-0.102-0.115-0.075-0.376,0.082-0.783c0.509-0.616,0.764-0.924,1.276-1.537
					c-1.246,0.124-1.87,0.182-3.123,0.287c-1.286-1.506-1.919-2.271-3.163-3.822C107.894,387.888,108.618,387.382,110.065,386.369z
					 M130.814,407.057c0.162,0.027,0.4-0.029,0.597-0.186c0.327-0.261,0.351-1.118,0.081-2.371c-0.129-0.601-0.304-1.124-0.527-1.57
					c-0.106-0.186-0.16-0.279-0.265-0.465c-0.078-0.093-0.117-0.139-0.195-0.232c-0.098-0.122-0.146-0.183-0.243-0.306
					c-0.698-0.632-1.529-1.101-2.503-1.411c-1.556-0.374-2.335-0.572-3.894-0.988c-1.145-0.346-1.718-0.524-2.864-0.894
					c3.101,3.134,4.702,4.642,7.995,7.543C129.595,406.705,130.203,406.997,130.814,407.057z"/>
				<path d="M134.526,410.835c2.444,1.969,3.689,2.924,6.221,4.773c0.193,0.002,0.471-0.203,0.832-0.618
					c0.64-0.732,1.408-1.891,2.319-3.468c0.564-1.017,0.848-1.525,1.42-2.538c0.666-1.132,1.001-1.697,1.675-2.823
					c-0.161-0.699-0.24-1.048-0.391-1.746c1.03-0.414,1.543-0.624,2.564-1.051c0.661-0.242,0.991-0.365,1.648-0.612
					c0.447-0.131,0.67-0.197,1.115-0.33c-0.172,0.208-0.258,0.312-0.43,0.52c-0.093,0.106-0.148,0.188-0.163,0.246
					c-0.023,0.098-0.034,0.147-0.056,0.246c-0.078,0.169-0.12,0.522-0.123,1.057c0.36,1.083,0.546,1.624,0.932,2.706
					c0.192,0.453,0.29,0.68,0.487,1.133c0.16,0.305,0.241,0.457,0.404,0.761c-2.009,0.559-3.023,0.826-5.068,1.332
					c-0.027,0.032-0.041,0.048-0.069,0.08c-0.307,0.411-0.461,0.617-0.767,1.028c-0.232,0.31-0.348,0.465-0.579,0.776
					c-0.137,0.212-0.205,0.319-0.342,0.531c-0.165,0.285-0.247,0.428-0.411,0.714c-0.659,1.038-0.986,1.558-1.64,2.6
					c-0.146,0.172-0.217,0.306-0.237,0.347c-0.13,0.267-0.812,0.791-1.677,1.467c-0.45,0.351-0.676,0.527-1.127,0.877
					c-0.326,0.268-0.537,0.44-0.633,0.518c-0.096,0.078-0.289,0.194-0.579,0.349c-0.018,0.09-0.216,0.079-0.594-0.037
					c-0.191-0.096-0.287-0.144-0.478-0.24c-0.171-0.092-0.256-0.138-0.427-0.231c-2.784-2.02-4.152-3.065-6.834-5.226
					C132.72,412.72,133.322,412.092,134.526,410.835z"/>
				<path d="M153.625,421.732c-1.093,1.471-2.28,2.627-3.549,3.462c-0.855,0.563-1.817,1.006-2.884,1.307
					c3.356-5.76,5.068-8.622,8.56-14.306c0.104-0.132,0.881-0.518,2.313-1.178c1.283-0.533,1.92-0.804,3.186-1.357
					c-0.303,0.521-0.454,0.781-0.755,1.303c-0.507,0.876-0.76,1.315-1.264,2.193C157.092,416.699,155.235,419.565,153.625,421.732z"
					/>
				<path d="M183.475,436.356c-1.273,1.249-1.916,1.87-3.214,3.104c-0.899-0.634-1.345-0.954-2.229-1.6
					c-0.314-0.19-0.47-0.286-0.783-0.477c-0.453-0.232-0.679-0.348-1.13-0.583c-0.412-0.173-0.617-0.261-1.028-0.437
					c-0.156-0.067-0.235-0.101-0.391-0.168c-0.192-0.083-0.328-0.126-0.41-0.132c-0.131-0.057-0.196-0.085-0.327-0.142
					c-0.197-0.05-0.295-0.075-0.491-0.125c-0.253-0.057-0.379-0.085-0.632-0.143c-0.96-0.289-1.758-0.403-2.398-0.331
					c-0.127,0.024-0.19,0.036-0.317,0.06c-0.352,1.076-0.527,1.615-0.872,2.694c-0.383,1.016-0.573,1.524-0.952,2.542
					c-0.362,0.78-0.543,1.17-0.903,1.951c-0.121,0.217-0.223,0.383-0.305,0.497c-0.081,0.114-0.249,0.318-0.503,0.612
					c-0.127,0.169-0.191,0.254-0.319,0.423c-0.054,0.096-0.155,0.194-0.301,0.294c-0.128,0.151-0.192,0.226-0.32,0.377
					c-0.208,0.178-0.313,0.267-0.522,0.444c-1.131,1.135-1.889,1.682-2.259,1.648c0.011-0.059,0.017-0.088,0.028-0.146
					c0.076-0.193,0.115-0.289,0.191-0.482c0.074-0.13,0.111-0.195,0.186-0.324c0.089-0.156,0.13-0.259,0.121-0.308
					c1.642-4.393,2.485-6.581,4.217-10.939c0.147-0.251,0.799-0.62,1.944-1.12c0.669-0.253,1.003-0.381,1.667-0.64
					c0.184-0.143,1.055-0.147,2.608-0.043c1.55,0.104,2.802,0.267,3.759,0.507c0.374,0.113,0.561,0.169,0.935,0.28
					c-0.159-0.299-0.238-0.448-0.395-0.747c-0.132-0.217-0.198-0.325-0.328-0.542c-0.612-0.917-1.277-1.537-2.015-1.863
					c-0.541-0.239-1.212-0.298-2.021-0.181c-0.865,0.252-1.299,0.376-2.171,0.618c0.472-0.456,0.707-0.684,1.177-1.142
					c1.008-0.719,1.873-1.256,2.606-1.605c0.174-0.085,0.261-0.127,0.434-0.212c0.2-0.064,0.3-0.096,0.5-0.16
					c0.27-0.069,0.406-0.104,0.675-0.174c0.243-0.055,0.364-0.083,0.606-0.138c0.863-0.116,1.55-0.066,2.066,0.155
					c0.169,0.072,0.322,0.244,0.476,0.45c0.154,0.206,0.374,0.525,0.599,0.946c0.227,0.426,0.342,0.638,0.574,1.064
					c0.126,0.239,0.189,0.358,0.316,0.597c0.108,0.193,0.213,0.428,0.313,0.705c0.195,0.405,0.444,1.09,0.756,2.054
					C182.994,434.625,183.15,435.202,183.475,436.356z"/>
				<path d="M203.552,449.188c-0.72-0.181-1.08-0.273-1.798-0.46c-1.018,1.492-2.587,2.876-4.722,4.122
					c-2.418,1.411-4.531,1.857-6.242,1.335c-0.979-0.298-2.556-1.299-4.65-3.043c-2.094-1.743-3.102-2.874-3.014-3.176
					c0.05-0.171,0.276-0.258,0.578-0.209c0.8,0.544,1.203,0.814,2.014,1.349c0.297,0.188,0.446,0.281,0.745,0.468
					c0.325,0.196,0.621,0.337,0.89,0.426c0.521,0.172,1.044,0.313,1.565,0.424c0.52,0.109,1.036,0.18,1.545,0.21
					c1.042,0.083,2.259-0.078,3.632-0.477c1.237-0.36,2.378-0.733,3.411-1.122c0.429-0.194,0.643-0.291,1.07-0.487
					c0.164-0.082,0.247-0.123,0.411-0.205c0.16-0.1,0.24-0.15,0.4-0.25c-0.229-0.063-0.344-0.094-0.573-0.158
					c-1.662-0.46-3.033-1.047-4.092-1.691c-1.576-0.957-2.146-2.053-1.664-3.275c0.337-0.853,1.514-2.14,3.388-3.9
					c2.322-2.181,4.105-3.148,5.444-2.77c1.025,0.289,1.707,1.734,1.94,4.213c0.177,1.88,0.098,3.295-0.167,4.112
					c-0.033,0.101-0.049,0.152-0.082,0.253c0.493,0.127,0.74,0.19,1.234,0.314C204.31,446.791,204.057,447.59,203.552,449.188z
					 M200.47,443.308c-0.001-0.483-0.001-0.725,0-1.208c-0.029-0.186-0.043-0.279-0.071-0.465c-0.073-0.216-0.11-0.324-0.182-0.539
					c-0.232-0.745-0.624-1.197-1.182-1.359c-0.462-0.134-1.004-0.024-1.634,0.329c-0.325,0.244-0.488,0.366-0.815,0.61
					c-0.174,0.461-0.03,1.011,0.443,1.648c0.287,0.284,0.578,0.515,0.868,0.692c0.292,0.177,0.629,0.32,1.016,0.43
					C199.572,443.632,200.091,443.585,200.47,443.308z"/>
				<path d="M204.817,445.193c3.304,0.83,4.967,1.21,8.309,1.902c0.441-5.154,0.695-7.727,1.269-12.863
					c0.996-0.85,1.488-1.278,2.462-2.139c0.29-0.239,0.434-0.359,0.721-0.599c0.387-0.303,0.58-0.455,0.963-0.759
					c-0.123,0.487-0.351,1.977-0.663,4.473c-0.435,2.826-0.646,4.239-1.057,7.069c-0.204,0.831-0.337,1.586-0.398,2.264
					c-0.07,0.691-0.104,1.036-0.172,1.727c-0.225,0.924,0.059,1.462,0.852,1.61c0.414,0.077,0.621,0.115,1.036,0.19
					c-0.373,1.627-0.559,2.44-0.932,4.066c-1.545-0.28-2.317-0.427-3.856-0.736c-0.196-0.039-0.36-0.293-0.492-0.764
					c0.045-0.797,0.068-1.195,0.117-1.991c-0.095,0.188-0.399,0.458-0.914,0.808c-0.702,0.527-1.056,0.789-1.768,1.31
					c-2.709-0.585-4.058-0.9-6.742-1.574C204.059,447.59,204.311,446.791,204.817,445.193z"/>
				<path d="M218.139,448.068c4.084,0.74,6.138,1.059,10.26,1.595c-0.047-0.153-0.071-0.23-0.118-0.383
					c-0.229-0.535-0.606-1.038-1.124-1.502c-0.685-0.614-1.488-0.987-2.405-1.125c-0.29-0.035-0.435-0.053-0.724-0.089
					c-0.277-0.043-0.479-0.047-0.605-0.012c0.533-0.64,0.797-0.961,1.321-1.604c0.587-0.65,0.879-0.976,1.457-1.63
					c0.111-0.123,0.166-0.185,0.277-0.308c-0.083,0.07-0.124,0.105-0.207,0.175c0.213-0.059,0.319-0.089,0.531-0.149
					c0.311-0.07,0.466-0.106,0.777-0.177c1.249-0.303,2.356-0.398,3.337-0.277c1.576,0.194,2.87,0.88,3.864,2.068
					c0.795,0.951,1.161,1.772,1.081,2.429c-0.023,0.188-0.095,0.395-0.22,0.62c-0.124,0.226-0.349,0.52-0.677,0.881
					c-0.302,0.337-0.454,0.505-0.758,0.84c-0.147,0.229-0.221,0.344-0.37,0.573c-0.051,0.117-0.077,0.175-0.129,0.292
					c1.233,0.128,1.851,0.188,3.086,0.298c-0.187,1.652-0.281,2.477-0.468,4.129c-2.202-0.197-3.301-0.309-5.496-0.562
					c-0.192-0.406-0.287-0.609-0.476-1.015c-0.098-0.273-0.147-0.409-0.245-0.683c-0.135-0.261-0.202-0.392-0.336-0.654
					c-0.069-0.147-0.104-0.221-0.173-0.368c-0.093,0.127-0.139,0.191-0.233,0.319c-0.329,0.401-0.495,0.601-0.827,1
					c-0.397,0.399-0.597,0.599-0.999,0.996c-4.151-0.543-6.22-0.865-10.333-1.611C217.58,450.508,217.767,449.695,218.139,448.068z"
					/>
				<path d="M236.791,450.582c3.168,0.283,4.756,0.394,7.935,0.558c0.156-0.1,0.252-0.413,0.286-0.938
					c0.059-0.929-0.044-2.273-0.289-4.029c-0.178-1.121-0.265-1.681-0.434-2.802c-0.168-1.267-0.249-1.9-0.407-3.167
					c-0.562-0.48-0.841-0.721-1.394-1.204c0.568-0.88,0.849-1.32,1.403-2.204c0.38-0.545,0.569-0.818,0.943-1.365
					c0.277-0.341,0.415-0.512,0.69-0.855c-0.009,0.259-0.014,0.389-0.022,0.648c-0.009,0.135-0.002,0.23,0.022,0.285
					c0.043,0.091,0.064,0.137,0.107,0.228c0.043,0.178,0.227,0.485,0.557,0.92c0.96,0.687,1.446,1.028,2.428,1.703
					c0.436,0.267,0.655,0.4,1.095,0.664c0.319,0.163,0.479,0.245,0.8,0.407c-1.27,1.506-1.919,2.254-3.248,3.739
					c-0.002,0.04-0.003,0.061-0.005,0.101c0.008,0.495,0.012,0.742,0.021,1.237c0.007,0.373,0.01,0.56,0.017,0.933
					c0.022,0.244,0.033,0.366,0.055,0.61c0.045,0.318,0.067,0.477,0.113,0.794c0.116,1.188,0.175,1.782,0.297,2.97
					c-0.01,0.216,0.016,0.361,0.025,0.406c0.058,0.277-0.162,1.068-0.437,2.07c-0.143,0.521-0.215,0.782-0.361,1.303
					c-0.097,0.388-0.159,0.64-0.187,0.752c-0.029,0.113-0.112,0.309-0.249,0.587c0.041,0.083-0.125,0.177-0.5,0.283
					c-0.214,0.023-0.32,0.035-0.534,0.057c-0.194,0.015-0.291,0.023-0.486,0.038c-3.488-0.17-5.231-0.29-8.707-0.6
					C236.51,453.06,236.604,452.234,236.791,450.582z"/>
				<path d="M258.912,449.39c0.035,1.768-0.202,3.327-0.706,4.666c-0.339,0.902-0.84,1.764-1.514,2.563
					c-0.885-6.441-1.288-9.663-2.014-16.111c0.001-0.162,0.388-0.881,1.132-2.164c0.703-1.102,1.048-1.654,1.726-2.762
					c0.081,0.582,0.121,0.873,0.203,1.455c0.137,0.978,0.207,1.467,0.348,2.445C258.57,443.485,258.86,446.787,258.912,449.39z"/>
				<path d="M281.984,449.362c0.449,2.806,0.142,5.672-1.063,8.524c-1.417,3.353-3.62,5.188-6.381,5.418
					c-1.027,0.086-1.935,0.08-2.72-0.013c-0.322-0.026-0.483-0.039-0.805-0.066c-0.145-0.004-0.255-0.01-0.328-0.018
					c-0.074-0.009-0.218-0.04-0.431-0.094c-0.372-0.049-0.557-0.074-0.928-0.125c-0.277-0.038-0.472-0.067-0.587-0.087
					c-0.114-0.021-0.309-0.063-0.588-0.129c-2.668-0.461-4.064-0.899-4.225-1.244c-0.008-0.176,0.199-0.331,0.621-0.47
					c0.307,0.036,0.461,0.054,0.768,0.09c0.76,0.113,1.141,0.168,1.904,0.275c0.433,0.042,0.65,0.063,1.084,0.104
					c0.451,0.007,0.676,0.01,1.127,0.015c0.556-0.034,0.935-0.093,1.135-0.174c0.207-0.046,0.31-0.07,0.517-0.116
					c0.193-0.095,0.29-0.142,0.482-0.237c1.213-0.533,2.333-1.175,3.36-1.922c1.025-0.747,1.98-1.581,2.865-2.499
					c1.936-1.989,2.748-3.692,2.544-5.07c-0.013-0.088-0.02-0.133-0.033-0.221c-0.009-0.064-0.014-0.096-0.024-0.16
					c-0.026-0.054-0.039-0.081-0.065-0.135c-0.096-0.218-0.144-0.326-0.24-0.544c-0.02-0.134-0.13-0.373-0.331-0.717
					c-0.095,0.411-0.142,0.616-0.239,1.027c-0.117,0.331-0.175,0.497-0.293,0.829c-0.081,0.205-0.121,0.307-0.202,0.512
					c-0.073,0.138-0.109,0.208-0.182,0.346c-0.101,0.133-0.152,0.2-0.253,0.333c-0.635,0.748-1.703,1.199-3.197,1.335
					c-1.341,0.122-2.341-0.306-2.984-1.272c-0.15-0.273-0.276-0.636-0.381-1.088c-0.105-0.707-0.157-1.061-0.262-1.768
					c-0.096-0.995,0.443-2.438,1.506-4.329c1.166-2.075,2.292-3.199,3.468-3.323c0.808-0.085,1.811,0.631,3.054,2.137
					C280.92,445.992,281.704,447.612,281.984,449.362z M278.27,449.145c-0.011-0.08-0.017-0.12-0.028-0.201
					c-0.089-0.643-0.415-1.165-0.973-1.568c-0.558-0.403-1.11-0.578-1.664-0.525c-0.161,0.016-0.285,0.034-0.37,0.056
					c-0.086,0.022-0.261,0.093-0.528,0.213c-0.265,0.12-0.524,0.312-0.776,0.579c-0.534,0.508-0.788,0.936-0.75,1.285
					c0.024,0.228,0.388,0.497,1.097,0.8c0.413,0.069,0.619,0.103,1.033,0.17c0.378-0.003,0.567-0.005,0.946-0.01
					c0.169-0.025,0.253-0.037,0.422-0.062c0.088-0.017,0.132-0.026,0.219-0.043c0.127-0.07,0.19-0.105,0.317-0.175
					C277.638,449.457,277.849,449.353,278.27,449.145z"/>
				<path d="M328.714,442.673c-0.975,0.362-1.464,0.54-2.444,0.889c-0.975,0.347-1.945,0.27-2.896-0.229
					c-0.327-0.192-0.756-0.602-1.281-1.233c-0.163,0.514-0.246,0.771-0.414,1.285c-0.107,0.399-0.162,0.598-0.272,0.997
					c-0.085,0.365-0.128,0.547-0.216,0.912c-5.908,1.927-8.908,2.777-14.965,4.252c-1.336,0.325-2.496,0.188-3.461-0.4
					c-0.965-0.588-1.604-1.471-1.929-2.636c-0.343-1.231-0.463-2.786-0.387-4.662c0.076-1.876,0.342-2.868,0.829-2.982
					c0.094,0.53,0.141,0.796,0.235,1.326c0.115,1.509,0.209,2.407,0.292,2.694c0.046,0.157,0.069,0.235,0.114,0.392
					c0.067,0.169,0.101,0.253,0.169,0.421c0.095,0.137,0.142,0.205,0.237,0.342c0.081,0.121,0.216,0.215,0.406,0.282
					c0.506,0.309,0.76,0.462,1.27,0.768c0.678,0.299,1.455,0.341,2.322,0.124c5.881-1.474,8.792-2.321,14.525-4.233
					c0.004-0.062,0.005-0.092,0.009-0.154c-0.051-0.329-0.076-0.494-0.128-0.822c-0.135-0.551-0.203-0.827-0.34-1.378
					c-0.125-0.321-0.188-0.482-0.313-0.803c-0.105-0.294-0.157-0.44-0.262-0.734c0.528-1.476,0.781-2.215,1.266-3.691
					c0.093,0.211,0.139,0.316,0.232,0.527c0.218,0.559,0.326,0.839,0.543,1.398c0.182,0.414,0.434,1.255,0.749,2.521
					c0.044,0.124,0.066,0.186,0.11,0.31c0.198,0.453,0.616,0.807,1.258,1.058c0.326,0.117,0.659,0.173,0.996,0.168
					c0.196-0.018,0.294-0.027,0.491-0.046c0.199-0.055,0.299-0.082,0.498-0.138c0.393-0.143,0.589-0.216,0.982-0.361
					C327.65,440.371,328.005,441.138,328.714,442.673z M320.285,452.862c0.054,0.14-0.235,0.619-0.882,1.433
					s-1.11,1.299-1.374,1.461c-0.186,0.054-0.807-0.088-1.852-0.437c-1.044-0.349-1.586-0.601-1.635-0.742
					c-0.027-0.077,0.258-0.592,0.836-1.549c0.282-0.419,0.422-0.629,0.7-1.049c0.169-0.168,0.254-0.252,0.422-0.42
					c0.101,0.03,0.151,0.045,0.252,0.075c0.664,0.232,0.998,0.347,1.667,0.574C319.163,452.473,319.536,452.604,320.285,452.862z"/>
				<path d="M326.933,438.818c6.656-2.479,9.925-3.87,16.294-6.954c0.876,1.473,1.313,2.209,2.189,3.682
					c-6.529,3.162-9.88,4.587-16.702,7.128C328.002,441.131,327.645,440.36,326.933,438.818z"/>
				<path d="M343.248,431.899c2.117-1.022,3.167-1.55,5.249-2.639c0.248-0.13,0.48-0.389,0.692-0.775
					c0.212-0.387,0.253-0.876,0.052-1.265c-0.12-0.233-0.58-0.766-1.26-1.566c-1.103-1.212-1.651-1.819-2.743-3.038
					c-2.191-2.524-3.474-3.9-3.883-4.109c-0.375-0.132-0.562-0.199-0.936-0.333c-0.198-0.206-0.297-0.309-0.495-0.516
					c-0.134-0.211-0.168-0.912-0.124-2.101c0.045-1.188,0.125-1.856,0.261-2.008c0.099,0.152,0.168,0.233,0.208,0.243
					c0.433,0.397,1.048,0.706,1.846,0.919c0.499,0.124,1.312,0.21,2.444,0.246c0.699-0.037,1.048-0.057,1.749-0.102
					c0.052,0.344,0.078,0.517,0.128,0.862c0.058,0.399,0.086,0.598,0.142,0.997c0.02,0.218,0.03,0.327,0.049,0.546
					c0.053,0.926-0.169,1.526-0.656,1.793c-0.088,0.048-0.132,0.072-0.22,0.12c0.533,0.572,0.8,0.857,1.335,1.427
					c0.922,0.997,1.531,1.707,1.82,2.134c0.226,0.335,0.487,0.912,0.779,1.733c0.157,0.436,0.236,0.654,0.391,1.091
					c0.143,0.463,0.214,0.694,0.355,1.157c0.138-0.107,0.286-0.282,0.438-0.524c0.225-0.418,0.336-0.627,0.557-1.046
					c1.117-2.149,1.832-3.525,2.235-4.118c0.696-1.06,1.038-1.593,1.706-2.66c1.063-1.633,1.857-2.642,2.439-3.018
					c0.7-0.452,1.99-0.635,3.88-0.577c2.141,0.066,3.611,0.528,4.37,1.433c0.221,0.86,0.329,1.291,0.54,2.155
					c0.773-0.532,1.158-0.801,1.924-1.344c1.123,1.318,1.684,1.977,2.807,3.295c-8.186,5.799-16.867,10.892-25.901,15.251
					C344.555,434.098,344.12,433.365,343.248,431.899z M363.581,419.814c-0.197-0.316-0.938-0.587-2.003-0.766
					c-1.322-0.222-2.485-0.016-3.477,0.605c-1.09,0.682-2.153,1.824-3.233,3.428c-0.724,1.336-1.096,2.002-1.861,3.331
					c-0.158,0.251-0.238,0.377-0.398,0.628c4.241-2.362,6.321-3.615,10.385-6.263c0.272-0.177,0.459-0.337,0.562-0.48
					C363.659,420.153,363.674,419.963,363.581,419.814z"/>
				<path d="M368.521,417.018c2.557-1.813,3.815-2.749,6.287-4.681c0.039-0.173-0.129-0.462-0.505-0.865
					c-0.666-0.712-1.768-1.619-3.289-2.735c-0.987-0.698-1.479-1.048-2.46-1.752c-1.091-0.81-1.635-1.217-2.718-2.035
					c-0.781,0.014-1.171,0.018-1.949,0.022c-0.252-1.003-0.381-1.503-0.646-2.499c-0.135-0.64-0.204-0.959-0.346-1.596
					c-0.056-0.426-0.084-0.639-0.143-1.064c0.191,0.194,0.287,0.29,0.478,0.484c0.096,0.104,0.174,0.168,0.234,0.193
					c0.101,0.039,0.152,0.058,0.253,0.097c0.167,0.101,0.538,0.205,1.113,0.308c1.234-0.122,1.852-0.189,3.093-0.337
					c0.526-0.09,0.789-0.136,1.316-0.23c0.36-0.089,0.54-0.134,0.901-0.226c0.213,1.918,0.305,2.883,0.457,4.82
					c0.029,0.031,0.044,0.046,0.073,0.077c0.384,0.353,0.576,0.53,0.96,0.883c0.29,0.266,0.435,0.399,0.725,0.665
					c0.203,0.163,0.304,0.244,0.507,0.406c0.276,0.201,0.414,0.302,0.69,0.503c0.992,0.786,1.49,1.178,2.486,1.96
					c0.157,0.163,0.286,0.25,0.329,0.278c0.257,0.166,0.696,0.879,1.258,1.784c0.292,0.471,0.438,0.706,0.728,1.178
					c0.225,0.344,0.371,0.567,0.436,0.667c0.065,0.101,0.153,0.297,0.264,0.587c0.094,0.033,0.043,0.209-0.153,0.528
					c-0.14,0.155-0.21,0.232-0.351,0.387c-0.132,0.137-0.198,0.205-0.33,0.341c-2.705,2.129-4.084,3.159-6.89,5.148
					C370.205,418.995,369.644,418.336,368.521,417.018z"/>
				<path d="M383.934,401.798c1.376,1.258,2.392,2.546,3.042,3.848c0.439,0.879,0.728,1.834,0.841,2.858
					c-5.569-4.083-8.326-6.153-13.784-10.349c-0.123-0.118-0.387-0.893-0.817-2.313c-0.323-1.261-0.49-1.889-0.837-3.14
					c0.504,0.368,0.756,0.552,1.261,0.92c0.848,0.618,1.273,0.926,2.123,1.542C379.173,397.745,381.908,399.946,383.934,401.798z"/>
				<path d="M391.815,372.095c0.11,0.375,0.165,0.563,0.273,0.939c0.098,0.389,0.147,0.584,0.243,0.975
					c0.171,0.708,0.237,1.12,0.206,1.232c-0.079,0.048-0.119,0.072-0.198,0.12c-0.215,0.141-0.664,0.377-1.348,0.699
					c-1.014,0.468-1.603,0.701-1.765,0.722c0.032,0.223,0.048,0.334,0.08,0.557c0.022,0.207,0.034,0.31,0.055,0.518
					c0.052,0.624,0.116,0.976,0.203,1.052c-0.251,0.196-0.502,0.358-0.754,0.484c-0.41,0.175-0.615,0.262-1.025,0.434
					c-0.307,0.114-0.46,0.171-0.766,0.283c-0.366,0.124-0.65,0.195-0.854,0.216c-0.159-0.889-0.242-1.333-0.414-2.216
					c-0.065-0.367-0.097-0.55-0.164-0.915c0.26-0.047,0.858-0.195,1.727-0.494c0.769-0.264,1.232-0.513,1.359-0.673
					c0.085-0.108,0.093-0.351,0.024-0.728c-0.101-0.682-0.153-1.023-0.262-1.702C389.788,373.017,390.464,372.717,391.815,372.095z
					 M412.783,378.006c-0.659,0.981-0.992,1.468-1.666,2.433c-0.58,0.831-1.861,1.068-3.362,0.491
					c-1.143-0.439-1.9-0.855-2.123-0.891c-0.084-0.032-0.125-0.048-0.209-0.08c-0.042,0.102-0.063,0.153-0.105,0.256
					c-0.059,0.375,0.208,1.078,0.787,2.116c0.58,1.039,0.698,1.788,0.365,2.228c-0.139,0.185-0.998,0.974-2.6,2.309
					c-0.782,0.671-1.175,1.003-1.965,1.658c-0.244,0.217-0.366,0.325-0.61,0.541c-0.159,0.166-0.238,0.248-0.397,0.413
					c-0.419-0.303-1.083-1.15-2.009-2.525s-1.43-2.438-1.499-3.2c-0.062-0.472-0.013-1.301,0.13-2.489
					c0.172-1.677,0.246-2.514,0.368-4.186c-0.145-0.094-0.399-0.174-0.761-0.24c-0.27-0.084-0.406-0.126-0.676-0.211
					c-0.243-0.568-0.366-0.852-0.614-1.417c-0.235-0.466-0.354-0.698-0.592-1.162c-0.286-0.515-0.431-0.771-0.721-1.284
					c0.759,0.304,1.14,0.455,1.901,0.755c0.744,0.31,1.116,0.464,1.862,0.77c2.143,0.963,3.218,1.44,5.372,2.383
					c1.634,0.703,2.628,1.077,2.976,1.132c0.272-0.013,0.408-0.019,0.681-0.033c0.21-0.05,0.432-0.243,0.665-0.582
					c0.103-0.15,0.155-0.226,0.258-0.376c0.294-0.43,0.44-0.646,0.731-1.079C410.496,376.645,411.258,377.099,412.783,378.006z
					 M403.906,379.26c-0.189-0.121-0.284-0.181-0.473-0.302c-0.288-0.131-0.433-0.197-0.721-0.328
					c-0.17-0.109-0.351-0.189-0.543-0.243c-0.296-0.106-0.444-0.159-0.74-0.265c-1.197-0.505-1.876-0.745-2.041-0.715
					c-0.013,0.407,0.086,0.827,0.299,1.263c0.247,0.433,0.37,0.65,0.615,1.085c0.16,0.457,0.169,1.09,0.022,1.897
					c-0.189,0.983-0.288,1.474-0.493,2.456c0.253-0.182,0.38-0.273,0.632-0.456c0.28-0.218,0.42-0.328,0.699-0.549
					c0.235-0.219,0.352-0.329,0.586-0.549c0.308-0.331,0.523-0.52,0.646-0.563c0.352-0.379,0.527-0.57,0.877-0.953
					c0.268-0.36,0.402-0.541,0.667-0.904c0.152-0.223,0.228-0.334,0.38-0.558C404.153,379.449,404.071,379.386,403.906,379.26z"/>
				<path d="M408.97,375.739c1.943-2.894,2.879-4.375,4.677-7.407c-0.03-0.068-0.045-0.102-0.075-0.171
					c-0.76-0.57-1.141-0.854-1.904-1.421c-0.246-0.129-0.368-0.194-0.614-0.324c-0.2-0.105-0.3-0.158-0.499-0.263
					c-0.15-0.12-0.226-0.18-0.376-0.3c-0.301-0.719-0.454-1.078-0.762-1.792c-0.477-1.139-0.712-1.813-0.688-2.033
					c0.068,0.004,0.101,0.006,0.169,0.01c0.11,0.036,0.164,0.053,0.274,0.089c0.633,0.32,1.281,0.731,1.943,1.235
					c0.708,0.492,1.062,0.738,1.769,1.232c0.089,0.055,0.133,0.082,0.221,0.137c0.529,0.27,1.132,0.277,1.81,0.014
					c0.336-0.125,0.634-0.303,0.895-0.537c0.141-0.148,0.212-0.222,0.353-0.371c0.119-0.18,0.178-0.271,0.296-0.452
					c0.254-0.467,0.38-0.701,0.631-1.17c1.606,0.773,2.408,1.159,4.014,1.932c-0.578,1.082-0.871,1.619-1.466,2.684
					c-0.419,0.749-1.035,1.33-1.791,1.616c-0.65,0.247-1.545,0.259-2.582,0.083c0.685,1.161,1.023,1.746,1.69,2.922
					c-1.613,2.675-2.449,3.986-4.173,6.555C411.257,377.1,410.495,376.647,408.97,375.739z M425.233,369.226
					c0.192,0.405,0.288,0.607,0.478,1.013c0.039,0.108,0.059,0.162,0.097,0.27c0.049,0.125,0.074,0.187,0.123,0.312
					c0.075,0.238,0.112,0.357,0.186,0.595c0.222,0.633,0.323,1.096,0.305,1.387c-0.172,0.124-0.257,0.186-0.429,0.309
					c-0.268,0.185-0.402,0.278-0.67,0.461c-0.254,0.158-0.381,0.237-0.635,0.394c-0.707,0.43-1.062,0.642-1.771,1.061
					c0.117,0.643,0.174,0.966,0.284,1.611c0.135,0.524,0.227,0.811,0.282,0.86c-0.195,0.232-0.473,0.473-0.834,0.72
					c-0.204,0.145-0.306,0.218-0.511,0.362c-0.235,0.127-0.352,0.191-0.587,0.317c-0.804,0.427-1.358,0.669-1.66,0.737
					c-0.276-0.97-0.417-1.454-0.706-2.417c-0.11-0.44-0.165-0.659-0.278-1.098c0.443-0.081,1.205-0.436,2.28-1.087
					c0.449-0.29,0.795-0.555,1.04-0.793c0.002-0.087,0.003-0.131,0.005-0.218c-0.042-0.233-0.062-0.35-0.105-0.583
					c-0.195-0.789-0.295-1.182-0.499-1.967C423.076,370.598,423.797,370.149,425.233,369.226z"/>
				<path d="M417.091,362.215c1.678-3.142,2.479-4.747,3.999-8.027c-5.455-1.29-8.171-1.969-13.575-3.396
					c-0.684-1.145-1.031-1.714-1.735-2.843c-0.191-0.333-0.287-0.499-0.479-0.831c-0.237-0.443-0.356-0.663-0.596-1.104
					c0.497,0.205,2.05,0.679,4.668,1.402c2.945,0.902,4.42,1.346,7.375,2.224c0.848,0.343,1.631,0.601,2.349,0.773
					c0.729,0.183,1.093,0.274,1.822,0.455c0.944,0.379,1.59,0.176,1.93-0.614c0.178-0.413,0.266-0.62,0.442-1.034
					c1.667,0.644,2.501,0.966,4.168,1.609c-0.654,1.546-0.99,2.312-1.678,3.83c-0.088,0.193-0.4,0.319-0.937,0.376
					c-0.848-0.175-1.272-0.264-2.119-0.443c0.18,0.127,0.402,0.48,0.659,1.06c0.405,0.799,0.606,1.2,1.002,2.005
					c-1.262,2.641-1.919,3.939-3.282,6.491C419.499,363.375,418.696,362.988,417.091,362.215z"/>
				<path d="M423.291,349.219c0.586-1.386,0.873-2.084,1.431-3.494c4.227-10.504,7.367-21.434,9.459-32.56
					c-0.306-0.081-0.458-0.122-0.764-0.202c-0.822-0.132-1.505,0.118-2.053,0.739c-0.259,0.27-0.491,0.671-0.7,1.204
					c-0.11,0.333-0.165,0.499-0.276,0.831c-0.104,0.426-0.156,0.639-0.262,1.063c0.021-0.1,0.031-0.15,0.051-0.249
					c-0.22,1.591-0.338,2.381-0.591,3.953c-0.579,3.035-0.9,4.533-1.599,7.49c-0.804,3.205-1.242,4.784-2.183,7.891
					c-0.539,1.553-0.817,2.322-1.39,3.847c-0.377,0.951-0.569,1.424-0.958,2.363c-0.18,0.454-0.27,0.681-0.453,1.133
					c-0.17,0.274-0.256,0.411-0.427,0.683c-0.285,0.371-0.635,0.785-1.051,1.237c-0.209,0.327-0.566,0.396-1.071,0.209
					c-0.518-0.191-1.047-0.587-1.592-1.183c-0.544-0.596-0.979-1.301-1.31-2.113c-0.331-0.81-0.717-1.833-1.103-3.026
					c-0.327-1.01-0.582-2.03-0.793-3.01c-0.337-1.499-0.601-3.491-0.846-5.975c-0.031-0.634-0.048-0.951-0.085-1.585
					c-0.022-0.743-0.035-1.114-0.065-1.858c0.011-0.572,0.015-0.859,0.021-1.432c0.011-0.59,0.015-0.885,0.021-1.476
					c0.698,0.803,1.045,1.207,1.733,2.022c0.447,0.543,0.669,0.816,1.111,1.364c-0.036,0.316-0.055,0.474-0.093,0.79
					c-0.049,0.323-0.056,0.681-0.022,1.074c0.013,0.503,0.019,0.755,0.028,1.258c0.005,0.28,0.007,0.421,0.011,0.701
					c0.021,0.314,0.03,0.471,0.049,0.786c0.058,1.116,0.082,1.674,0.121,2.789c-0.019,1.059,0.096,2.173,0.266,3.29
					c0.23,1.51,0.481,2.663,0.857,3.351c0.048,0.046,0.071,0.069,0.119,0.116c0.043-0.015,0.065-0.022,0.108-0.037
					c0.371-0.117,0.931-1.141,1.629-3.109c0.607-1.634,0.901-2.459,1.469-4.126c0.542-1.615,0.804-2.43,1.309-4.075
					c0.861-2.943,1.262-4.437,2-7.473c0.238-1.04,0.354-1.563,0.577-2.613c0.217-1.022,0.322-1.536,0.525-2.567
					c0.281-1.521,0.413-2.287,0.663-3.829c0.257-1.345,0.646-2.514,1.178-3.514c0.532-0.998,1.176-1.726,1.942-2.178
					c0.336-0.164,0.728-0.217,1.177-0.158c0.797,0.105,1.945,0.578,3.434,1.438c1.04,0.601,1.559,0.904,2.595,1.517
					c0.557,0.285,0.835,0.427,1.391,0.715c-2.175,13.578-6.158,26.912-11.421,39.599
					C425.792,350.185,424.958,349.863,423.291,349.219z"/>
			</g>
		</g>
	</g>
</g>
</svg>
