<svg xmlns="http://www.w3.org/2000/svg" xmlns:xlink="http://www.w3.org/1999/xlink" width="772" height="749" viewBox="0 0 772 749">
  <defs>
    <clipPath id="clip-Web_1920_1">
      <rect width="772" height="749"/>
    </clipPath>
  </defs>
  <g id="Web_1920_1" data-name="Web 1920 – 1" clip-path="url(#clip-Web_1920_1)">
    <g id="Group_1" data-name="Group 1">
      <path id="Path_1" data-name="Path 1" d="M473.9,731.531l.707-15.9a51.352,51.352,0,0,1,23.953-6.063c-11.5,9.405-10.066,27.536-17.866,40.184a30.889,30.889,0,0,1-22.651,14.274l-9.627,5.894a51.76,51.76,0,0,1,10.91-41.943,50,50,0,0,1,9.189-8.538C470.825,725.519,473.9,731.531,473.9,731.531Z" transform="translate(-213.764 -62.276)" fill="#f2f2f2"/>
      <path id="Path_2" data-name="Path 2" d="M871.837,499.854c25.955-19.769,38.352-52.989,30.591-84.679q-.289-1.181-.611-2.357c-5.145-18.811-17.874-36.689-36.427-42.7-15.578-5.047-32.581-1.166-48.832-3.173-31.9-3.94-56.635-29.752-74.038-56.778s-30.777-57.277-53.9-79.6c-38.117-36.8-100.295-44.727-147.555-20.771S463.7,286.9,464.984,339.866s32.729,103.611,78.4,130.48c16.776,9.87,36.179,16.863,55.489,14.416,16.755-2.123,31.979-11.126,48.655-13.8,26.219-4.2,52.27,7.652,74.948,21.466s44.582,30.188,70.351,36.592C817.845,535.239,848.845,517.366,871.837,499.854Z" transform="translate(-213.764 -62.276)" fill="#f2f2f2"/>
      <path id="Path_3" data-name="Path 3" d="M666.469,263.3H407.9a20.364,20.364,0,0,0-20.34,20.34v128.69a20.364,20.364,0,0,0,20.34,20.34h258.57a20.357,20.357,0,0,0,20.34-20.34V283.639a20.357,20.357,0,0,0-20.34-20.34Z" transform="translate(-213.764 -62.276)" fill="#fff"/>
      <path id="Path_4" data-name="Path 4" d="M666.47,433.672H407.9a21.364,21.364,0,0,1-21.34-21.34V283.637A21.365,21.365,0,0,1,407.9,262.3H666.47a21.365,21.365,0,0,1,21.34,21.34V412.331A21.364,21.364,0,0,1,666.47,433.672ZM407.9,264.3a19.362,19.362,0,0,0-19.34,19.34V412.331a19.363,19.363,0,0,0,19.34,19.34H666.47a19.363,19.363,0,0,0,19.34-19.34V283.637a19.362,19.362,0,0,0-19.34-19.34Z" transform="translate(-213.764 -62.276)" fill="#ccc"/>
      <path id="Path_5" data-name="Path 5" d="M678.364,469.248H430.576a8.076,8.076,0,0,1,0-16.151H678.364a8.076,8.076,0,0,1,0,16.151Z" transform="translate(-213.764 -62.276)" fill="#e6e6e6"/>
      <path id="Path_6" data-name="Path 6" d="M510.012,392.241a8.694,8.694,0,0,1-4.194-1.092,8.581,8.581,0,0,1-4.508-7.62V311.706a8.694,8.694,0,0,1,13.356-7.339L582.8,340.279a8.695,8.695,0,0,1,0,14.677l-68.132,35.911a8.653,8.653,0,0,1-4.653,1.374Z" transform="translate(-213.764 -62.276)" fill="#f2f2f2"/>
      <path id="Path_7" data-name="Path 7" d="M910.116,356.432H802.063a8.51,8.51,0,0,1-8.5-8.5V294.153a8.509,8.509,0,0,1,8.5-8.5H910.116a8.509,8.509,0,0,1,8.5,8.5v53.78a8.51,8.51,0,0,1-8.5,8.5Z" transform="translate(-213.764 -62.276)" fill="#fff"/>
      <path id="Path_8" data-name="Path 8" d="M910.116,357.432H802.064a9.511,9.511,0,0,1-9.5-9.5V294.153a9.511,9.511,0,0,1,9.5-9.5H910.116a9.511,9.511,0,0,1,9.5,9.5v53.779A9.511,9.511,0,0,1,910.116,357.432ZM802.064,286.653a7.508,7.508,0,0,0-7.5,7.5v53.779a7.508,7.508,0,0,0,7.5,7.5H910.116a7.508,7.508,0,0,0,7.5-7.5V294.153a7.508,7.508,0,0,0-7.5-7.5Z" transform="translate(-213.764 -62.276)" fill="#ccc"/>
      <path id="Path_9" data-name="Path 9" d="M892.364,382.748H819.576a8.076,8.076,0,0,1,0-16.151h72.789a8.076,8.076,0,0,1,0,16.151Z" transform="translate(-213.764 -62.276)" fill="#e6e6e6"/>
      <path id="Path_10" data-name="Path 10" d="M844.471,340.181a3.634,3.634,0,0,1-1.753-.456,3.586,3.586,0,0,1-1.884-3.184V306.527a3.633,3.633,0,0,1,5.581-3.067l28.471,15.007a3.633,3.633,0,0,1,0,6.133l-28.471,15.007a3.616,3.616,0,0,1-1.945.573Z" transform="translate(-213.764 -62.276)" fill="#6c63ff"/>
      <path id="Path_11" data-name="Path 11" d="M841.116,587.788H733.063a8.51,8.51,0,0,1-8.5-8.5v-53.78a8.51,8.51,0,0,1,8.5-8.5H841.116a8.51,8.51,0,0,1,8.5,8.5v53.78A8.51,8.51,0,0,1,841.116,587.788Z" transform="translate(-213.764 -62.276)" fill="#fff"/>
      <path id="Path_12" data-name="Path 12" d="M841.116,588.788H733.064a9.511,9.511,0,0,1-9.5-9.5V525.509a9.511,9.511,0,0,1,9.5-9.5H841.116a9.511,9.511,0,0,1,9.5,9.5v53.78A9.511,9.511,0,0,1,841.116,588.788ZM733.064,518.009a7.508,7.508,0,0,0-7.5,7.5v53.78a7.508,7.508,0,0,0,7.5,7.5H841.116a7.508,7.508,0,0,0,7.5-7.5v-53.78a7.508,7.508,0,0,0-7.5-7.5Z" transform="translate(-213.764 -62.276)" fill="#ccc"/>
      <path id="Path_13" data-name="Path 13" d="M823.364,614.248H750.576a8.076,8.076,0,0,1,0-16.151h72.789a8.076,8.076,0,0,1,0,16.151Z" transform="translate(-213.764 -62.276)" fill="#e6e6e6"/>
      <path id="Path_14" data-name="Path 14" d="M775.208,573.181a3.633,3.633,0,0,1-1.753-.457,3.586,3.586,0,0,1-1.884-3.184V539.527a3.633,3.633,0,0,1,5.581-3.067l28.471,15.007a3.633,3.633,0,0,1,0,6.133l-28.471,15.006a3.615,3.615,0,0,1-1.945.574Z" transform="translate(-213.764 -62.276)" fill="#6c63ff"/>
      <path id="Path_15" data-name="Path 15" d="M474.2,401.724l-55.3.371s-31.5-10.154-45.781-8.032l-5.462,21.455,39.235,13,68.284-9.907a9.774,9.774,0,1,0-.971-16.886Z" transform="translate(-213.764 -62.276)" fill="#a0616a"/>
      <path id="Path_16" data-name="Path 16" d="M406.424,430.6l-65.613-18.871-5.973-22.258a17.974,17.974,0,0,1,1.389-18.921h0c5.6-7.586,9.98-.051,17.929,5.022,13.936.985,48.72,12.887,62.84,26.668l-1.113,8.471Z" transform="translate(-213.764 -62.276)" fill="#3f3d56"/>
      <path id="Path_17" data-name="Path 17" d="M463.512,412.427a8.7,8.7,0,0,1-4.194-1.092,8.581,8.581,0,0,1-4.508-7.62V331.892a8.694,8.694,0,0,1,13.356-7.339L536.3,360.465a8.695,8.695,0,0,1,0,14.677l-68.131,35.911a8.653,8.653,0,0,1-4.654,1.374Z" transform="translate(-213.764 -62.276)" fill="#6c63ff"/>
      <path id="Path_18" data-name="Path 18" d="M147.978,631.089h13.959l6.64-53.84h-20.6Z" transform="translate(56 65)" fill="#a0616a"/>
      <path id="Path_19" data-name="Path 19" d="M414.181,753.807h3.929l15.339-6.238,8.221,6.237h0a17.519,17.519,0,0,1,17.518,17.517v.57l-45.008,0Z" transform="translate(-213.764 -62.276)" fill="#2f2e41"/>
      <path id="Path_20" data-name="Path 20" d="M48.578,617.948,61.8,622.424l23.558-48.865-19.513-6.607Z" transform="translate(56 65)" fill="#a0616a"/>
      <path id="Path_21" data-name="Path 21" d="M316.431,739.765l3.721,1.26,16.53-.989,5.786,8.544h0a17.519,17.519,0,0,1,10.974,22.211l-.183.539L310.63,756.9Z" transform="translate(-213.764 -62.276)" fill="#2f2e41"/>
      <path id="Path_22" data-name="Path 22" d="M334.522,526.457s-1.63,19.559,2.445,38.3,12.844,80.964,12.844,80.964c-17.762,29.194-28.056,57.921-30,87l25,2,35.8-84.934,3.627-85.03,26.078,57.862-1.341,4.47a5.036,5.036,0,0,0,2.153,5.717h0s-2.442,15.892-.812,15.892,5.7,2.445,5.7,2.445c-10.16,31.628-11.524,61.917-2.206,90.58l22-1L450.245,616.1l-10.594-67.641-.815-13.039-3.667.151-1.867-5.448-3.43-9.372Z" transform="translate(-213.764 -62.276)" fill="#2f2e41"/>
      <path id="Path_23" data-name="Path 23" d="M333.113,530.565l-.145-.2c-7.757-10.86,3.91-36.957,5.669-40.74l-7.411-2.405-6.481-54.84-4.739-18.945a41.592,41.592,0,0,1,11.805-40.308l10.956-10.33,13.315-19.7h21.47L384.914,357a31.3,31.3,0,0,1,24.214,31.952l-1.669,36.471,6.532,45.41,0,8.218,11.34,18.593,2.47,11.527c1.022,1.349,7.77,10.346,7.77,12.806,0,.369-.273.726-.858,1.122-4.6,3.114-30.015,9.462-41.264,4.961-11.982-4.791-59.614,2.4-60.094,2.47Z" transform="translate(-213.764 -62.276)" fill="#3f3d56"/>
      <path id="Path_24" data-name="Path 24" d="M552.434,771.534a1.186,1.186,0,0,1-1.183,1.19h-280.3a1.19,1.19,0,0,1,0-2.38h280.29a1.187,1.187,0,0,1,1.19,1.183Z" transform="translate(-213.764 -62.276)" fill="#ccc"/>
      <circle id="Ellipse_1" data-name="Ellipse 1" cx="28.436" cy="28.436" r="28.436" transform="translate(127.39 217.585)" fill="#a0616a"/>
      <path id="Path_25" data-name="Path 25" d="M475.15,330.128,431.277,363.8s-31.242,10.913-41.352,21.225l8.593,20.4,39.129-13.314,48.467-49.11a9.774,9.774,0,1,0-10.965-12.878Z" transform="translate(-213.764 -62.276)" fill="#a0616a"/>
      <path id="Path_26" data-name="Path 26" d="M438.529,394.055,377.582,411.9l-20.955-7.436a17.974,17.974,0,0,1-10.311-15.926h0c-.112-9.43,7.927-6.064,17.327-6.816,11.706-7.625,46.624-19.127,66.2-16.661l4.225,7.426Z" transform="translate(-213.764 -62.276)" fill="#3f3d56"/>
      <path id="Path_27" data-name="Path 27" d="M389.089,275.465c-2.038-.061-1.338-3.9-2.98-5.128q-.012.056-.025.111a4,4,0,0,1-7.648.326,6.082,6.082,0,0,0-3.862-4.052c-.1,3.561-2.8,6.651-6.009,8.189s-6.877,1.794-10.438,1.846-7.175-.067-10.629.8-6.813,2.921-8.289,6.163-.423,7.706,2.8,9.215c-2.5.013-4.621,2.076-5.485,4.422a17.558,17.558,0,0,0-.542,7.419c.7,9.2,2.415,19.095,9.111,25.436,5.1,4.833,12.407,6.78,19.435,6.752s5.793-.674,12.588-2.468c0,0,6.461-18.521,4.834-20.344s-2.978-4.154-2.684-6.578,2.9-4.6,5.162-3.674c-.38-.972-.667-1.157-.846-1.108a8.59,8.59,0,0,0,.3-.845,9.616,9.616,0,0,1,6.005-6.368,7.457,7.457,0,0,1,8.151,2.467C405.483,291.073,400.866,275.815,389.089,275.465Z" transform="translate(-213.764 -62.276)" fill="#2f2e41"/>
      <path id="Path_32" data-name="Path 32" d="M628.839,263.3v27.16c0,1.35-2.36,2.48-5.54,2.79a.219.219,0,0,0-.08.01c-.53.04-1.09.07-1.66.07a14.571,14.571,0,0,1-5.15-.84c-.15-.06-.3-.13-.45-.19-.14-.08-.29-.15-.43-.23-.79-.47-1.25-1.02-1.25-1.61V263.3Z" transform="translate(-213.764 -62.276)" fill="#ccc"/>
      <circle id="Ellipse_5" data-name="Ellipse 5" cx="12.372" cy="12.372" r="12.372" transform="translate(623.728 510.414)" fill="#3f3d56"/>
      <path id="Path_33" data-name="Path 33" d="M848.937,590.006l-.079,0a1.618,1.618,0,0,1-1.2-.623l-2.068-2.658a1.619,1.619,0,0,1,.284-2.272l.074-.058a1.618,1.618,0,0,1,2.272.284,1.181,1.181,0,0,0,1.788.087l4.2-4.432a1.621,1.621,0,0,1,2.289-.062l.069.066a1.618,1.618,0,0,1,.062,2.289l-6.515,6.877a1.617,1.617,0,0,1-1.175.506Z" transform="translate(-213.764 -62.276)" fill="#fff"/>
      <circle id="Ellipse_6" data-name="Ellipse 6" cx="12.372" cy="12.372" r="12.372" transform="translate(691.728 280.414)" fill="#3f3d56"/>
    </g>
    <path id="Path_34" data-name="Path 34" d="M916.937,360.006l-.079,0a1.618,1.618,0,0,1-1.2-.623l-2.068-2.658a1.619,1.619,0,0,1,.284-2.272l.074-.058a1.618,1.618,0,0,1,2.272.284,1.181,1.181,0,0,0,1.788.087l4.2-4.432a1.621,1.621,0,0,1,2.289-.062l.069.066a1.618,1.618,0,0,1,.062,2.289l-6.515,6.877A1.617,1.617,0,0,1,916.937,360.006Z" transform="translate(-213.764 -62.276)" fill="#fff"/>
  </g>
</svg>
